0
SECTION
2
HEADER
9
$INSUNITS
70
4
0
ENDSEC
0
SECTION
2
TABLES
0
TABLE
2
LTYPE
0
LTYPE
72
65
70
64
2
CONTINUOUS
3
______
73
0
40
0
0
ENDTAB
0
TABLE
2
LAYER
0
ENDTAB
0
ENDSEC
0
SECTION
2
ENTITIES
0
LINE
8
0
10
240.475
20
-189.8929684
11
240.475
21
-116.275
0
LINE
8
0
10
242.475
20
-114.275
11
257.525
21
-114.275
0
LINE
8
0
10
259.525
20
-112.275
11
259.525
21
-111.275
0
LINE
8
0
10
261.525
20
-109.275
11
276.575
21
-109.275
0
LINE
8
0
10
278.575
20
-107.275
11
278.575
21
-104.275
0
LINE
8
0
10
280.575
20
-102.275
11
295.625
21
-102.275
0
LINE
8
0
10
297.625
20
-104.275
11
297.625
21
-107.275
0
LINE
8
0
10
299.625
20
-109.275
11
314.675
21
-109.275
0
LINE
8
0
10
316.675
20
-111.275
11
316.675
21
-112.275
0
LINE
8
0
10
318.675
20
-114.275
11
371.825
21
-114.275
0
LINE
8
0
10
335.725
20
-114.275
11
335.725
21
-114.275
0
LINE
8
0
10
373.825
20
-116.275
11
373.825
21
-207.525
0
LINE
8
0
10
371.825
20
-209.525
11
318.675
21
-209.525
0
LINE
8
0
10
316.675
20
-207.525
11
316.675
21
-206.525
0
LINE
8
0
10
314.675
20
-204.525
11
299.1706986
21
-204.525
0
LINE
8
0
10
297.2353046
20
-203.029232
11
297.070209
21
-202.3955456
0
LINE
8
0
10
294.617177
20
-200.9679259
11
243.2916595
21
-214.7205568
0
LINE
8
0
10
240.8421698
20
-213.3063431
11
236.6568107
21
-197.6863703
0
LINE
8
0
10
236.9009735
20
-196.0955565
11
240.1626889
21
-190.9661442
0
ARC
8
0
10
242.475
20
-116.275
40
2
50
90
51
180
0
ARC
8
0
10
257.525
20
-112.275
40
2
50
270
51
0
0
ARC
8
0
10
261.525
20
-111.275
40
2
50
90
51
180
0
ARC
8
0
10
276.575
20
-107.275
40
2
50
270
51
0
0
ARC
8
0
10
280.575
20
-104.275
40
2
50
90
51
180
0
ARC
8
0
10
295.625
20
-104.275
40
2
50
0
51
90
0
ARC
8
0
10
299.625
20
-107.275
40
2
50
180
51
270
0
ARC
8
0
10
314.675
20
-111.275
40
2
50
0
51
90
0
ARC
8
0
10
318.675
20
-112.275
40
2
50
180
51
270
0
ARC
8
0
10
371.825
20
-116.275
40
2
50
0
51
90
0
ARC
8
0
10
371.825
20
-207.525
40
2
50
270
51
0
0
ARC
8
0
10
318.675
20
-207.525
40
2
50
180
51
270
0
ARC
8
0
10
314.675
20
-206.525
40
2
50
0
51
90
0
ARC
8
0
10
299.1706986
20
-202.525
40
2
50
194.6027619
51
270
0
ARC
8
0
10
295.134815
20
-202.8997776
40
2
50
14.6027619
51
104.9999979
0
ARC
8
0
10
242.7740215
20
-212.7887051
40
2
50
194.9999979
51
284.9999979
0
ARC
8
0
10
238.5886624
20
-197.1687323
40
2
50
147.548339
51
194.9999979
0
ARC
8
0
10
238.475
20
-189.8929684
40
2
50
327.548339
51
0
0
ENDSEC
0
EOF