0
SECTION
2
HEADER
9
$INSUNITS
70
4
0
ENDSEC
0
SECTION
2
TABLES
0
TABLE
2
LTYPE
0
LTYPE
72
65
70
64
2
CONTINUOUS
3
______
73
0
40
0
0
ENDTAB
0
TABLE
2
LAYER
0
ENDTAB
0
ENDSEC
0
SECTION
2
ENTITIES
0
LINE
8
0
10
238.975
20
-191.975
11
246.2529574
21
-191.975
0
LINE
8
0
10
236.975
20
-189.975
11
236.975
21
-104.775
0
LINE
8
0
10
256.025
20
-102.775
11
238.975
21
-102.775
0
LINE
8
0
10
277.075
20
-97.775
11
260.025
21
-97.775
0
LINE
8
0
10
258.025
20
-99.775
11
258.025
21
-100.775
0
LINE
8
0
10
305.125
20
-95.775
11
305.125
21
-92.775
0
LINE
8
0
10
303.125
20
-90.775
11
281.075
21
-90.775
0
LINE
8
0
10
279.075
20
-92.775
11
279.075
21
-95.775
0
LINE
8
0
10
302.125
20
-208.025
11
319.175
21
-208.025
0
LINE
8
0
10
300.125
20
-206.025
11
300.125
21
-204.5089742
0
LINE
8
0
10
326.175
20
-100.775
11
326.175
21
-99.775
0
LINE
8
0
10
324.175
20
-97.775
11
307.125
21
-97.775
0
LINE
8
0
10
323.175
20
-213.025
11
387.325
21
-213.025
0
LINE
8
0
10
321.175
20
-210.025
11
321.175
21
-211.025
0
LINE
8
0
10
328.175
20
-102.775
11
387.325
21
-102.775
0
LINE
8
0
10
389.325
20
-211.025
11
389.325
21
-104.775
0
LINE
8
0
10
242.8167858
20
-219.8646638
11
300.125
21
-204.5089742
0
LINE
8
0
10
246.2529574
20
-191.975
11
236.0745499
21
-194.7022961
0
LINE
8
0
10
234.6603362
20
-197.1517858
11
240.3672961
21
-218.4504501
0
ARC
8
0
10
236.5921879
20
-196.6341478
40
2
50
104.9999979
51
194.9999979
0
ARC
8
0
10
242.2991478
20
-217.9328121
40
2
50
194.9999979
51
284.9999979
0
ARC
8
0
10
302.125
20
-206.025
40
2
50
180
51
270
0
ARC
8
0
10
319.175
20
-210.025
40
2
50
0
51
90
0
ARC
8
0
10
323.175
20
-211.025
40
2
50
180
51
270
0
ARC
8
0
10
387.325
20
-211.025
40
2
50
270
51
0
0
ARC
8
0
10
387.325
20
-104.775
40
2
50
0
51
90
0
ARC
8
0
10
328.175
20
-100.775
40
2
50
180
51
270
0
ARC
8
0
10
324.175
20
-99.775
40
2
50
0
51
90
0
ARC
8
0
10
307.125
20
-95.775
40
2
50
180
51
270
0
ARC
8
0
10
303.125
20
-92.775
40
2
50
0
51
90
0
ARC
8
0
10
281.075
20
-92.775
40
2
50
90
51
180
0
ARC
8
0
10
277.075
20
-95.775
40
2
50
270
51
0
0
ARC
8
0
10
260.025
20
-99.775
40
2
50
90
51
180
0
ARC
8
0
10
256.025
20
-100.775
40
2
50
270
51
0
0
ARC
8
0
10
238.975
20
-104.775
40
2
50
90
51
180
0
ARC
8
0
10
238.975
20
-189.975
40
2
50
180
51
270
0
LINE
8
0
10
206.3470426
20
-191.975
11
213.625
21
-191.975
0
LINE
8
0
10
215.625
20
-189.975
11
215.625
21
-104.775
0
LINE
8
0
10
213.625
20
-102.775
11
196.575
21
-102.775
0
LINE
8
0
10
194.575
20
-100.775
11
194.575
21
-99.775
0
LINE
8
0
10
192.575
20
-97.775
11
175.525
21
-97.775
0
LINE
8
0
10
173.525
20
-95.775
11
173.525
21
-92.775
0
LINE
8
0
10
171.525
20
-90.775
11
149.475
21
-90.775
0
LINE
8
0
10
147.475
20
-92.775
11
147.475
21
-95.775
0
LINE
8
0
10
133.425
20
-208.025
11
150.475
21
-208.025
0
LINE
8
0
10
152.475
20
-206.025
11
152.475
21
-204.5089742
0
LINE
8
0
10
145.475
20
-97.775
11
128.425
21
-97.775
0
LINE
8
0
10
126.425
20
-99.775
11
126.425
21
-100.775
0
LINE
8
0
10
86.325
20
-213.025
11
129.425
21
-213.025
0
LINE
8
0
10
131.425
20
-211.025
11
131.425
21
-210.025
0
LINE
8
0
10
86.325
20
-102.775
11
124.425
21
-102.775
0
LINE
8
0
10
84.325
20
-211.025
11
84.325
21
-104.775
0
LINE
8
0
10
152.475
20
-204.5089742
11
209.7832142
21
-219.8646638
0
LINE
8
0
10
212.2327039
20
-218.4504501
11
217.9396638
21
-197.1517858
0
LINE
8
0
10
216.5254501
20
-194.7022961
11
206.3470426
21
-191.975
0
ARC
8
0
10
210.3008522
20
-217.9328121
40
2
50
255.0000021
51
345.0000021
0
ARC
8
0
10
216.0078121
20
-196.6341478
40
2
50
345.0000021
51
75.0000021
0
ARC
8
0
10
213.625
20
-189.975
40
2
50
270
51
0
0
ARC
8
0
10
213.625
20
-104.775
40
2
50
0
51
90
0
ARC
8
0
10
196.575
20
-100.775
40
2
50
180
51
270
0
ARC
8
0
10
192.575
20
-99.775
40
2
50
0
51
90
0
ARC
8
0
10
175.525
20
-95.775
40
2
50
180
51
270
0
ARC
8
0
10
171.525
20
-92.775
40
2
50
0
51
90
0
ARC
8
0
10
149.475
20
-92.775
40
2
50
90
51
180
0
ARC
8
0
10
145.475
20
-95.775
40
2
50
270
51
0
0
ARC
8
0
10
128.425
20
-99.775
40
2
50
90
51
180
0
ARC
8
0
10
124.425
20
-100.775
40
2
50
270
51
0
0
ARC
8
0
10
86.325
20
-104.775
40
2
50
90
51
180
0
ARC
8
0
10
86.325
20
-211.025
40
2
50
180
51
270
0
ARC
8
0
10
129.425
20
-211.025
40
2
50
270
51
0
0
ARC
8
0
10
133.425
20
-210.025
40
2
50
90
51
180
0
ARC
8
0
10
150.475
20
-206.025
40
2
50
270
51
0
0
LINE
8
0
10
240.725
20
-188.225
11
259.275
21
-188.225
0
LINE
8
0
10
259.275
20
-188.225
11
259.275
21
-169.675
0
LINE
8
0
10
259.275
20
-169.675
11
240.725
21
-169.675
0
LINE
8
0
10
240.725
20
-169.675
11
240.725
21
-188.225
0
LINE
8
0
10
240.725
20
-167.175
11
259.275
21
-167.175
0
LINE
8
0
10
259.275
20
-167.175
11
259.275
21
-148.625
0
LINE
8
0
10
259.275
20
-148.625
11
240.725
21
-148.625
0
LINE
8
0
10
240.725
20
-148.625
11
240.725
21
-167.175
0
LINE
8
0
10
240.725
20
-146.125
11
259.275
21
-146.125
0
LINE
8
0
10
259.275
20
-146.125
11
259.275
21
-127.575
0
LINE
8
0
10
259.275
20
-127.575
11
240.725
21
-127.575
0
LINE
8
0
10
240.725
20
-127.575
11
240.725
21
-146.125
0
LINE
8
0
10
240.725
20
-125.075
11
259.275
21
-125.075
0
LINE
8
0
10
259.275
20
-125.075
11
259.275
21
-106.525
0
LINE
8
0
10
259.275
20
-106.525
11
240.725
21
-106.525
0
LINE
8
0
10
240.725
20
-106.525
11
240.725
21
-125.075
0
LINE
8
0
10
261.775
20
-183.225
11
280.325
21
-183.225
0
LINE
8
0
10
280.325
20
-183.225
11
280.325
21
-164.675
0
LINE
8
0
10
280.325
20
-164.675
11
261.775
21
-164.675
0
LINE
8
0
10
261.775
20
-164.675
11
261.775
21
-183.225
0
LINE
8
0
10
261.775
20
-162.175
11
280.325
21
-162.175
0
LINE
8
0
10
280.325
20
-162.175
11
280.325
21
-143.625
0
LINE
8
0
10
280.325
20
-143.625
11
261.775
21
-143.625
0
LINE
8
0
10
261.775
20
-143.625
11
261.775
21
-162.175
0
LINE
8
0
10
261.775
20
-141.125
11
280.325
21
-141.125
0
LINE
8
0
10
280.325
20
-141.125
11
280.325
21
-122.575
0
LINE
8
0
10
280.325
20
-122.575
11
261.775
21
-122.575
0
LINE
8
0
10
261.775
20
-122.575
11
261.775
21
-141.125
0
LINE
8
0
10
261.775
20
-120.075
11
280.325
21
-120.075
0
LINE
8
0
10
280.325
20
-120.075
11
280.325
21
-101.525
0
LINE
8
0
10
280.325
20
-101.525
11
261.775
21
-101.525
0
LINE
8
0
10
261.775
20
-101.525
11
261.775
21
-120.075
0
LINE
8
0
10
282.825
20
-176.225
11
301.375
21
-176.225
0
LINE
8
0
10
301.375
20
-176.225
11
301.375
21
-157.675
0
LINE
8
0
10
301.375
20
-157.675
11
282.825
21
-157.675
0
LINE
8
0
10
282.825
20
-157.675
11
282.825
21
-176.225
0
LINE
8
0
10
282.825
20
-155.175
11
301.375
21
-155.175
0
LINE
8
0
10
301.375
20
-155.175
11
301.375
21
-136.625
0
LINE
8
0
10
301.375
20
-136.625
11
282.825
21
-136.625
0
LINE
8
0
10
282.825
20
-136.625
11
282.825
21
-155.175
0
LINE
8
0
10
282.825
20
-134.125
11
301.375
21
-134.125
0
LINE
8
0
10
301.375
20
-134.125
11
301.375
21
-115.575
0
LINE
8
0
10
301.375
20
-115.575
11
282.825
21
-115.575
0
LINE
8
0
10
282.825
20
-115.575
11
282.825
21
-134.125
0
LINE
8
0
10
282.825
20
-113.075
11
301.375
21
-113.075
0
LINE
8
0
10
301.375
20
-113.075
11
301.375
21
-94.525
0
LINE
8
0
10
301.375
20
-94.525
11
282.825
21
-94.525
0
LINE
8
0
10
282.825
20
-94.525
11
282.825
21
-113.075
0
LINE
8
0
10
303.875
20
-204.275
11
322.425
21
-204.275
0
LINE
8
0
10
322.425
20
-204.275
11
322.425
21
-185.725
0
LINE
8
0
10
322.425
20
-185.725
11
303.875
21
-185.725
0
LINE
8
0
10
303.875
20
-185.725
11
303.875
21
-204.275
0
LINE
8
0
10
303.875
20
-183.225
11
322.425
21
-183.225
0
LINE
8
0
10
322.425
20
-183.225
11
322.425
21
-164.675
0
LINE
8
0
10
322.425
20
-164.675
11
303.875
21
-164.675
0
LINE
8
0
10
303.875
20
-164.675
11
303.875
21
-183.225
0
LINE
8
0
10
303.875
20
-162.175
11
322.425
21
-162.175
0
LINE
8
0
10
322.425
20
-162.175
11
322.425
21
-143.625
0
LINE
8
0
10
322.425
20
-143.625
11
303.875
21
-143.625
0
LINE
8
0
10
303.875
20
-143.625
11
303.875
21
-162.175
0
LINE
8
0
10
303.875
20
-141.125
11
322.425
21
-141.125
0
LINE
8
0
10
322.425
20
-141.125
11
322.425
21
-122.575
0
LINE
8
0
10
322.425
20
-122.575
11
303.875
21
-122.575
0
LINE
8
0
10
303.875
20
-122.575
11
303.875
21
-141.125
0
LINE
8
0
10
303.875
20
-120.075
11
322.425
21
-120.075
0
LINE
8
0
10
322.425
20
-120.075
11
322.425
21
-101.525
0
LINE
8
0
10
322.425
20
-101.525
11
303.875
21
-101.525
0
LINE
8
0
10
303.875
20
-101.525
11
303.875
21
-120.075
0
LINE
8
0
10
324.925
20
-209.275
11
343.475
21
-209.275
0
LINE
8
0
10
343.475
20
-209.275
11
343.475
21
-190.725
0
LINE
8
0
10
343.475
20
-190.725
11
324.925
21
-190.725
0
LINE
8
0
10
324.925
20
-190.725
11
324.925
21
-209.275
0
LINE
8
0
10
324.925
20
-188.225
11
343.475
21
-188.225
0
LINE
8
0
10
343.475
20
-188.225
11
343.475
21
-169.675
0
LINE
8
0
10
343.475
20
-169.675
11
324.925
21
-169.675
0
LINE
8
0
10
324.925
20
-169.675
11
324.925
21
-188.225
0
LINE
8
0
10
324.925
20
-167.175
11
343.475
21
-167.175
0
LINE
8
0
10
343.475
20
-167.175
11
343.475
21
-148.625
0
LINE
8
0
10
343.475
20
-148.625
11
324.925
21
-148.625
0
LINE
8
0
10
324.925
20
-148.625
11
324.925
21
-167.175
0
LINE
8
0
10
324.925
20
-146.125
11
343.475
21
-146.125
0
LINE
8
0
10
343.475
20
-146.125
11
343.475
21
-127.575
0
LINE
8
0
10
343.475
20
-127.575
11
324.925
21
-127.575
0
LINE
8
0
10
324.925
20
-127.575
11
324.925
21
-146.125
0
LINE
8
0
10
324.925
20
-125.075
11
343.475
21
-125.075
0
LINE
8
0
10
343.475
20
-125.075
11
343.475
21
-106.525
0
LINE
8
0
10
343.475
20
-106.525
11
324.925
21
-106.525
0
LINE
8
0
10
324.925
20
-106.525
11
324.925
21
-125.075
0
LINE
8
0
10
345.975
20
-209.275
11
364.525
21
-209.275
0
LINE
8
0
10
364.525
20
-209.275
11
364.525
21
-190.725
0
LINE
8
0
10
364.525
20
-190.725
11
345.975
21
-190.725
0
LINE
8
0
10
345.975
20
-190.725
11
345.975
21
-209.275
0
LINE
8
0
10
345.975
20
-188.225
11
364.525
21
-188.225
0
LINE
8
0
10
364.525
20
-188.225
11
364.525
21
-169.675
0
LINE
8
0
10
364.525
20
-169.675
11
345.975
21
-169.675
0
LINE
8
0
10
345.975
20
-169.675
11
345.975
21
-188.225
0
LINE
8
0
10
345.975
20
-167.175
11
364.525
21
-167.175
0
LINE
8
0
10
364.525
20
-167.175
11
364.525
21
-148.625
0
LINE
8
0
10
364.525
20
-148.625
11
345.975
21
-148.625
0
LINE
8
0
10
345.975
20
-148.625
11
345.975
21
-167.175
0
LINE
8
0
10
345.975
20
-146.125
11
364.525
21
-146.125
0
LINE
8
0
10
364.525
20
-146.125
11
364.525
21
-127.575
0
LINE
8
0
10
364.525
20
-127.575
11
345.975
21
-127.575
0
LINE
8
0
10
345.975
20
-127.575
11
345.975
21
-146.125
0
LINE
8
0
10
345.975
20
-125.075
11
364.525
21
-125.075
0
LINE
8
0
10
364.525
20
-125.075
11
364.525
21
-106.525
0
LINE
8
0
10
364.525
20
-106.525
11
345.975
21
-106.525
0
LINE
8
0
10
345.975
20
-106.525
11
345.975
21
-125.075
0
LINE
8
0
10
367.025
20
-209.275
11
385.575
21
-209.275
0
LINE
8
0
10
385.575
20
-209.275
11
385.575
21
-190.725
0
LINE
8
0
10
385.575
20
-190.725
11
367.025
21
-190.725
0
LINE
8
0
10
367.025
20
-190.725
11
367.025
21
-209.275
0
LINE
8
0
10
367.025
20
-188.225
11
385.575
21
-188.225
0
LINE
8
0
10
385.575
20
-188.225
11
385.575
21
-169.675
0
LINE
8
0
10
385.575
20
-169.675
11
367.025
21
-169.675
0
LINE
8
0
10
367.025
20
-169.675
11
367.025
21
-188.225
0
LINE
8
0
10
367.025
20
-167.175
11
385.575
21
-167.175
0
LINE
8
0
10
385.575
20
-167.175
11
385.575
21
-148.625
0
LINE
8
0
10
385.575
20
-148.625
11
367.025
21
-148.625
0
LINE
8
0
10
367.025
20
-148.625
11
367.025
21
-167.175
0
LINE
8
0
10
367.025
20
-146.125
11
385.575
21
-146.125
0
LINE
8
0
10
385.575
20
-146.125
11
385.575
21
-127.575
0
LINE
8
0
10
385.575
20
-127.575
11
367.025
21
-127.575
0
LINE
8
0
10
367.025
20
-127.575
11
367.025
21
-146.125
0
LINE
8
0
10
367.025
20
-125.075
11
385.575
21
-125.075
0
LINE
8
0
10
385.575
20
-125.075
11
385.575
21
-106.525
0
LINE
8
0
10
385.575
20
-106.525
11
367.025
21
-106.525
0
LINE
8
0
10
367.025
20
-106.525
11
367.025
21
-125.075
0
LINE
8
0
10
193.325
20
-188.225
11
211.875
21
-188.225
0
LINE
8
0
10
211.875
20
-188.225
11
211.875
21
-169.675
0
LINE
8
0
10
211.875
20
-169.675
11
193.325
21
-169.675
0
LINE
8
0
10
193.325
20
-169.675
11
193.325
21
-188.225
0
LINE
8
0
10
193.325
20
-167.175
11
211.875
21
-167.175
0
LINE
8
0
10
211.875
20
-167.175
11
211.875
21
-148.625
0
LINE
8
0
10
211.875
20
-148.625
11
193.325
21
-148.625
0
LINE
8
0
10
193.325
20
-148.625
11
193.325
21
-167.175
0
LINE
8
0
10
193.325
20
-146.125
11
211.875
21
-146.125
0
LINE
8
0
10
211.875
20
-146.125
11
211.875
21
-127.575
0
LINE
8
0
10
211.875
20
-127.575
11
193.325
21
-127.575
0
LINE
8
0
10
193.325
20
-127.575
11
193.325
21
-146.125
0
LINE
8
0
10
193.325
20
-125.075
11
211.875
21
-125.075
0
LINE
8
0
10
211.875
20
-125.075
11
211.875
21
-106.525
0
LINE
8
0
10
211.875
20
-106.525
11
193.325
21
-106.525
0
LINE
8
0
10
193.325
20
-106.525
11
193.325
21
-125.075
0
LINE
8
0
10
172.275
20
-183.225
11
190.825
21
-183.225
0
LINE
8
0
10
190.825
20
-183.225
11
190.825
21
-164.675
0
LINE
8
0
10
190.825
20
-164.675
11
172.275
21
-164.675
0
LINE
8
0
10
172.275
20
-164.675
11
172.275
21
-183.225
0
LINE
8
0
10
172.275
20
-162.175
11
190.825
21
-162.175
0
LINE
8
0
10
190.825
20
-162.175
11
190.825
21
-143.625
0
LINE
8
0
10
190.825
20
-143.625
11
172.275
21
-143.625
0
LINE
8
0
10
172.275
20
-143.625
11
172.275
21
-162.175
0
LINE
8
0
10
172.275
20
-141.125
11
190.825
21
-141.125
0
LINE
8
0
10
190.825
20
-141.125
11
190.825
21
-122.575
0
LINE
8
0
10
190.825
20
-122.575
11
172.275
21
-122.575
0
LINE
8
0
10
172.275
20
-122.575
11
172.275
21
-141.125
0
LINE
8
0
10
172.275
20
-120.075
11
190.825
21
-120.075
0
LINE
8
0
10
190.825
20
-120.075
11
190.825
21
-101.525
0
LINE
8
0
10
190.825
20
-101.525
11
172.275
21
-101.525
0
LINE
8
0
10
172.275
20
-101.525
11
172.275
21
-120.075
0
LINE
8
0
10
151.225
20
-176.225
11
169.775
21
-176.225
0
LINE
8
0
10
169.775
20
-176.225
11
169.775
21
-157.675
0
LINE
8
0
10
169.775
20
-157.675
11
151.225
21
-157.675
0
LINE
8
0
10
151.225
20
-157.675
11
151.225
21
-176.225
0
LINE
8
0
10
151.225
20
-155.175
11
169.775
21
-155.175
0
LINE
8
0
10
169.775
20
-155.175
11
169.775
21
-136.625
0
LINE
8
0
10
169.775
20
-136.625
11
151.225
21
-136.625
0
LINE
8
0
10
151.225
20
-136.625
11
151.225
21
-155.175
0
LINE
8
0
10
151.225
20
-134.125
11
169.775
21
-134.125
0
LINE
8
0
10
169.775
20
-134.125
11
169.775
21
-115.575
0
LINE
8
0
10
169.775
20
-115.575
11
151.225
21
-115.575
0
LINE
8
0
10
151.225
20
-115.575
11
151.225
21
-134.125
0
LINE
8
0
10
151.225
20
-113.075
11
169.775
21
-113.075
0
LINE
8
0
10
169.775
20
-113.075
11
169.775
21
-94.525
0
LINE
8
0
10
169.775
20
-94.525
11
151.225
21
-94.525
0
LINE
8
0
10
151.225
20
-94.525
11
151.225
21
-113.075
0
LINE
8
0
10
130.175
20
-204.275
11
148.725
21
-204.275
0
LINE
8
0
10
148.725
20
-204.275
11
148.725
21
-185.725
0
LINE
8
0
10
148.725
20
-185.725
11
130.175
21
-185.725
0
LINE
8
0
10
130.175
20
-185.725
11
130.175
21
-204.275
0
LINE
8
0
10
130.175
20
-183.225
11
148.725
21
-183.225
0
LINE
8
0
10
148.725
20
-183.225
11
148.725
21
-164.675
0
LINE
8
0
10
148.725
20
-164.675
11
130.175
21
-164.675
0
LINE
8
0
10
130.175
20
-164.675
11
130.175
21
-183.225
0
LINE
8
0
10
130.175
20
-162.175
11
148.725
21
-162.175
0
LINE
8
0
10
148.725
20
-162.175
11
148.725
21
-143.625
0
LINE
8
0
10
148.725
20
-143.625
11
130.175
21
-143.625
0
LINE
8
0
10
130.175
20
-143.625
11
130.175
21
-162.175
0
LINE
8
0
10
130.175
20
-141.125
11
148.725
21
-141.125
0
LINE
8
0
10
148.725
20
-141.125
11
148.725
21
-122.575
0
LINE
8
0
10
148.725
20
-122.575
11
130.175
21
-122.575
0
LINE
8
0
10
130.175
20
-122.575
11
130.175
21
-141.125
0
LINE
8
0
10
130.175
20
-120.075
11
148.725
21
-120.075
0
LINE
8
0
10
148.725
20
-120.075
11
148.725
21
-101.525
0
LINE
8
0
10
148.725
20
-101.525
11
130.175
21
-101.525
0
LINE
8
0
10
130.175
20
-101.525
11
130.175
21
-120.075
0
LINE
8
0
10
109.125
20
-209.275
11
127.675
21
-209.275
0
LINE
8
0
10
127.675
20
-209.275
11
127.675
21
-190.725
0
LINE
8
0
10
127.675
20
-190.725
11
109.125
21
-190.725
0
LINE
8
0
10
109.125
20
-190.725
11
109.125
21
-209.275
0
LINE
8
0
10
109.125
20
-188.225
11
127.675
21
-188.225
0
LINE
8
0
10
127.675
20
-188.225
11
127.675
21
-169.675
0
LINE
8
0
10
127.675
20
-169.675
11
109.125
21
-169.675
0
LINE
8
0
10
109.125
20
-169.675
11
109.125
21
-188.225
0
LINE
8
0
10
109.125
20
-167.175
11
127.675
21
-167.175
0
LINE
8
0
10
127.675
20
-167.175
11
127.675
21
-148.625
0
LINE
8
0
10
127.675
20
-148.625
11
109.125
21
-148.625
0
LINE
8
0
10
109.125
20
-148.625
11
109.125
21
-167.175
0
LINE
8
0
10
109.125
20
-146.125
11
127.675
21
-146.125
0
LINE
8
0
10
127.675
20
-146.125
11
127.675
21
-127.575
0
LINE
8
0
10
127.675
20
-127.575
11
109.125
21
-127.575
0
LINE
8
0
10
109.125
20
-127.575
11
109.125
21
-146.125
0
LINE
8
0
10
109.125
20
-125.075
11
127.675
21
-125.075
0
LINE
8
0
10
127.675
20
-125.075
11
127.675
21
-106.525
0
LINE
8
0
10
127.675
20
-106.525
11
109.125
21
-106.525
0
LINE
8
0
10
109.125
20
-106.525
11
109.125
21
-125.075
0
LINE
8
0
10
88.075
20
-209.275
11
106.625
21
-209.275
0
LINE
8
0
10
106.625
20
-209.275
11
106.625
21
-190.725
0
LINE
8
0
10
106.625
20
-190.725
11
88.075
21
-190.725
0
LINE
8
0
10
88.075
20
-190.725
11
88.075
21
-209.275
0
LINE
8
0
10
88.075
20
-188.225
11
106.625
21
-188.225
0
LINE
8
0
10
106.625
20
-188.225
11
106.625
21
-169.675
0
LINE
8
0
10
106.625
20
-169.675
11
88.075
21
-169.675
0
LINE
8
0
10
88.075
20
-169.675
11
88.075
21
-188.225
0
LINE
8
0
10
88.075
20
-167.175
11
106.625
21
-167.175
0
LINE
8
0
10
106.625
20
-167.175
11
106.625
21
-148.625
0
LINE
8
0
10
106.625
20
-148.625
11
88.075
21
-148.625
0
LINE
8
0
10
88.075
20
-148.625
11
88.075
21
-167.175
0
LINE
8
0
10
88.075
20
-146.125
11
106.625
21
-146.125
0
LINE
8
0
10
106.625
20
-146.125
11
106.625
21
-127.575
0
LINE
8
0
10
106.625
20
-127.575
11
88.075
21
-127.575
0
LINE
8
0
10
88.075
20
-127.575
11
88.075
21
-146.125
0
LINE
8
0
10
88.075
20
-125.075
11
106.625
21
-125.075
0
LINE
8
0
10
106.625
20
-125.075
11
106.625
21
-106.525
0
LINE
8
0
10
106.625
20
-106.525
11
88.075
21
-106.525
0
LINE
8
0
10
88.075
20
-106.525
11
88.075
21
-125.075
0
LINE
8
0
10
243.5365846
20
-215.7895087
11
261.4545087
21
-210.9884154
0
LINE
8
0
10
261.4545087
20
-210.9884154
11
256.6534154
21
-193.0704913
0
LINE
8
0
10
256.6534154
20
-193.0704913
11
238.7354913
21
-197.8715846
0
LINE
8
0
10
238.7354913
20
-197.8715846
11
243.5365846
21
-215.7895087
0
LINE
8
0
10
273.0697667
20
-207.8761164
11
290.9876908
21
-203.0750231
0
LINE
8
0
10
290.9876908
20
-203.0750231
11
286.1865975
21
-185.157099
0
LINE
8
0
10
286.1865975
20
-185.157099
11
268.2686734
21
-189.9581923
0
LINE
8
0
10
268.2686734
20
-189.9581923
11
273.0697667
21
-207.8761164
0
LINE
8
0
10
191.1454913
20
-210.9884154
11
209.0634154
21
-215.7895087
0
LINE
8
0
10
209.0634154
20
-215.7895087
11
213.8645087
21
-197.8715846
0
LINE
8
0
10
213.8645087
20
-197.8715846
11
195.9465846
21
-193.0704913
0
LINE
8
0
10
195.9465846
20
-193.0704913
11
191.1454913
21
-210.9884154
0
LINE
8
0
10
161.6123092
20
-203.0750231
11
179.5302333
21
-207.8761164
0
LINE
8
0
10
179.5302333
20
-207.8761164
11
184.3313266
21
-189.9581923
0
LINE
8
0
10
184.3313266
20
-189.9581923
11
166.4134025
21
-185.157099
0
LINE
8
0
10
166.4134025
20
-185.157099
11
161.6123092
21
-203.0750231
0
ENDSEC
0
EOF