0
SECTION
2
HEADER
9
$INSUNITS
70
4
0
ENDSEC
0
SECTION
2
TABLES
0
TABLE
2
LTYPE
0
LTYPE
72
65
70
64
2
CONTINUOUS
3
______
73
0
40
0
0
ENDTAB
0
TABLE
2
LAYER
0
ENDTAB
0
ENDSEC
0
SECTION
2
ENTITIES
0
LINE
8
0
10
240.725
20
-188.225
11
259.275
21
-188.225
0
LINE
8
0
10
259.275
20
-188.225
11
259.275
21
-169.675
0
LINE
8
0
10
259.275
20
-169.675
11
240.725
21
-169.675
0
LINE
8
0
10
240.725
20
-169.675
11
240.725
21
-188.225
0
LINE
8
0
10
240.725
20
-167.175
11
259.275
21
-167.175
0
LINE
8
0
10
259.275
20
-167.175
11
259.275
21
-148.625
0
LINE
8
0
10
259.275
20
-148.625
11
240.725
21
-148.625
0
LINE
8
0
10
240.725
20
-148.625
11
240.725
21
-167.175
0
LINE
8
0
10
240.725
20
-146.125
11
259.275
21
-146.125
0
LINE
8
0
10
259.275
20
-146.125
11
259.275
21
-127.575
0
LINE
8
0
10
259.275
20
-127.575
11
240.725
21
-127.575
0
LINE
8
0
10
240.725
20
-127.575
11
240.725
21
-146.125
0
LINE
8
0
10
240.725
20
-125.075
11
259.275
21
-125.075
0
LINE
8
0
10
259.275
20
-125.075
11
259.275
21
-106.525
0
LINE
8
0
10
259.275
20
-106.525
11
240.725
21
-106.525
0
LINE
8
0
10
240.725
20
-106.525
11
240.725
21
-125.075
0
LINE
8
0
10
261.775
20
-183.225
11
280.325
21
-183.225
0
LINE
8
0
10
280.325
20
-183.225
11
280.325
21
-164.675
0
LINE
8
0
10
280.325
20
-164.675
11
261.775
21
-164.675
0
LINE
8
0
10
261.775
20
-164.675
11
261.775
21
-183.225
0
LINE
8
0
10
261.775
20
-162.175
11
280.325
21
-162.175
0
LINE
8
0
10
280.325
20
-162.175
11
280.325
21
-143.625
0
LINE
8
0
10
280.325
20
-143.625
11
261.775
21
-143.625
0
LINE
8
0
10
261.775
20
-143.625
11
261.775
21
-162.175
0
LINE
8
0
10
261.775
20
-141.125
11
280.325
21
-141.125
0
LINE
8
0
10
280.325
20
-141.125
11
280.325
21
-122.575
0
LINE
8
0
10
280.325
20
-122.575
11
261.775
21
-122.575
0
LINE
8
0
10
261.775
20
-122.575
11
261.775
21
-141.125
0
LINE
8
0
10
261.775
20
-120.075
11
280.325
21
-120.075
0
LINE
8
0
10
280.325
20
-120.075
11
280.325
21
-101.525
0
LINE
8
0
10
280.325
20
-101.525
11
261.775
21
-101.525
0
LINE
8
0
10
261.775
20
-101.525
11
261.775
21
-120.075
0
LINE
8
0
10
282.825
20
-176.225
11
301.375
21
-176.225
0
LINE
8
0
10
301.375
20
-176.225
11
301.375
21
-157.675
0
LINE
8
0
10
301.375
20
-157.675
11
282.825
21
-157.675
0
LINE
8
0
10
282.825
20
-157.675
11
282.825
21
-176.225
0
LINE
8
0
10
282.825
20
-155.175
11
301.375
21
-155.175
0
LINE
8
0
10
301.375
20
-155.175
11
301.375
21
-136.625
0
LINE
8
0
10
301.375
20
-136.625
11
282.825
21
-136.625
0
LINE
8
0
10
282.825
20
-136.625
11
282.825
21
-155.175
0
LINE
8
0
10
282.825
20
-134.125
11
301.375
21
-134.125
0
LINE
8
0
10
301.375
20
-134.125
11
301.375
21
-115.575
0
LINE
8
0
10
301.375
20
-115.575
11
282.825
21
-115.575
0
LINE
8
0
10
282.825
20
-115.575
11
282.825
21
-134.125
0
LINE
8
0
10
282.825
20
-113.075
11
301.375
21
-113.075
0
LINE
8
0
10
301.375
20
-113.075
11
301.375
21
-94.525
0
LINE
8
0
10
301.375
20
-94.525
11
282.825
21
-94.525
0
LINE
8
0
10
282.825
20
-94.525
11
282.825
21
-113.075
0
LINE
8
0
10
303.875
20
-204.275
11
322.425
21
-204.275
0
LINE
8
0
10
322.425
20
-204.275
11
322.425
21
-185.725
0
LINE
8
0
10
322.425
20
-185.725
11
303.875
21
-185.725
0
LINE
8
0
10
303.875
20
-185.725
11
303.875
21
-204.275
0
LINE
8
0
10
303.875
20
-183.225
11
322.425
21
-183.225
0
LINE
8
0
10
322.425
20
-183.225
11
322.425
21
-164.675
0
LINE
8
0
10
322.425
20
-164.675
11
303.875
21
-164.675
0
LINE
8
0
10
303.875
20
-164.675
11
303.875
21
-183.225
0
LINE
8
0
10
303.875
20
-162.175
11
322.425
21
-162.175
0
LINE
8
0
10
322.425
20
-162.175
11
322.425
21
-143.625
0
LINE
8
0
10
322.425
20
-143.625
11
303.875
21
-143.625
0
LINE
8
0
10
303.875
20
-143.625
11
303.875
21
-162.175
0
LINE
8
0
10
303.875
20
-141.125
11
322.425
21
-141.125
0
LINE
8
0
10
322.425
20
-141.125
11
322.425
21
-122.575
0
LINE
8
0
10
322.425
20
-122.575
11
303.875
21
-122.575
0
LINE
8
0
10
303.875
20
-122.575
11
303.875
21
-141.125
0
LINE
8
0
10
303.875
20
-120.075
11
322.425
21
-120.075
0
LINE
8
0
10
322.425
20
-120.075
11
322.425
21
-101.525
0
LINE
8
0
10
322.425
20
-101.525
11
303.875
21
-101.525
0
LINE
8
0
10
303.875
20
-101.525
11
303.875
21
-120.075
0
LINE
8
0
10
324.925
20
-209.275
11
343.475
21
-209.275
0
LINE
8
0
10
343.475
20
-209.275
11
343.475
21
-190.725
0
LINE
8
0
10
343.475
20
-190.725
11
324.925
21
-190.725
0
LINE
8
0
10
324.925
20
-190.725
11
324.925
21
-209.275
0
LINE
8
0
10
324.925
20
-188.225
11
343.475
21
-188.225
0
LINE
8
0
10
343.475
20
-188.225
11
343.475
21
-169.675
0
LINE
8
0
10
343.475
20
-169.675
11
324.925
21
-169.675
0
LINE
8
0
10
324.925
20
-169.675
11
324.925
21
-188.225
0
LINE
8
0
10
324.925
20
-167.175
11
343.475
21
-167.175
0
LINE
8
0
10
343.475
20
-167.175
11
343.475
21
-148.625
0
LINE
8
0
10
343.475
20
-148.625
11
324.925
21
-148.625
0
LINE
8
0
10
324.925
20
-148.625
11
324.925
21
-167.175
0
LINE
8
0
10
324.925
20
-146.125
11
343.475
21
-146.125
0
LINE
8
0
10
343.475
20
-146.125
11
343.475
21
-127.575
0
LINE
8
0
10
343.475
20
-127.575
11
324.925
21
-127.575
0
LINE
8
0
10
324.925
20
-127.575
11
324.925
21
-146.125
0
LINE
8
0
10
324.925
20
-125.075
11
343.475
21
-125.075
0
LINE
8
0
10
343.475
20
-125.075
11
343.475
21
-106.525
0
LINE
8
0
10
343.475
20
-106.525
11
324.925
21
-106.525
0
LINE
8
0
10
324.925
20
-106.525
11
324.925
21
-125.075
0
LINE
8
0
10
345.975
20
-209.275
11
364.525
21
-209.275
0
LINE
8
0
10
364.525
20
-209.275
11
364.525
21
-190.725
0
LINE
8
0
10
364.525
20
-190.725
11
345.975
21
-190.725
0
LINE
8
0
10
345.975
20
-190.725
11
345.975
21
-209.275
0
LINE
8
0
10
345.975
20
-188.225
11
364.525
21
-188.225
0
LINE
8
0
10
364.525
20
-188.225
11
364.525
21
-169.675
0
LINE
8
0
10
364.525
20
-169.675
11
345.975
21
-169.675
0
LINE
8
0
10
345.975
20
-169.675
11
345.975
21
-188.225
0
LINE
8
0
10
345.975
20
-167.175
11
364.525
21
-167.175
0
LINE
8
0
10
364.525
20
-167.175
11
364.525
21
-148.625
0
LINE
8
0
10
364.525
20
-148.625
11
345.975
21
-148.625
0
LINE
8
0
10
345.975
20
-148.625
11
345.975
21
-167.175
0
LINE
8
0
10
345.975
20
-146.125
11
364.525
21
-146.125
0
LINE
8
0
10
364.525
20
-146.125
11
364.525
21
-127.575
0
LINE
8
0
10
364.525
20
-127.575
11
345.975
21
-127.575
0
LINE
8
0
10
345.975
20
-127.575
11
345.975
21
-146.125
0
LINE
8
0
10
345.975
20
-125.075
11
364.525
21
-125.075
0
LINE
8
0
10
364.525
20
-125.075
11
364.525
21
-106.525
0
LINE
8
0
10
364.525
20
-106.525
11
345.975
21
-106.525
0
LINE
8
0
10
345.975
20
-106.525
11
345.975
21
-125.075
0
LINE
8
0
10
367.025
20
-209.275
11
385.575
21
-209.275
0
LINE
8
0
10
385.575
20
-209.275
11
385.575
21
-190.725
0
LINE
8
0
10
385.575
20
-190.725
11
367.025
21
-190.725
0
LINE
8
0
10
367.025
20
-190.725
11
367.025
21
-209.275
0
LINE
8
0
10
367.025
20
-188.225
11
385.575
21
-188.225
0
LINE
8
0
10
385.575
20
-188.225
11
385.575
21
-169.675
0
LINE
8
0
10
385.575
20
-169.675
11
367.025
21
-169.675
0
LINE
8
0
10
367.025
20
-169.675
11
367.025
21
-188.225
0
LINE
8
0
10
367.025
20
-167.175
11
385.575
21
-167.175
0
LINE
8
0
10
385.575
20
-167.175
11
385.575
21
-148.625
0
LINE
8
0
10
385.575
20
-148.625
11
367.025
21
-148.625
0
LINE
8
0
10
367.025
20
-148.625
11
367.025
21
-167.175
0
LINE
8
0
10
367.025
20
-146.125
11
385.575
21
-146.125
0
LINE
8
0
10
385.575
20
-146.125
11
385.575
21
-127.575
0
LINE
8
0
10
385.575
20
-127.575
11
367.025
21
-127.575
0
LINE
8
0
10
367.025
20
-127.575
11
367.025
21
-146.125
0
LINE
8
0
10
367.025
20
-125.075
11
385.575
21
-125.075
0
LINE
8
0
10
385.575
20
-125.075
11
385.575
21
-106.525
0
LINE
8
0
10
385.575
20
-106.525
11
367.025
21
-106.525
0
LINE
8
0
10
367.025
20
-106.525
11
367.025
21
-125.075
0
LINE
8
0
10
193.325
20
-188.225
11
211.875
21
-188.225
0
LINE
8
0
10
211.875
20
-188.225
11
211.875
21
-169.675
0
LINE
8
0
10
211.875
20
-169.675
11
193.325
21
-169.675
0
LINE
8
0
10
193.325
20
-169.675
11
193.325
21
-188.225
0
LINE
8
0
10
193.325
20
-167.175
11
211.875
21
-167.175
0
LINE
8
0
10
211.875
20
-167.175
11
211.875
21
-148.625
0
LINE
8
0
10
211.875
20
-148.625
11
193.325
21
-148.625
0
LINE
8
0
10
193.325
20
-148.625
11
193.325
21
-167.175
0
LINE
8
0
10
193.325
20
-146.125
11
211.875
21
-146.125
0
LINE
8
0
10
211.875
20
-146.125
11
211.875
21
-127.575
0
LINE
8
0
10
211.875
20
-127.575
11
193.325
21
-127.575
0
LINE
8
0
10
193.325
20
-127.575
11
193.325
21
-146.125
0
LINE
8
0
10
193.325
20
-125.075
11
211.875
21
-125.075
0
LINE
8
0
10
211.875
20
-125.075
11
211.875
21
-106.525
0
LINE
8
0
10
211.875
20
-106.525
11
193.325
21
-106.525
0
LINE
8
0
10
193.325
20
-106.525
11
193.325
21
-125.075
0
LINE
8
0
10
172.275
20
-183.225
11
190.825
21
-183.225
0
LINE
8
0
10
190.825
20
-183.225
11
190.825
21
-164.675
0
LINE
8
0
10
190.825
20
-164.675
11
172.275
21
-164.675
0
LINE
8
0
10
172.275
20
-164.675
11
172.275
21
-183.225
0
LINE
8
0
10
172.275
20
-162.175
11
190.825
21
-162.175
0
LINE
8
0
10
190.825
20
-162.175
11
190.825
21
-143.625
0
LINE
8
0
10
190.825
20
-143.625
11
172.275
21
-143.625
0
LINE
8
0
10
172.275
20
-143.625
11
172.275
21
-162.175
0
LINE
8
0
10
172.275
20
-141.125
11
190.825
21
-141.125
0
LINE
8
0
10
190.825
20
-141.125
11
190.825
21
-122.575
0
LINE
8
0
10
190.825
20
-122.575
11
172.275
21
-122.575
0
LINE
8
0
10
172.275
20
-122.575
11
172.275
21
-141.125
0
LINE
8
0
10
172.275
20
-120.075
11
190.825
21
-120.075
0
LINE
8
0
10
190.825
20
-120.075
11
190.825
21
-101.525
0
LINE
8
0
10
190.825
20
-101.525
11
172.275
21
-101.525
0
LINE
8
0
10
172.275
20
-101.525
11
172.275
21
-120.075
0
LINE
8
0
10
151.225
20
-176.225
11
169.775
21
-176.225
0
LINE
8
0
10
169.775
20
-176.225
11
169.775
21
-157.675
0
LINE
8
0
10
169.775
20
-157.675
11
151.225
21
-157.675
0
LINE
8
0
10
151.225
20
-157.675
11
151.225
21
-176.225
0
LINE
8
0
10
151.225
20
-155.175
11
169.775
21
-155.175
0
LINE
8
0
10
169.775
20
-155.175
11
169.775
21
-136.625
0
LINE
8
0
10
169.775
20
-136.625
11
151.225
21
-136.625
0
LINE
8
0
10
151.225
20
-136.625
11
151.225
21
-155.175
0
LINE
8
0
10
151.225
20
-134.125
11
169.775
21
-134.125
0
LINE
8
0
10
169.775
20
-134.125
11
169.775
21
-115.575
0
LINE
8
0
10
169.775
20
-115.575
11
151.225
21
-115.575
0
LINE
8
0
10
151.225
20
-115.575
11
151.225
21
-134.125
0
LINE
8
0
10
151.225
20
-113.075
11
169.775
21
-113.075
0
LINE
8
0
10
169.775
20
-113.075
11
169.775
21
-94.525
0
LINE
8
0
10
169.775
20
-94.525
11
151.225
21
-94.525
0
LINE
8
0
10
151.225
20
-94.525
11
151.225
21
-113.075
0
LINE
8
0
10
130.175
20
-204.275
11
148.725
21
-204.275
0
LINE
8
0
10
148.725
20
-204.275
11
148.725
21
-185.725
0
LINE
8
0
10
148.725
20
-185.725
11
130.175
21
-185.725
0
LINE
8
0
10
130.175
20
-185.725
11
130.175
21
-204.275
0
LINE
8
0
10
130.175
20
-183.225
11
148.725
21
-183.225
0
LINE
8
0
10
148.725
20
-183.225
11
148.725
21
-164.675
0
LINE
8
0
10
148.725
20
-164.675
11
130.175
21
-164.675
0
LINE
8
0
10
130.175
20
-164.675
11
130.175
21
-183.225
0
LINE
8
0
10
130.175
20
-162.175
11
148.725
21
-162.175
0
LINE
8
0
10
148.725
20
-162.175
11
148.725
21
-143.625
0
LINE
8
0
10
148.725
20
-143.625
11
130.175
21
-143.625
0
LINE
8
0
10
130.175
20
-143.625
11
130.175
21
-162.175
0
LINE
8
0
10
130.175
20
-141.125
11
148.725
21
-141.125
0
LINE
8
0
10
148.725
20
-141.125
11
148.725
21
-122.575
0
LINE
8
0
10
148.725
20
-122.575
11
130.175
21
-122.575
0
LINE
8
0
10
130.175
20
-122.575
11
130.175
21
-141.125
0
LINE
8
0
10
130.175
20
-120.075
11
148.725
21
-120.075
0
LINE
8
0
10
148.725
20
-120.075
11
148.725
21
-101.525
0
LINE
8
0
10
148.725
20
-101.525
11
130.175
21
-101.525
0
LINE
8
0
10
130.175
20
-101.525
11
130.175
21
-120.075
0
LINE
8
0
10
109.125
20
-209.275
11
127.675
21
-209.275
0
LINE
8
0
10
127.675
20
-209.275
11
127.675
21
-190.725
0
LINE
8
0
10
127.675
20
-190.725
11
109.125
21
-190.725
0
LINE
8
0
10
109.125
20
-190.725
11
109.125
21
-209.275
0
LINE
8
0
10
109.125
20
-188.225
11
127.675
21
-188.225
0
LINE
8
0
10
127.675
20
-188.225
11
127.675
21
-169.675
0
LINE
8
0
10
127.675
20
-169.675
11
109.125
21
-169.675
0
LINE
8
0
10
109.125
20
-169.675
11
109.125
21
-188.225
0
LINE
8
0
10
109.125
20
-167.175
11
127.675
21
-167.175
0
LINE
8
0
10
127.675
20
-167.175
11
127.675
21
-148.625
0
LINE
8
0
10
127.675
20
-148.625
11
109.125
21
-148.625
0
LINE
8
0
10
109.125
20
-148.625
11
109.125
21
-167.175
0
LINE
8
0
10
109.125
20
-146.125
11
127.675
21
-146.125
0
LINE
8
0
10
127.675
20
-146.125
11
127.675
21
-127.575
0
LINE
8
0
10
127.675
20
-127.575
11
109.125
21
-127.575
0
LINE
8
0
10
109.125
20
-127.575
11
109.125
21
-146.125
0
LINE
8
0
10
109.125
20
-125.075
11
127.675
21
-125.075
0
LINE
8
0
10
127.675
20
-125.075
11
127.675
21
-106.525
0
LINE
8
0
10
127.675
20
-106.525
11
109.125
21
-106.525
0
LINE
8
0
10
109.125
20
-106.525
11
109.125
21
-125.075
0
LINE
8
0
10
88.075
20
-209.275
11
106.625
21
-209.275
0
LINE
8
0
10
106.625
20
-209.275
11
106.625
21
-190.725
0
LINE
8
0
10
106.625
20
-190.725
11
88.075
21
-190.725
0
LINE
8
0
10
88.075
20
-190.725
11
88.075
21
-209.275
0
LINE
8
0
10
88.075
20
-188.225
11
106.625
21
-188.225
0
LINE
8
0
10
106.625
20
-188.225
11
106.625
21
-169.675
0
LINE
8
0
10
106.625
20
-169.675
11
88.075
21
-169.675
0
LINE
8
0
10
88.075
20
-169.675
11
88.075
21
-188.225
0
LINE
8
0
10
88.075
20
-167.175
11
106.625
21
-167.175
0
LINE
8
0
10
106.625
20
-167.175
11
106.625
21
-148.625
0
LINE
8
0
10
106.625
20
-148.625
11
88.075
21
-148.625
0
LINE
8
0
10
88.075
20
-148.625
11
88.075
21
-167.175
0
LINE
8
0
10
88.075
20
-146.125
11
106.625
21
-146.125
0
LINE
8
0
10
106.625
20
-146.125
11
106.625
21
-127.575
0
LINE
8
0
10
106.625
20
-127.575
11
88.075
21
-127.575
0
LINE
8
0
10
88.075
20
-127.575
11
88.075
21
-146.125
0
LINE
8
0
10
88.075
20
-125.075
11
106.625
21
-125.075
0
LINE
8
0
10
106.625
20
-125.075
11
106.625
21
-106.525
0
LINE
8
0
10
106.625
20
-106.525
11
88.075
21
-106.525
0
LINE
8
0
10
88.075
20
-106.525
11
88.075
21
-125.075
0
LINE
8
0
10
243.5365846
20
-215.7895087
11
261.4545087
21
-210.9884154
0
LINE
8
0
10
261.4545087
20
-210.9884154
11
256.6534154
21
-193.0704913
0
LINE
8
0
10
256.6534154
20
-193.0704913
11
238.7354913
21
-197.8715846
0
LINE
8
0
10
238.7354913
20
-197.8715846
11
243.5365846
21
-215.7895087
0
LINE
8
0
10
273.0697667
20
-207.8761164
11
290.9876908
21
-203.0750231
0
LINE
8
0
10
290.9876908
20
-203.0750231
11
286.1865975
21
-185.157099
0
LINE
8
0
10
286.1865975
20
-185.157099
11
268.2686734
21
-189.9581923
0
LINE
8
0
10
268.2686734
20
-189.9581923
11
273.0697667
21
-207.8761164
0
LINE
8
0
10
191.1454913
20
-210.9884154
11
209.0634154
21
-215.7895087
0
LINE
8
0
10
209.0634154
20
-215.7895087
11
213.8645087
21
-197.8715846
0
LINE
8
0
10
213.8645087
20
-197.8715846
11
195.9465846
21
-193.0704913
0
LINE
8
0
10
195.9465846
20
-193.0704913
11
191.1454913
21
-210.9884154
0
LINE
8
0
10
161.6123092
20
-203.0750231
11
179.5302333
21
-207.8761164
0
LINE
8
0
10
179.5302333
20
-207.8761164
11
184.3313266
21
-189.9581923
0
LINE
8
0
10
184.3313266
20
-189.9581923
11
166.4134025
21
-185.157099
0
LINE
8
0
10
166.4134025
20
-185.157099
11
161.6123092
21
-203.0750231
0
ENDSEC
0
EOF