0
SECTION
2
HEADER
9
$INSUNITS
70
4
0
ENDSEC
0
SECTION
2
TABLES
0
TABLE
2
LTYPE
0
LTYPE
72
65
70
64
2
CONTINUOUS
3
______
73
0
40
0
0
ENDTAB
0
TABLE
2
LAYER
0
ENDTAB
0
ENDSEC
0
SECTION
2
ENTITIES
0
LINE
8
0
10
189.575
20
-191.975
11
189.7513842
21
-191.975
0
LINE
8
0
10
206.3470426
20
-191.975
11
213.625
21
-191.975
0
LINE
8
0
10
215.625
20
-189.975
11
215.625
21
-104.775
0
LINE
8
0
10
189.575
20
-186.975
11
189.575
21
-191.975
0
LINE
8
0
10
213.625
20
-102.775
11
196.575
21
-102.775
0
LINE
8
0
10
187.6867886
20
-186.975
11
189.575
21
-186.975
0
LINE
8
0
10
168.525
20
-179.975
11
168.525
21
-181.8406142
0
LINE
8
0
10
194.575
20
-100.775
11
194.575
21
-99.775
0
LINE
8
0
10
192.575
20
-97.775
11
175.525
21
-97.775
0
LINE
8
0
10
152.475
20
-179.975
11
168.525
21
-179.975
0
LINE
8
0
10
173.525
20
-95.775
11
173.525
21
-92.775
0
LINE
8
0
10
171.525
20
-90.775
11
149.475
21
-90.775
0
LINE
8
0
10
147.475
20
-92.775
11
147.475
21
-95.775
0
LINE
8
0
10
133.425
20
-208.025
11
150.475
21
-208.025
0
LINE
8
0
10
152.475
20
-206.025
11
152.475
21
-179.975
0
LINE
8
0
10
145.475
20
-97.775
11
128.425
21
-97.775
0
LINE
8
0
10
126.425
20
-99.775
11
126.425
21
-100.775
0
LINE
8
0
10
86.325
20
-213.025
11
129.425
21
-213.025
0
LINE
8
0
10
131.425
20
-211.025
11
131.425
21
-210.025
0
LINE
8
0
10
86.325
20
-102.775
11
124.425
21
-102.775
0
LINE
8
0
10
84.325
20
-211.025
11
84.325
21
-104.775
0
LINE
8
0
10
188.4845499
20
-214.1577039
11
209.7832142
21
-219.8646638
0
LINE
8
0
10
212.2327039
20
-218.4504501
11
217.9396638
21
-197.1517858
0
LINE
8
0
10
216.5254501
20
-194.7022961
11
206.3470426
21
-191.975
0
LINE
8
0
10
191.6832359
20
-194.492638
11
187.0703362
21
-211.7082142
0
LINE
8
0
10
158.9513678
20
-206.2443116
11
180.2500321
21
-211.9512715
0
LINE
8
0
10
182.6995218
20
-210.5370578
11
188.9241198
21
-187.3065419
0
LINE
8
0
10
188.9241198
20
-187.3065419
11
187.6867886
21
-186.975
0
LINE
8
0
10
168.525
20
-181.8406142
11
165.6936037
21
-181.0819439
0
LINE
8
0
10
163.244114
20
-182.4961576
11
157.5371541
21
-203.7948219
0
ARC
8
0
10
189.7513842
20
-193.975
40
2
50
345.0000021
51
90
0
ARC
8
0
10
189.0021879
20
-212.2258522
40
2
50
165.0000021
51
255.0000021
0
ARC
8
0
10
210.3008522
20
-217.9328121
40
2
50
255.0000021
51
345.0000021
0
ARC
8
0
10
216.0078121
20
-196.6341478
40
2
50
345.0000021
51
75.0000021
0
ARC
8
0
10
213.625
20
-189.975
40
2
50
270
51
0
0
ARC
8
0
10
213.625
20
-104.775
40
2
50
0
51
90
0
ARC
8
0
10
196.575
20
-100.775
40
2
50
180
51
270
0
ARC
8
0
10
192.575
20
-99.775
40
2
50
0
51
90
0
ARC
8
0
10
175.525
20
-95.775
40
2
50
180
51
270
0
ARC
8
0
10
171.525
20
-92.775
40
2
50
0
51
90
0
ARC
8
0
10
149.475
20
-92.775
40
2
50
90
51
180
0
ARC
8
0
10
145.475
20
-95.775
40
2
50
270
51
0
0
ARC
8
0
10
128.425
20
-99.775
40
2
50
90
51
180
0
ARC
8
0
10
124.425
20
-100.775
40
2
50
270
51
0
0
ARC
8
0
10
86.325
20
-104.775
40
2
50
90
51
180
0
ARC
8
0
10
86.325
20
-211.025
40
2
50
180
51
270
0
ARC
8
0
10
129.425
20
-211.025
40
2
50
270
51
0
0
ARC
8
0
10
133.425
20
-210.025
40
2
50
90
51
180
0
ARC
8
0
10
150.475
20
-206.025
40
2
50
270
51
0
0
ARC
8
0
10
165.1759657
20
-183.0137956
40
2
50
75.0000021
51
165.0000021
0
ARC
8
0
10
159.4690058
20
-204.3124599
40
2
50
165.0000021
51
255.0000021
0
ARC
8
0
10
180.7676701
20
-210.0194198
40
2
50
255.0000021
51
345.0000021
0
ENDSEC
0
EOF