0
SECTION
2
HEADER
9
$INSUNITS
70
4
0
ENDSEC
0
SECTION
2
TABLES
0
TABLE
2
LTYPE
0
LTYPE
72
65
70
64
2
CONTINUOUS
3
______
73
0
40
0
0
ENDTAB
0
TABLE
2
LAYER
0
ENDTAB
0
ENDSEC
0
SECTION
2
ENTITIES
0
LINE
8
0
10
238.975
20
-191.975
11
246.2529574
21
-191.975
0
LINE
8
0
10
236.975
20
-189.975
11
236.975
21
-104.775
0
LINE
8
0
10
256.025
20
-102.775
11
238.975
21
-102.775
0
LINE
8
0
10
277.075
20
-97.775
11
260.025
21
-97.775
0
LINE
8
0
10
258.025
20
-99.775
11
258.025
21
-100.775
0
LINE
8
0
10
305.125
20
-95.775
11
305.125
21
-92.775
0
LINE
8
0
10
303.125
20
-90.775
11
281.075
21
-90.775
0
LINE
8
0
10
279.075
20
-92.775
11
279.075
21
-95.775
0
LINE
8
0
10
302.125
20
-208.025
11
319.175
21
-208.025
0
LINE
8
0
10
300.125
20
-206.025
11
300.125
21
-204.5089742
0
LINE
8
0
10
326.175
20
-100.775
11
326.175
21
-99.775
0
LINE
8
0
10
324.175
20
-97.775
11
307.125
21
-97.775
0
LINE
8
0
10
323.175
20
-213.025
11
387.325
21
-213.025
0
LINE
8
0
10
321.175
20
-210.025
11
321.175
21
-211.025
0
LINE
8
0
10
328.175
20
-102.775
11
387.325
21
-102.775
0
LINE
8
0
10
389.325
20
-211.025
11
389.325
21
-104.775
0
LINE
8
0
10
242.8167858
20
-219.8646638
11
300.125
21
-204.5089742
0
LINE
8
0
10
246.2529574
20
-191.975
11
236.0745499
21
-194.7022961
0
LINE
8
0
10
234.6603362
20
-197.1517858
11
240.3672961
21
-218.4504501
0
ARC
8
0
10
236.5921879
20
-196.6341478
40
2
50
104.9999979
51
194.9999979
0
ARC
8
0
10
242.2991478
20
-217.9328121
40
2
50
194.9999979
51
284.9999979
0
ARC
8
0
10
302.125
20
-206.025
40
2
50
180
51
270
0
ARC
8
0
10
319.175
20
-210.025
40
2
50
0
51
90
0
ARC
8
0
10
323.175
20
-211.025
40
2
50
180
51
270
0
ARC
8
0
10
387.325
20
-211.025
40
2
50
270
51
0
0
ARC
8
0
10
387.325
20
-104.775
40
2
50
0
51
90
0
ARC
8
0
10
328.175
20
-100.775
40
2
50
180
51
270
0
ARC
8
0
10
324.175
20
-99.775
40
2
50
0
51
90
0
ARC
8
0
10
307.125
20
-95.775
40
2
50
180
51
270
0
ARC
8
0
10
303.125
20
-92.775
40
2
50
0
51
90
0
ARC
8
0
10
281.075
20
-92.775
40
2
50
90
51
180
0
ARC
8
0
10
277.075
20
-95.775
40
2
50
270
51
0
0
ARC
8
0
10
260.025
20
-99.775
40
2
50
90
51
180
0
ARC
8
0
10
256.025
20
-100.775
40
2
50
270
51
0
0
ARC
8
0
10
238.975
20
-104.775
40
2
50
90
51
180
0
ARC
8
0
10
238.975
20
-189.975
40
2
50
180
51
270
0
ENDSEC
0
EOF