%TF.GenerationSoftware,KiCad,Pcbnew,9.0.3-1.fc42*%
%TF.CreationDate,2025-08-09T15:12:38+02:00*%
%TF.ProjectId,left_traced,6c656674-5f74-4726-9163-65642e6b6963,v1.0.0*%
%TF.SameCoordinates,Original*%
%TF.FileFunction,Paste,Bot*%
%TF.FilePolarity,Positive*%
%FSLAX46Y46*%
G04 Gerber Fmt 4.6, Leading zero omitted, Abs format (unit mm)*
G04 Created by KiCad (PCBNEW 9.0.3-1.fc42) date 2025-08-09 15:12:38*
%MOMM*%
%LPD*%
G01*
G04 APERTURE LIST*
G04 Aperture macros list*
%AMRotRect*
0 Rectangle, with rotation*
0 The origin of the aperture is its center*
0 $1 length*
0 $2 width*
0 $3 Rotation angle, in degrees counterclockwise*
0 Add horizontal line*
21,1,$1,$2,0,0,$3*%
G04 Aperture macros list end*
%ADD10R,2.550000X2.500000*%
%ADD11R,0.900000X1.200000*%
%ADD12RotRect,0.900000X1.200000X345.000000*%
%ADD13R,1.200000X0.900000*%
%ADD14R,2.500000X2.550000*%
%ADD15RotRect,2.550000X2.500000X165.000000*%
G04 APERTURE END LIST*
D10*
%TO.C,S24*%
X104435000Y-139390000D03*
X91508000Y-141930000D03*
%TD*%
D11*
%TO.C,D22*%
X95700000Y-131850000D03*
X99000000Y-131850000D03*
%TD*%
%TO.C,D8*%
X158850000Y-98800000D03*
X162150000Y-98800000D03*
%TD*%
D10*
%TO.C,S18*%
X125485000Y-160440000D03*
X112558000Y-162980000D03*
%TD*%
D11*
%TO.C,D18*%
X116750000Y-110800000D03*
X120050000Y-110800000D03*
%TD*%
%TO.C,D10*%
X137800000Y-168950000D03*
X141100000Y-168950000D03*
%TD*%
D12*
%TO.C,D25*%
X172672135Y-191259929D03*
X175859691Y-192114029D03*
%TD*%
D11*
%TO.C,D12*%
X137800000Y-126850000D03*
X141100000Y-126850000D03*
%TD*%
%TO.C,D14*%
X116750000Y-195000000D03*
X120050000Y-195000000D03*
%TD*%
D10*
%TO.C,S1*%
X209685000Y-181490000D03*
X196758000Y-184030000D03*
%TD*%
D11*
%TO.C,D6*%
X158850000Y-140900000D03*
X162150000Y-140900000D03*
%TD*%
%TO.C,D19*%
X95700000Y-195000000D03*
X99000000Y-195000000D03*
%TD*%
%TO.C,D16*%
X116750000Y-152900000D03*
X120050000Y-152900000D03*
%TD*%
%TO.C,D20*%
X95700000Y-173950000D03*
X99000000Y-173950000D03*
%TD*%
D12*
%TO.C,D24*%
X202205317Y-199173321D03*
X205392873Y-200027421D03*
%TD*%
D10*
%TO.C,S9*%
X167585000Y-127390000D03*
X154658000Y-129930000D03*
%TD*%
%TO.C,S17*%
X125485000Y-181490000D03*
X112558000Y-184030000D03*
%TD*%
D11*
%TO.C,D29*%
X205450000Y-185950000D03*
X208750000Y-185950000D03*
%TD*%
D10*
%TO.C,S4*%
X188635000Y-155440000D03*
X175708000Y-157980000D03*
%TD*%
%TO.C,S3*%
X188635000Y-176490000D03*
X175708000Y-179030000D03*
%TD*%
D11*
%TO.C,D21*%
X95700000Y-152900000D03*
X99000000Y-152900000D03*
%TD*%
%TO.C,D28*%
X200950000Y-149900000D03*
X204250000Y-149900000D03*
%TD*%
%TO.C,D3*%
X179900000Y-126850000D03*
X183200000Y-126850000D03*
%TD*%
D10*
%TO.C,S15*%
X146535000Y-113340000D03*
X133608000Y-115880000D03*
%TD*%
%TO.C,S11*%
X146535000Y-197540000D03*
X133608000Y-200080000D03*
%TD*%
D11*
%TO.C,D11*%
X137800000Y-147900000D03*
X141100000Y-147900000D03*
%TD*%
D10*
%TO.C,S22*%
X104435000Y-181490000D03*
X91508000Y-184030000D03*
%TD*%
D13*
%TO.C,D26*%
X207600000Y-135200000D03*
X207600000Y-138500000D03*
%TD*%
D11*
%TO.C,D15*%
X116750000Y-173950000D03*
X120050000Y-173950000D03*
%TD*%
D10*
%TO.C,S12*%
X146535000Y-176490000D03*
X133608000Y-179030000D03*
%TD*%
D11*
%TO.C,D13*%
X137800000Y-105800000D03*
X141100000Y-105800000D03*
%TD*%
D14*
%TO.C,S29*%
X200060000Y-122885000D03*
X197520000Y-109958000D03*
%TD*%
D10*
%TO.C,S21*%
X104435000Y-202540000D03*
X91508000Y-205080000D03*
%TD*%
%TO.C,S14*%
X146535000Y-134390000D03*
X133608000Y-136930000D03*
%TD*%
%TO.C,S16*%
X125485000Y-202540000D03*
X112558000Y-205080000D03*
%TD*%
%TO.C,S25*%
X104435000Y-118340000D03*
X91508000Y-120880000D03*
%TD*%
%TO.C,S8*%
X167585000Y-148440000D03*
X154658000Y-150980000D03*
%TD*%
D11*
%TO.C,D9*%
X137800000Y-190000000D03*
X141100000Y-190000000D03*
%TD*%
%TO.C,D17*%
X116750000Y-131850000D03*
X120050000Y-131850000D03*
%TD*%
D10*
%TO.C,S2*%
X209685000Y-160440000D03*
X196758000Y-162980000D03*
%TD*%
D11*
%TO.C,D2*%
X179900000Y-147900000D03*
X183200000Y-147900000D03*
%TD*%
D10*
%TO.C,S5*%
X188635000Y-134390000D03*
X175708000Y-136930000D03*
%TD*%
D15*
%TO.C,S27*%
X179158002Y-200803793D03*
X166014079Y-199911490D03*
%TD*%
D10*
%TO.C,S23*%
X104435000Y-160440000D03*
X91508000Y-162980000D03*
%TD*%
D11*
%TO.C,D4*%
X179900000Y-105800000D03*
X183200000Y-105800000D03*
%TD*%
D10*
%TO.C,S19*%
X125485000Y-139390000D03*
X112558000Y-141930000D03*
%TD*%
D13*
%TO.C,D27*%
X207600000Y-114150000D03*
X207600000Y-117450000D03*
%TD*%
D10*
%TO.C,S6*%
X188635000Y-113340000D03*
X175708000Y-115880000D03*
%TD*%
D11*
%TO.C,D7*%
X158850000Y-119850000D03*
X162150000Y-119850000D03*
%TD*%
D14*
%TO.C,S28*%
X200060000Y-143935000D03*
X197520000Y-131008000D03*
%TD*%
D10*
%TO.C,S10*%
X167585000Y-106340000D03*
X154658000Y-108880000D03*
%TD*%
%TO.C,S20*%
X125485000Y-118340000D03*
X112558000Y-120880000D03*
%TD*%
D11*
%TO.C,D5*%
X158850000Y-161950000D03*
X162150000Y-161950000D03*
%TD*%
D10*
%TO.C,S13*%
X146535000Y-155440000D03*
X133608000Y-157980000D03*
%TD*%
%TO.C,S7*%
X167585000Y-169490000D03*
X154658000Y-172030000D03*
%TD*%
D11*
%TO.C,D23*%
X95700000Y-110800000D03*
X99000000Y-110800000D03*
%TD*%
%TO.C,D1*%
X179900000Y-168950000D03*
X183200000Y-168950000D03*
%TD*%
D15*
%TO.C,S26*%
X208691184Y-208717185D03*
X195547261Y-207824882D03*
%TD*%
M02*
