%TF.GenerationSoftware,KiCad,Pcbnew,9.0.3-1.fc42*%
%TF.CreationDate,2025-08-09T15:12:39+02:00*%
%TF.ProjectId,left_traced,6c656674-5f74-4726-9163-65642e6b6963,v1.0.0*%
%TF.SameCoordinates,Original*%
%TF.FileFunction,Legend,Bot*%
%TF.FilePolarity,Positive*%
%FSLAX46Y46*%
G04 Gerber Fmt 4.6, Leading zero omitted, Abs format (unit mm)*
G04 Created by KiCad (PCBNEW 9.0.3-1.fc42) date 2025-08-09 15:12:39*
%MOMM*%
%LPD*%
G01*
G04 APERTURE LIST*
%ADD10C,0.100000*%
%ADD11C,0.120000*%
G04 APERTURE END LIST*
D10*
%TO.C,D22*%
X96600000Y-131850000D02*
X97000000Y-131850000D01*
X97000000Y-131850000D02*
X97000000Y-131300000D01*
X97000000Y-131850000D02*
X97000000Y-132400000D01*
X97000000Y-131850000D02*
X97600000Y-131450000D01*
X97600000Y-131450000D02*
X97600000Y-132250000D01*
X97600000Y-131850000D02*
X98100000Y-131850000D01*
X97600000Y-132250000D02*
X97000000Y-131850000D01*
%TO.C,D8*%
X159750000Y-98800000D02*
X160150000Y-98800000D01*
X160150000Y-98800000D02*
X160150000Y-98250000D01*
X160150000Y-98800000D02*
X160150000Y-99350000D01*
X160150000Y-98800000D02*
X160750000Y-98400000D01*
X160750000Y-98400000D02*
X160750000Y-99200000D01*
X160750000Y-98800000D02*
X161250000Y-98800000D01*
X160750000Y-99200000D02*
X160150000Y-98800000D01*
%TO.C,D18*%
X117650000Y-110800000D02*
X118050000Y-110800000D01*
X118050000Y-110800000D02*
X118050000Y-110250000D01*
X118050000Y-110800000D02*
X118050000Y-111350000D01*
X118050000Y-110800000D02*
X118650000Y-110400000D01*
X118650000Y-110400000D02*
X118650000Y-111200000D01*
X118650000Y-110800000D02*
X119150000Y-110800000D01*
X118650000Y-111200000D02*
X118050000Y-110800000D01*
%TO.C,D10*%
X138700000Y-168950000D02*
X139100000Y-168950000D01*
X139100000Y-168950000D02*
X139100000Y-168400000D01*
X139100000Y-168950000D02*
X139100000Y-169500000D01*
X139100000Y-168950000D02*
X139700000Y-168550000D01*
X139700000Y-168550000D02*
X139700000Y-169350000D01*
X139700000Y-168950000D02*
X140200000Y-168950000D01*
X139700000Y-169350000D02*
X139100000Y-168950000D01*
%TO.C,D25*%
X173541469Y-191492865D02*
X173927839Y-191596392D01*
X173927839Y-191596392D02*
X173785488Y-192127653D01*
X173927839Y-191596392D02*
X174070189Y-191065133D01*
X173927839Y-191596392D02*
X174610922Y-191365313D01*
X174403867Y-192138054D02*
X173927839Y-191596392D01*
X174507394Y-191751684D02*
X174990357Y-191881093D01*
X174610922Y-191365313D02*
X174403867Y-192138054D01*
%TO.C,D12*%
X138700000Y-126850000D02*
X139100000Y-126850000D01*
X139100000Y-126850000D02*
X139100000Y-126300000D01*
X139100000Y-126850000D02*
X139100000Y-127400000D01*
X139100000Y-126850000D02*
X139700000Y-126450000D01*
X139700000Y-126450000D02*
X139700000Y-127250000D01*
X139700000Y-126850000D02*
X140200000Y-126850000D01*
X139700000Y-127250000D02*
X139100000Y-126850000D01*
%TO.C,D14*%
X117650000Y-195000000D02*
X118050000Y-195000000D01*
X118050000Y-195000000D02*
X118050000Y-194450000D01*
X118050000Y-195000000D02*
X118050000Y-195550000D01*
X118050000Y-195000000D02*
X118650000Y-194600000D01*
X118650000Y-194600000D02*
X118650000Y-195400000D01*
X118650000Y-195000000D02*
X119150000Y-195000000D01*
X118650000Y-195400000D02*
X118050000Y-195000000D01*
%TO.C,D6*%
X159750000Y-140900000D02*
X160150000Y-140900000D01*
X160150000Y-140900000D02*
X160150000Y-140350000D01*
X160150000Y-140900000D02*
X160150000Y-141450000D01*
X160150000Y-140900000D02*
X160750000Y-140500000D01*
X160750000Y-140500000D02*
X160750000Y-141300000D01*
X160750000Y-140900000D02*
X161250000Y-140900000D01*
X160750000Y-141300000D02*
X160150000Y-140900000D01*
%TO.C,D19*%
X96600000Y-195000000D02*
X97000000Y-195000000D01*
X97000000Y-195000000D02*
X97000000Y-194450000D01*
X97000000Y-195000000D02*
X97000000Y-195550000D01*
X97000000Y-195000000D02*
X97600000Y-194600000D01*
X97600000Y-194600000D02*
X97600000Y-195400000D01*
X97600000Y-195000000D02*
X98100000Y-195000000D01*
X97600000Y-195400000D02*
X97000000Y-195000000D01*
%TO.C,D16*%
X117650000Y-152900000D02*
X118050000Y-152900000D01*
X118050000Y-152900000D02*
X118050000Y-152350000D01*
X118050000Y-152900000D02*
X118050000Y-153450000D01*
X118050000Y-152900000D02*
X118650000Y-152500000D01*
X118650000Y-152500000D02*
X118650000Y-153300000D01*
X118650000Y-152900000D02*
X119150000Y-152900000D01*
X118650000Y-153300000D02*
X118050000Y-152900000D01*
%TO.C,D20*%
X96600000Y-173950000D02*
X97000000Y-173950000D01*
X97000000Y-173950000D02*
X97000000Y-173400000D01*
X97000000Y-173950000D02*
X97000000Y-174500000D01*
X97000000Y-173950000D02*
X97600000Y-173550000D01*
X97600000Y-173550000D02*
X97600000Y-174350000D01*
X97600000Y-173950000D02*
X98100000Y-173950000D01*
X97600000Y-174350000D02*
X97000000Y-173950000D01*
%TO.C,D24*%
X203074651Y-199406257D02*
X203461021Y-199509784D01*
X203461021Y-199509784D02*
X203318670Y-200041045D01*
X203461021Y-199509784D02*
X203603371Y-198978525D01*
X203461021Y-199509784D02*
X204144104Y-199278705D01*
X203937049Y-200051446D02*
X203461021Y-199509784D01*
X204040576Y-199665076D02*
X204523539Y-199794485D01*
X204144104Y-199278705D02*
X203937049Y-200051446D01*
%TO.C,D29*%
X206350000Y-185950000D02*
X206750000Y-185950000D01*
X206750000Y-185950000D02*
X206750000Y-185400000D01*
X206750000Y-185950000D02*
X206750000Y-186500000D01*
X206750000Y-185950000D02*
X207350000Y-185550000D01*
X207350000Y-185550000D02*
X207350000Y-186350000D01*
X207350000Y-185950000D02*
X207850000Y-185950000D01*
X207350000Y-186350000D02*
X206750000Y-185950000D01*
%TO.C,D21*%
X96600000Y-152900000D02*
X97000000Y-152900000D01*
X97000000Y-152900000D02*
X97000000Y-152350000D01*
X97000000Y-152900000D02*
X97000000Y-153450000D01*
X97000000Y-152900000D02*
X97600000Y-152500000D01*
X97600000Y-152500000D02*
X97600000Y-153300000D01*
X97600000Y-152900000D02*
X98100000Y-152900000D01*
X97600000Y-153300000D02*
X97000000Y-152900000D01*
%TO.C,D28*%
X201850000Y-149900000D02*
X202250000Y-149900000D01*
X202250000Y-149900000D02*
X202250000Y-149350000D01*
X202250000Y-149900000D02*
X202250000Y-150450000D01*
X202250000Y-149900000D02*
X202850000Y-149500000D01*
X202850000Y-149500000D02*
X202850000Y-150300000D01*
X202850000Y-149900000D02*
X203350000Y-149900000D01*
X202850000Y-150300000D02*
X202250000Y-149900000D01*
%TO.C,D3*%
X180800000Y-126850000D02*
X181200000Y-126850000D01*
X181200000Y-126850000D02*
X181200000Y-126300000D01*
X181200000Y-126850000D02*
X181200000Y-127400000D01*
X181200000Y-126850000D02*
X181800000Y-126450000D01*
X181800000Y-126450000D02*
X181800000Y-127250000D01*
X181800000Y-126850000D02*
X182300000Y-126850000D01*
X181800000Y-127250000D02*
X181200000Y-126850000D01*
%TO.C,D11*%
X138700000Y-147900000D02*
X139100000Y-147900000D01*
X139100000Y-147900000D02*
X139100000Y-147350000D01*
X139100000Y-147900000D02*
X139100000Y-148450000D01*
X139100000Y-147900000D02*
X139700000Y-147500000D01*
X139700000Y-147500000D02*
X139700000Y-148300000D01*
X139700000Y-147900000D02*
X140200000Y-147900000D01*
X139700000Y-148300000D02*
X139100000Y-147900000D01*
%TO.C,D26*%
X207200000Y-137100000D02*
X207600000Y-136500000D01*
X207600000Y-136100000D02*
X207600000Y-136500000D01*
X207600000Y-136500000D02*
X207050000Y-136500000D01*
X207600000Y-136500000D02*
X208000000Y-137100000D01*
X207600000Y-136500000D02*
X208150000Y-136500000D01*
X207600000Y-137100000D02*
X207600000Y-137600000D01*
X208000000Y-137100000D02*
X207200000Y-137100000D01*
%TO.C,D15*%
X117650000Y-173950000D02*
X118050000Y-173950000D01*
X118050000Y-173950000D02*
X118050000Y-173400000D01*
X118050000Y-173950000D02*
X118050000Y-174500000D01*
X118050000Y-173950000D02*
X118650000Y-173550000D01*
X118650000Y-173550000D02*
X118650000Y-174350000D01*
X118650000Y-173950000D02*
X119150000Y-173950000D01*
X118650000Y-174350000D02*
X118050000Y-173950000D01*
%TO.C,D13*%
X138700000Y-105800000D02*
X139100000Y-105800000D01*
X139100000Y-105800000D02*
X139100000Y-105250000D01*
X139100000Y-105800000D02*
X139100000Y-106350000D01*
X139100000Y-105800000D02*
X139700000Y-105400000D01*
X139700000Y-105400000D02*
X139700000Y-106200000D01*
X139700000Y-105800000D02*
X140200000Y-105800000D01*
X139700000Y-106200000D02*
X139100000Y-105800000D01*
%TO.C,D9*%
X138700000Y-190000000D02*
X139100000Y-190000000D01*
X139100000Y-190000000D02*
X139100000Y-189450000D01*
X139100000Y-190000000D02*
X139100000Y-190550000D01*
X139100000Y-190000000D02*
X139700000Y-189600000D01*
X139700000Y-189600000D02*
X139700000Y-190400000D01*
X139700000Y-190000000D02*
X140200000Y-190000000D01*
X139700000Y-190400000D02*
X139100000Y-190000000D01*
%TO.C,D17*%
X117650000Y-131850000D02*
X118050000Y-131850000D01*
X118050000Y-131850000D02*
X118050000Y-131300000D01*
X118050000Y-131850000D02*
X118050000Y-132400000D01*
X118050000Y-131850000D02*
X118650000Y-131450000D01*
X118650000Y-131450000D02*
X118650000Y-132250000D01*
X118650000Y-131850000D02*
X119150000Y-131850000D01*
X118650000Y-132250000D02*
X118050000Y-131850000D01*
%TO.C,D2*%
X180800000Y-147900000D02*
X181200000Y-147900000D01*
X181200000Y-147900000D02*
X181200000Y-147350000D01*
X181200000Y-147900000D02*
X181200000Y-148450000D01*
X181200000Y-147900000D02*
X181800000Y-147500000D01*
X181800000Y-147500000D02*
X181800000Y-148300000D01*
X181800000Y-147900000D02*
X182300000Y-147900000D01*
X181800000Y-148300000D02*
X181200000Y-147900000D01*
%TO.C,D4*%
X180800000Y-105800000D02*
X181200000Y-105800000D01*
X181200000Y-105800000D02*
X181200000Y-105250000D01*
X181200000Y-105800000D02*
X181200000Y-106350000D01*
X181200000Y-105800000D02*
X181800000Y-105400000D01*
X181800000Y-105400000D02*
X181800000Y-106200000D01*
X181800000Y-105800000D02*
X182300000Y-105800000D01*
X181800000Y-106200000D02*
X181200000Y-105800000D01*
D11*
%TO.C,_1*%
X192100000Y-103300000D02*
X192100000Y-103600000D01*
X192100000Y-103300000D02*
X213100000Y-103300000D01*
X192100000Y-105700000D02*
X192100000Y-106100000D01*
X192100000Y-105967000D02*
X195107000Y-105967000D01*
X192100000Y-108300000D02*
X192100000Y-108700000D01*
X192100000Y-110800000D02*
X192100000Y-111200000D01*
X192100000Y-113400000D02*
X192100000Y-113800000D01*
X192100000Y-115900000D02*
X192100000Y-116300000D01*
X192100000Y-118400000D02*
X192100000Y-118800000D01*
X192100000Y-121000000D02*
X192100000Y-121400000D01*
X192100000Y-123500000D02*
X192100000Y-123900000D01*
X192100000Y-126100000D02*
X192100000Y-126500000D01*
X192100000Y-128600000D02*
X192100000Y-129000000D01*
X192100000Y-131100000D02*
X192100000Y-131500000D01*
X192100000Y-133700000D02*
X192100000Y-134100000D01*
X192100000Y-136200000D02*
X192100000Y-136600000D01*
X192100000Y-138800000D02*
X192100000Y-139200000D01*
X192100000Y-141300000D02*
X192100000Y-141700000D01*
X192100000Y-143900000D02*
X192100000Y-144300000D01*
X192100000Y-146400000D02*
X192100000Y-146800000D01*
X192100000Y-148900000D02*
X192100000Y-149300000D01*
X192100000Y-151500000D02*
X192100000Y-151900000D01*
X195107000Y-105967000D02*
X195107000Y-103300000D01*
X198900000Y-154300000D02*
X192100000Y-154300000D01*
X201100000Y-154300000D02*
X201500000Y-154300000D01*
X203700000Y-154300000D02*
X204100000Y-154300000D01*
X213100000Y-103300000D02*
X213100000Y-103600000D01*
X213100000Y-105700000D02*
X213100000Y-106100000D01*
X213100000Y-108300000D02*
X213100000Y-108700000D01*
X213100000Y-110800000D02*
X213100000Y-111200000D01*
X213100000Y-113400000D02*
X213100000Y-113800000D01*
X213100000Y-115900000D02*
X213100000Y-116300000D01*
X213100000Y-118400000D02*
X213100000Y-118800000D01*
X213100000Y-121000000D02*
X213100000Y-121400000D01*
X213100000Y-123500000D02*
X213100000Y-123900000D01*
X213100000Y-126100000D02*
X213100000Y-126500000D01*
X213100000Y-128600000D02*
X213100000Y-129000000D01*
X213100000Y-131100000D02*
X213100000Y-131500000D01*
X213100000Y-133700000D02*
X213100000Y-134100000D01*
X213100000Y-136200000D02*
X213100000Y-136600000D01*
X213100000Y-138800000D02*
X213100000Y-139200000D01*
X213100000Y-141300000D02*
X213100000Y-141700000D01*
X213100000Y-143900000D02*
X213100000Y-144300000D01*
X213100000Y-146400000D02*
X213100000Y-146800000D01*
X213100000Y-148900000D02*
X213100000Y-149300000D01*
X213100000Y-151500000D02*
X213100000Y-151900000D01*
X213100000Y-154300000D02*
X206300000Y-154300000D01*
D10*
%TO.C,D27*%
X207200000Y-116050000D02*
X207600000Y-115450000D01*
X207600000Y-115050000D02*
X207600000Y-115450000D01*
X207600000Y-115450000D02*
X207050000Y-115450000D01*
X207600000Y-115450000D02*
X208000000Y-116050000D01*
X207600000Y-115450000D02*
X208150000Y-115450000D01*
X207600000Y-116050000D02*
X207600000Y-116550000D01*
X208000000Y-116050000D02*
X207200000Y-116050000D01*
%TO.C,D7*%
X159750000Y-119850000D02*
X160150000Y-119850000D01*
X160150000Y-119850000D02*
X160150000Y-119300000D01*
X160150000Y-119850000D02*
X160150000Y-120400000D01*
X160150000Y-119850000D02*
X160750000Y-119450000D01*
X160750000Y-119450000D02*
X160750000Y-120250000D01*
X160750000Y-119850000D02*
X161250000Y-119850000D01*
X160750000Y-120250000D02*
X160150000Y-119850000D01*
%TO.C,D5*%
X159750000Y-161950000D02*
X160150000Y-161950000D01*
X160150000Y-161950000D02*
X160150000Y-161400000D01*
X160150000Y-161950000D02*
X160150000Y-162500000D01*
X160150000Y-161950000D02*
X160750000Y-161550000D01*
X160750000Y-161550000D02*
X160750000Y-162350000D01*
X160750000Y-161950000D02*
X161250000Y-161950000D01*
X160750000Y-162350000D02*
X160150000Y-161950000D01*
%TO.C,D23*%
X96600000Y-110800000D02*
X97000000Y-110800000D01*
X97000000Y-110800000D02*
X97000000Y-110250000D01*
X97000000Y-110800000D02*
X97000000Y-111350000D01*
X97000000Y-110800000D02*
X97600000Y-110400000D01*
X97600000Y-110400000D02*
X97600000Y-111200000D01*
X97600000Y-110800000D02*
X98100000Y-110800000D01*
X97600000Y-111200000D02*
X97000000Y-110800000D01*
%TO.C,D1*%
X180800000Y-168950000D02*
X181200000Y-168950000D01*
X181200000Y-168950000D02*
X181200000Y-168400000D01*
X181200000Y-168950000D02*
X181200000Y-169500000D01*
X181200000Y-168950000D02*
X181800000Y-168550000D01*
X181800000Y-168550000D02*
X181800000Y-169350000D01*
X181800000Y-168950000D02*
X182300000Y-168950000D01*
X181800000Y-169350000D02*
X181200000Y-168950000D01*
%TD*%
M02*
