%TF.GenerationSoftware,KiCad,Pcbnew,9.0.3-1.fc42*%
%TF.CreationDate,2025-08-09T15:12:38+02:00*%
%TF.ProjectId,left_traced,6c656674-5f74-4726-9163-65642e6b6963,v1.0.0*%
%TF.SameCoordinates,Original*%
%TF.FileFunction,Paste,Top*%
%TF.FilePolarity,Positive*%
%FSLAX46Y46*%
G04 Gerber Fmt 4.6, Leading zero omitted, Abs format (unit mm)*
G04 Created by KiCad (PCBNEW 9.0.3-1.fc42) date 2025-08-09 15:12:38*
%MOMM*%
%LPD*%
G01*
G04 APERTURE LIST*
G04 Aperture macros list*
%AMRotRect*
0 Rectangle, with rotation*
0 The origin of the aperture is its center*
0 $1 length*
0 $2 width*
0 $3 Rotation angle, in degrees counterclockwise*
0 Add horizontal line*
21,1,$1,$2,0,0,$3*%
G04 Aperture macros list end*
%ADD10R,0.900000X1.200000*%
%ADD11RotRect,0.900000X1.200000X345.000000*%
%ADD12R,1.200000X0.900000*%
G04 APERTURE END LIST*
D10*
%TO.C,D22*%
X95700000Y-131850000D03*
X99000000Y-131850000D03*
%TD*%
%TO.C,D8*%
X158850000Y-98800000D03*
X162150000Y-98800000D03*
%TD*%
%TO.C,D18*%
X116750000Y-110800000D03*
X120050000Y-110800000D03*
%TD*%
%TO.C,D10*%
X137800000Y-168950000D03*
X141100000Y-168950000D03*
%TD*%
D11*
%TO.C,D25*%
X172672135Y-191259929D03*
X175859691Y-192114029D03*
%TD*%
D10*
%TO.C,D12*%
X137800000Y-126850000D03*
X141100000Y-126850000D03*
%TD*%
%TO.C,D14*%
X116750000Y-195000000D03*
X120050000Y-195000000D03*
%TD*%
%TO.C,D6*%
X158850000Y-140900000D03*
X162150000Y-140900000D03*
%TD*%
%TO.C,D19*%
X95700000Y-195000000D03*
X99000000Y-195000000D03*
%TD*%
%TO.C,D16*%
X116750000Y-152900000D03*
X120050000Y-152900000D03*
%TD*%
%TO.C,D20*%
X95700000Y-173950000D03*
X99000000Y-173950000D03*
%TD*%
D11*
%TO.C,D24*%
X202205317Y-199173321D03*
X205392873Y-200027421D03*
%TD*%
D10*
%TO.C,D29*%
X205450000Y-185950000D03*
X208750000Y-185950000D03*
%TD*%
%TO.C,D21*%
X95700000Y-152900000D03*
X99000000Y-152900000D03*
%TD*%
%TO.C,D28*%
X200950000Y-149900000D03*
X204250000Y-149900000D03*
%TD*%
%TO.C,D3*%
X179900000Y-126850000D03*
X183200000Y-126850000D03*
%TD*%
%TO.C,D11*%
X137800000Y-147900000D03*
X141100000Y-147900000D03*
%TD*%
D12*
%TO.C,D26*%
X207600000Y-135200000D03*
X207600000Y-138500000D03*
%TD*%
D10*
%TO.C,D15*%
X116750000Y-173950000D03*
X120050000Y-173950000D03*
%TD*%
%TO.C,D13*%
X137800000Y-105800000D03*
X141100000Y-105800000D03*
%TD*%
%TO.C,D9*%
X137800000Y-190000000D03*
X141100000Y-190000000D03*
%TD*%
%TO.C,D17*%
X116750000Y-131850000D03*
X120050000Y-131850000D03*
%TD*%
%TO.C,D2*%
X179900000Y-147900000D03*
X183200000Y-147900000D03*
%TD*%
%TO.C,D4*%
X179900000Y-105800000D03*
X183200000Y-105800000D03*
%TD*%
D12*
%TO.C,D27*%
X207600000Y-114150000D03*
X207600000Y-117450000D03*
%TD*%
D10*
%TO.C,D7*%
X158850000Y-119850000D03*
X162150000Y-119850000D03*
%TD*%
%TO.C,D5*%
X158850000Y-161950000D03*
X162150000Y-161950000D03*
%TD*%
%TO.C,D23*%
X95700000Y-110800000D03*
X99000000Y-110800000D03*
%TD*%
%TO.C,D1*%
X179900000Y-168950000D03*
X183200000Y-168950000D03*
%TD*%
M02*
