M48
; DRILL file {KiCad 9.0.3-1.fc42} date 2025-08-09T15:12:36+0200
; FORMAT={-:-/ absolute / metric / decimal}
; #@! TF.CreationDate,2025-08-09T15:12:36+02:00
; #@! TF.GenerationSoftware,Kicad,Pcbnew,9.0.3-1.fc42
; #@! TF.FileFunction,NonPlated,1,2,NPTH
FMAT,2
METRIC
; #@! TA.AperFunction,NonPlated,NPTH,ComponentDrill
T1C1.500
; #@! TA.AperFunction,NonPlated,NPTH,ComponentDrill
T2C1.702
; #@! TA.AperFunction,NonPlated,NPTH,ComponentDrill
T3C3.000
; #@! TA.AperFunction,NonPlated,NPTH,ComponentDrill
T4C3.988
; #@! TA.AperFunction,NonPlated,NPTH,ComponentDrill
T5C4.000
%
G90
G05
T1
X205.0Y-167.6
X205.0Y-169.9
X212.0Y-167.6
X212.0Y-169.9
T2
X92.27Y-115.8
X92.27Y-136.85
X92.27Y-157.9
X92.27Y-178.95
X92.27Y-200.0
X102.43Y-115.8
X102.43Y-136.85
X102.43Y-157.9
X102.43Y-178.95
X102.43Y-200.0
X113.32Y-115.8
X113.32Y-136.85
X113.32Y-157.9
X113.32Y-178.95
X113.32Y-200.0
X123.48Y-115.8
X123.48Y-136.85
X123.48Y-157.9
X123.48Y-178.95
X123.48Y-200.0
X134.37Y-110.8
X134.37Y-131.85
X134.37Y-152.9
X134.37Y-173.95
X134.37Y-195.0
X144.53Y-110.8
X144.53Y-131.85
X144.53Y-152.9
X144.53Y-173.95
X144.53Y-195.0
X155.42Y-103.8
X155.42Y-124.85
X155.42Y-145.9
X155.42Y-166.95
X165.58Y-103.8
X165.58Y-124.85
X165.58Y-145.9
X165.58Y-166.95
X168.065Y-195.202
X176.47Y-110.8
X176.47Y-131.85
X176.47Y-152.9
X176.47Y-173.95
X177.879Y-197.831
X186.63Y-110.8
X186.63Y-131.85
X186.63Y-152.9
X186.63Y-173.95
X197.52Y-157.9
X197.52Y-178.95
X197.598Y-203.115
X202.6Y-110.72
X202.6Y-120.88
X202.6Y-131.77
X202.6Y-141.93
X207.412Y-205.745
X207.68Y-157.9
X207.68Y-178.95
T3
X94.81Y-120.88
X94.81Y-141.93
X94.81Y-162.98
X94.81Y-184.03
X94.81Y-205.08
X101.16Y-118.34
X101.16Y-139.39
X101.16Y-160.44
X101.16Y-181.49
X101.16Y-202.54
X115.86Y-120.88
X115.86Y-141.93
X115.86Y-162.98
X115.86Y-184.03
X115.86Y-205.08
X122.21Y-118.34
X122.21Y-139.39
X122.21Y-160.44
X122.21Y-181.49
X122.21Y-202.54
X136.91Y-115.88
X136.91Y-136.93
X136.91Y-157.98
X136.91Y-179.03
X136.91Y-200.08
X143.26Y-113.34
X143.26Y-134.39
X143.26Y-155.44
X143.26Y-176.49
X143.26Y-197.54
X157.96Y-108.88
X157.96Y-129.93
X157.96Y-150.98
X157.96Y-172.03
X164.31Y-106.34
X164.31Y-127.39
X164.31Y-148.44
X164.31Y-169.49
X169.204Y-200.766
X175.995Y-199.956
X179.01Y-115.88
X179.01Y-136.93
X179.01Y-157.98
X179.01Y-179.03
X185.36Y-113.34
X185.36Y-134.39
X185.36Y-155.44
X185.36Y-176.49
X197.52Y-113.26
X197.52Y-134.31
X198.737Y-208.68
X200.06Y-119.61
X200.06Y-140.66
X200.06Y-162.98
X200.06Y-184.03
X205.528Y-207.87
X206.41Y-160.44
X206.41Y-181.49
T4
X97.35Y-115.8
X97.35Y-136.85
X97.35Y-157.9
X97.35Y-178.95
X97.35Y-200.0
X118.4Y-115.8
X118.4Y-136.85
X118.4Y-157.9
X118.4Y-178.95
X118.4Y-200.0
X139.45Y-110.8
X139.45Y-131.85
X139.45Y-152.9
X139.45Y-173.95
X139.45Y-195.0
X160.5Y-103.8
X160.5Y-124.85
X160.5Y-145.9
X160.5Y-166.95
X172.972Y-196.517
X181.55Y-110.8
X181.55Y-131.85
X181.55Y-152.9
X181.55Y-173.95
X202.505Y-204.43
X202.6Y-115.8
X202.6Y-136.85
X202.6Y-157.9
X202.6Y-178.95
T5
X107.875Y-126.325
X107.875Y-189.475
X150.0Y-163.5
X171.025Y-121.325
X192.075Y-189.475
M30
