%TF.GenerationSoftware,KiCad,Pcbnew,9.0.3-1.fc42*%
%TF.CreationDate,2025-08-09T15:12:39+02:00*%
%TF.ProjectId,left_traced,6c656674-5f74-4726-9163-65642e6b6963,v1.0.0*%
%TF.SameCoordinates,Original*%
%TF.FileFunction,Legend,Top*%
%TF.FilePolarity,Positive*%
%FSLAX46Y46*%
G04 Gerber Fmt 4.6, Leading zero omitted, Abs format (unit mm)*
G04 Created by KiCad (PCBNEW 9.0.3-1.fc42) date 2025-08-09 15:12:39*
%MOMM*%
%LPD*%
G01*
G04 APERTURE LIST*
%ADD10C,0.300000*%
%ADD11C,0.100000*%
%ADD12C,4.000000*%
G04 APERTURE END LIST*
D10*
X152848214Y-93885912D02*
X153035714Y-92385912D01*
X153035714Y-92385912D02*
X153705357Y-93885912D01*
X153705357Y-93885912D02*
X153892857Y-92385912D01*
X154464286Y-92385912D02*
X154633929Y-93885912D01*
X154633929Y-93885912D02*
X155053571Y-92814484D01*
X155053571Y-92814484D02*
X155205357Y-93885912D01*
X155205357Y-93885912D02*
X155750000Y-92385912D01*
X156071429Y-93814484D02*
X156276786Y-93885912D01*
X156276786Y-93885912D02*
X156633929Y-93885912D01*
X156633929Y-93885912D02*
X156785715Y-93814484D01*
X156785715Y-93814484D02*
X156866072Y-93743055D01*
X156866072Y-93743055D02*
X156955357Y-93600198D01*
X156955357Y-93600198D02*
X156973215Y-93457341D01*
X156973215Y-93457341D02*
X156919643Y-93314484D01*
X156919643Y-93314484D02*
X156857143Y-93243055D01*
X156857143Y-93243055D02*
X156723215Y-93171626D01*
X156723215Y-93171626D02*
X156446429Y-93100198D01*
X156446429Y-93100198D02*
X156312500Y-93028769D01*
X156312500Y-93028769D02*
X156250000Y-92957341D01*
X156250000Y-92957341D02*
X156196429Y-92814484D01*
X156196429Y-92814484D02*
X156214286Y-92671626D01*
X156214286Y-92671626D02*
X156303572Y-92528769D01*
X156303572Y-92528769D02*
X156383929Y-92457341D01*
X156383929Y-92457341D02*
X156535715Y-92385912D01*
X156535715Y-92385912D02*
X156892857Y-92385912D01*
X156892857Y-92385912D02*
X157098215Y-92457341D01*
X158687500Y-92885912D02*
X158848214Y-93885912D01*
X158848214Y-93885912D02*
X159223214Y-93171626D01*
X159223214Y-93171626D02*
X159419643Y-93885912D01*
X159419643Y-93885912D02*
X159830357Y-92885912D01*
X160919643Y-93885912D02*
X161017857Y-93100198D01*
X161017857Y-93100198D02*
X160964286Y-92957341D01*
X160964286Y-92957341D02*
X160830357Y-92885912D01*
X160830357Y-92885912D02*
X160544643Y-92885912D01*
X160544643Y-92885912D02*
X160392857Y-92957341D01*
X160928572Y-93814484D02*
X160776786Y-93885912D01*
X160776786Y-93885912D02*
X160419643Y-93885912D01*
X160419643Y-93885912D02*
X160285714Y-93814484D01*
X160285714Y-93814484D02*
X160232143Y-93671626D01*
X160232143Y-93671626D02*
X160250000Y-93528769D01*
X160250000Y-93528769D02*
X160339286Y-93385912D01*
X160339286Y-93385912D02*
X160491072Y-93314484D01*
X160491072Y-93314484D02*
X160848214Y-93314484D01*
X160848214Y-93314484D02*
X161000000Y-93243055D01*
X161571429Y-93814484D02*
X161705357Y-93885912D01*
X161705357Y-93885912D02*
X161991072Y-93885912D01*
X161991072Y-93885912D02*
X162142857Y-93814484D01*
X162142857Y-93814484D02*
X162232143Y-93671626D01*
X162232143Y-93671626D02*
X162241072Y-93600198D01*
X162241072Y-93600198D02*
X162187500Y-93457341D01*
X162187500Y-93457341D02*
X162053572Y-93385912D01*
X162053572Y-93385912D02*
X161839286Y-93385912D01*
X161839286Y-93385912D02*
X161705357Y-93314484D01*
X161705357Y-93314484D02*
X161651786Y-93171626D01*
X161651786Y-93171626D02*
X161660715Y-93100198D01*
X161660715Y-93100198D02*
X161750000Y-92957341D01*
X161750000Y-92957341D02*
X161901786Y-92885912D01*
X161901786Y-92885912D02*
X162116072Y-92885912D01*
X162116072Y-92885912D02*
X162250000Y-92957341D01*
X163991072Y-93885912D02*
X164178572Y-92385912D01*
X164633929Y-93885912D02*
X164732143Y-93100198D01*
X164732143Y-93100198D02*
X164678572Y-92957341D01*
X164678572Y-92957341D02*
X164544643Y-92885912D01*
X164544643Y-92885912D02*
X164330358Y-92885912D01*
X164330358Y-92885912D02*
X164178572Y-92957341D01*
X164178572Y-92957341D02*
X164098215Y-93028769D01*
X165928572Y-93814484D02*
X165776786Y-93885912D01*
X165776786Y-93885912D02*
X165491072Y-93885912D01*
X165491072Y-93885912D02*
X165357143Y-93814484D01*
X165357143Y-93814484D02*
X165303572Y-93671626D01*
X165303572Y-93671626D02*
X165375001Y-93100198D01*
X165375001Y-93100198D02*
X165464286Y-92957341D01*
X165464286Y-92957341D02*
X165616072Y-92885912D01*
X165616072Y-92885912D02*
X165901786Y-92885912D01*
X165901786Y-92885912D02*
X166035715Y-92957341D01*
X166035715Y-92957341D02*
X166089286Y-93100198D01*
X166089286Y-93100198D02*
X166071429Y-93243055D01*
X166071429Y-93243055D02*
X165339286Y-93385912D01*
X166633929Y-93885912D02*
X166758929Y-92885912D01*
X166723215Y-93171626D02*
X166812500Y-93028769D01*
X166812500Y-93028769D02*
X166892857Y-92957341D01*
X166892857Y-92957341D02*
X167044643Y-92885912D01*
X167044643Y-92885912D02*
X167187500Y-92885912D01*
X168142857Y-93814484D02*
X167991071Y-93885912D01*
X167991071Y-93885912D02*
X167705357Y-93885912D01*
X167705357Y-93885912D02*
X167571428Y-93814484D01*
X167571428Y-93814484D02*
X167517857Y-93671626D01*
X167517857Y-93671626D02*
X167589286Y-93100198D01*
X167589286Y-93100198D02*
X167678571Y-92957341D01*
X167678571Y-92957341D02*
X167830357Y-92885912D01*
X167830357Y-92885912D02*
X168116071Y-92885912D01*
X168116071Y-92885912D02*
X168250000Y-92957341D01*
X168250000Y-92957341D02*
X168303571Y-93100198D01*
X168303571Y-93100198D02*
X168285714Y-93243055D01*
X168285714Y-93243055D02*
X167553571Y-93385912D01*
X154312500Y-96300828D02*
X154500000Y-94800828D01*
X154500000Y-94800828D02*
X155169643Y-96300828D01*
X155169643Y-96300828D02*
X155357143Y-94800828D01*
X156098215Y-96300828D02*
X155964286Y-96229400D01*
X155964286Y-96229400D02*
X155901786Y-96157971D01*
X155901786Y-96157971D02*
X155848215Y-96015114D01*
X155848215Y-96015114D02*
X155901786Y-95586542D01*
X155901786Y-95586542D02*
X155991072Y-95443685D01*
X155991072Y-95443685D02*
X156071429Y-95372257D01*
X156071429Y-95372257D02*
X156223215Y-95300828D01*
X156223215Y-95300828D02*
X156437500Y-95300828D01*
X156437500Y-95300828D02*
X156571429Y-95372257D01*
X156571429Y-95372257D02*
X156633929Y-95443685D01*
X156633929Y-95443685D02*
X156687500Y-95586542D01*
X156687500Y-95586542D02*
X156633929Y-96015114D01*
X156633929Y-96015114D02*
X156544643Y-96157971D01*
X156544643Y-96157971D02*
X156464286Y-96229400D01*
X156464286Y-96229400D02*
X156312500Y-96300828D01*
X156312500Y-96300828D02*
X156098215Y-96300828D01*
X157241072Y-96300828D02*
X157366072Y-95300828D01*
X157330358Y-95586542D02*
X157419643Y-95443685D01*
X157419643Y-95443685D02*
X157500000Y-95372257D01*
X157500000Y-95372257D02*
X157651786Y-95300828D01*
X157651786Y-95300828D02*
X157794643Y-95300828D01*
X158812500Y-96300828D02*
X159000000Y-94800828D01*
X158821429Y-96229400D02*
X158669643Y-96300828D01*
X158669643Y-96300828D02*
X158383929Y-96300828D01*
X158383929Y-96300828D02*
X158250000Y-96229400D01*
X158250000Y-96229400D02*
X158187500Y-96157971D01*
X158187500Y-96157971D02*
X158133929Y-96015114D01*
X158133929Y-96015114D02*
X158187500Y-95586542D01*
X158187500Y-95586542D02*
X158276786Y-95443685D01*
X158276786Y-95443685D02*
X158357143Y-95372257D01*
X158357143Y-95372257D02*
X158508929Y-95300828D01*
X158508929Y-95300828D02*
X158794643Y-95300828D01*
X158794643Y-95300828D02*
X158928571Y-95372257D01*
X159571429Y-94800828D02*
X159741072Y-96300828D01*
X159741072Y-96300828D02*
X160160714Y-95229400D01*
X160160714Y-95229400D02*
X160312500Y-96300828D01*
X160312500Y-96300828D02*
X160857143Y-94800828D01*
X161241072Y-96300828D02*
X161366072Y-95300828D01*
X161428572Y-94800828D02*
X161348215Y-94872257D01*
X161348215Y-94872257D02*
X161410715Y-94943685D01*
X161410715Y-94943685D02*
X161491072Y-94872257D01*
X161491072Y-94872257D02*
X161428572Y-94800828D01*
X161428572Y-94800828D02*
X161410715Y-94943685D01*
X162080358Y-95300828D02*
X161955358Y-96300828D01*
X162062501Y-95443685D02*
X162142858Y-95372257D01*
X162142858Y-95372257D02*
X162294644Y-95300828D01*
X162294644Y-95300828D02*
X162508929Y-95300828D01*
X162508929Y-95300828D02*
X162642858Y-95372257D01*
X162642858Y-95372257D02*
X162696429Y-95515114D01*
X162696429Y-95515114D02*
X162598215Y-96300828D01*
X164080358Y-95300828D02*
X163928572Y-96515114D01*
X163928572Y-96515114D02*
X163839287Y-96657971D01*
X163839287Y-96657971D02*
X163758929Y-96729400D01*
X163758929Y-96729400D02*
X163607144Y-96800828D01*
X163607144Y-96800828D02*
X163392858Y-96800828D01*
X163392858Y-96800828D02*
X163258929Y-96729400D01*
X163964287Y-96229400D02*
X163812501Y-96300828D01*
X163812501Y-96300828D02*
X163526787Y-96300828D01*
X163526787Y-96300828D02*
X163392858Y-96229400D01*
X163392858Y-96229400D02*
X163330358Y-96157971D01*
X163330358Y-96157971D02*
X163276787Y-96015114D01*
X163276787Y-96015114D02*
X163330358Y-95586542D01*
X163330358Y-95586542D02*
X163419644Y-95443685D01*
X163419644Y-95443685D02*
X163500001Y-95372257D01*
X163500001Y-95372257D02*
X163651787Y-95300828D01*
X163651787Y-95300828D02*
X163937501Y-95300828D01*
X163937501Y-95300828D02*
X164071429Y-95372257D01*
X164642858Y-94800828D02*
X164955358Y-96300828D01*
X164955358Y-96300828D02*
X165642858Y-94800828D01*
X166741072Y-96300828D02*
X165883929Y-96300828D01*
X166312501Y-96300828D02*
X166500001Y-94800828D01*
X166500001Y-94800828D02*
X166330358Y-95015114D01*
X166330358Y-95015114D02*
X166169644Y-95157971D01*
X166169644Y-95157971D02*
X166017858Y-95229400D01*
D11*
%TO.C,D22*%
X96600000Y-131850000D02*
X97000000Y-131850000D01*
X97000000Y-131850000D02*
X97000000Y-131300000D01*
X97000000Y-131850000D02*
X97000000Y-132400000D01*
X97000000Y-131850000D02*
X97600000Y-131450000D01*
X97600000Y-131450000D02*
X97600000Y-132250000D01*
X97600000Y-131850000D02*
X98100000Y-131850000D01*
X97600000Y-132250000D02*
X97000000Y-131850000D01*
%TO.C,D8*%
X159750000Y-98800000D02*
X160150000Y-98800000D01*
X160150000Y-98800000D02*
X160150000Y-98250000D01*
X160150000Y-98800000D02*
X160150000Y-99350000D01*
X160150000Y-98800000D02*
X160750000Y-98400000D01*
X160750000Y-98400000D02*
X160750000Y-99200000D01*
X160750000Y-98800000D02*
X161250000Y-98800000D01*
X160750000Y-99200000D02*
X160150000Y-98800000D01*
%TO.C,D18*%
X117650000Y-110800000D02*
X118050000Y-110800000D01*
X118050000Y-110800000D02*
X118050000Y-110250000D01*
X118050000Y-110800000D02*
X118050000Y-111350000D01*
X118050000Y-110800000D02*
X118650000Y-110400000D01*
X118650000Y-110400000D02*
X118650000Y-111200000D01*
X118650000Y-110800000D02*
X119150000Y-110800000D01*
X118650000Y-111200000D02*
X118050000Y-110800000D01*
%TO.C,D10*%
X138700000Y-168950000D02*
X139100000Y-168950000D01*
X139100000Y-168950000D02*
X139100000Y-168400000D01*
X139100000Y-168950000D02*
X139100000Y-169500000D01*
X139100000Y-168950000D02*
X139700000Y-168550000D01*
X139700000Y-168550000D02*
X139700000Y-169350000D01*
X139700000Y-168950000D02*
X140200000Y-168950000D01*
X139700000Y-169350000D02*
X139100000Y-168950000D01*
%TO.C,D25*%
X173541469Y-191492865D02*
X173927839Y-191596392D01*
X173927839Y-191596392D02*
X173785488Y-192127653D01*
X173927839Y-191596392D02*
X174070189Y-191065133D01*
X173927839Y-191596392D02*
X174610922Y-191365313D01*
X174403867Y-192138054D02*
X173927839Y-191596392D01*
X174507394Y-191751684D02*
X174990357Y-191881093D01*
X174610922Y-191365313D02*
X174403867Y-192138054D01*
%TO.C,D12*%
X138700000Y-126850000D02*
X139100000Y-126850000D01*
X139100000Y-126850000D02*
X139100000Y-126300000D01*
X139100000Y-126850000D02*
X139100000Y-127400000D01*
X139100000Y-126850000D02*
X139700000Y-126450000D01*
X139700000Y-126450000D02*
X139700000Y-127250000D01*
X139700000Y-126850000D02*
X140200000Y-126850000D01*
X139700000Y-127250000D02*
X139100000Y-126850000D01*
%TO.C,D14*%
X117650000Y-195000000D02*
X118050000Y-195000000D01*
X118050000Y-195000000D02*
X118050000Y-194450000D01*
X118050000Y-195000000D02*
X118050000Y-195550000D01*
X118050000Y-195000000D02*
X118650000Y-194600000D01*
X118650000Y-194600000D02*
X118650000Y-195400000D01*
X118650000Y-195000000D02*
X119150000Y-195000000D01*
X118650000Y-195400000D02*
X118050000Y-195000000D01*
%TO.C,D6*%
X159750000Y-140900000D02*
X160150000Y-140900000D01*
X160150000Y-140900000D02*
X160150000Y-140350000D01*
X160150000Y-140900000D02*
X160150000Y-141450000D01*
X160150000Y-140900000D02*
X160750000Y-140500000D01*
X160750000Y-140500000D02*
X160750000Y-141300000D01*
X160750000Y-140900000D02*
X161250000Y-140900000D01*
X160750000Y-141300000D02*
X160150000Y-140900000D01*
%TO.C,D19*%
X96600000Y-195000000D02*
X97000000Y-195000000D01*
X97000000Y-195000000D02*
X97000000Y-194450000D01*
X97000000Y-195000000D02*
X97000000Y-195550000D01*
X97000000Y-195000000D02*
X97600000Y-194600000D01*
X97600000Y-194600000D02*
X97600000Y-195400000D01*
X97600000Y-195000000D02*
X98100000Y-195000000D01*
X97600000Y-195400000D02*
X97000000Y-195000000D01*
%TO.C,D16*%
X117650000Y-152900000D02*
X118050000Y-152900000D01*
X118050000Y-152900000D02*
X118050000Y-152350000D01*
X118050000Y-152900000D02*
X118050000Y-153450000D01*
X118050000Y-152900000D02*
X118650000Y-152500000D01*
X118650000Y-152500000D02*
X118650000Y-153300000D01*
X118650000Y-152900000D02*
X119150000Y-152900000D01*
X118650000Y-153300000D02*
X118050000Y-152900000D01*
%TO.C,D20*%
X96600000Y-173950000D02*
X97000000Y-173950000D01*
X97000000Y-173950000D02*
X97000000Y-173400000D01*
X97000000Y-173950000D02*
X97000000Y-174500000D01*
X97000000Y-173950000D02*
X97600000Y-173550000D01*
X97600000Y-173550000D02*
X97600000Y-174350000D01*
X97600000Y-173950000D02*
X98100000Y-173950000D01*
X97600000Y-174350000D02*
X97000000Y-173950000D01*
%TO.C,D24*%
X203074651Y-199406257D02*
X203461021Y-199509784D01*
X203461021Y-199509784D02*
X203318670Y-200041045D01*
X203461021Y-199509784D02*
X203603371Y-198978525D01*
X203461021Y-199509784D02*
X204144104Y-199278705D01*
X203937049Y-200051446D02*
X203461021Y-199509784D01*
X204040576Y-199665076D02*
X204523539Y-199794485D01*
X204144104Y-199278705D02*
X203937049Y-200051446D01*
%TO.C,D29*%
X206350000Y-185950000D02*
X206750000Y-185950000D01*
X206750000Y-185950000D02*
X206750000Y-185400000D01*
X206750000Y-185950000D02*
X206750000Y-186500000D01*
X206750000Y-185950000D02*
X207350000Y-185550000D01*
X207350000Y-185550000D02*
X207350000Y-186350000D01*
X207350000Y-185950000D02*
X207850000Y-185950000D01*
X207350000Y-186350000D02*
X206750000Y-185950000D01*
%TO.C,D21*%
X96600000Y-152900000D02*
X97000000Y-152900000D01*
X97000000Y-152900000D02*
X97000000Y-152350000D01*
X97000000Y-152900000D02*
X97000000Y-153450000D01*
X97000000Y-152900000D02*
X97600000Y-152500000D01*
X97600000Y-152500000D02*
X97600000Y-153300000D01*
X97600000Y-152900000D02*
X98100000Y-152900000D01*
X97600000Y-153300000D02*
X97000000Y-152900000D01*
%TO.C,D28*%
X201850000Y-149900000D02*
X202250000Y-149900000D01*
X202250000Y-149900000D02*
X202250000Y-149350000D01*
X202250000Y-149900000D02*
X202250000Y-150450000D01*
X202250000Y-149900000D02*
X202850000Y-149500000D01*
X202850000Y-149500000D02*
X202850000Y-150300000D01*
X202850000Y-149900000D02*
X203350000Y-149900000D01*
X202850000Y-150300000D02*
X202250000Y-149900000D01*
%TO.C,D3*%
X180800000Y-126850000D02*
X181200000Y-126850000D01*
X181200000Y-126850000D02*
X181200000Y-126300000D01*
X181200000Y-126850000D02*
X181200000Y-127400000D01*
X181200000Y-126850000D02*
X181800000Y-126450000D01*
X181800000Y-126450000D02*
X181800000Y-127250000D01*
X181800000Y-126850000D02*
X182300000Y-126850000D01*
X181800000Y-127250000D02*
X181200000Y-126850000D01*
%TO.C,D11*%
X138700000Y-147900000D02*
X139100000Y-147900000D01*
X139100000Y-147900000D02*
X139100000Y-147350000D01*
X139100000Y-147900000D02*
X139100000Y-148450000D01*
X139100000Y-147900000D02*
X139700000Y-147500000D01*
X139700000Y-147500000D02*
X139700000Y-148300000D01*
X139700000Y-147900000D02*
X140200000Y-147900000D01*
X139700000Y-148300000D02*
X139100000Y-147900000D01*
%TO.C,D26*%
X207200000Y-137100000D02*
X207600000Y-136500000D01*
X207600000Y-136100000D02*
X207600000Y-136500000D01*
X207600000Y-136500000D02*
X207050000Y-136500000D01*
X207600000Y-136500000D02*
X208000000Y-137100000D01*
X207600000Y-136500000D02*
X208150000Y-136500000D01*
X207600000Y-137100000D02*
X207600000Y-137600000D01*
X208000000Y-137100000D02*
X207200000Y-137100000D01*
%TO.C,D15*%
X117650000Y-173950000D02*
X118050000Y-173950000D01*
X118050000Y-173950000D02*
X118050000Y-173400000D01*
X118050000Y-173950000D02*
X118050000Y-174500000D01*
X118050000Y-173950000D02*
X118650000Y-173550000D01*
X118650000Y-173550000D02*
X118650000Y-174350000D01*
X118650000Y-173950000D02*
X119150000Y-173950000D01*
X118650000Y-174350000D02*
X118050000Y-173950000D01*
%TO.C,D13*%
X138700000Y-105800000D02*
X139100000Y-105800000D01*
X139100000Y-105800000D02*
X139100000Y-105250000D01*
X139100000Y-105800000D02*
X139100000Y-106350000D01*
X139100000Y-105800000D02*
X139700000Y-105400000D01*
X139700000Y-105400000D02*
X139700000Y-106200000D01*
X139700000Y-105800000D02*
X140200000Y-105800000D01*
X139700000Y-106200000D02*
X139100000Y-105800000D01*
%TO.C,D9*%
X138700000Y-190000000D02*
X139100000Y-190000000D01*
X139100000Y-190000000D02*
X139100000Y-189450000D01*
X139100000Y-190000000D02*
X139100000Y-190550000D01*
X139100000Y-190000000D02*
X139700000Y-189600000D01*
X139700000Y-189600000D02*
X139700000Y-190400000D01*
X139700000Y-190000000D02*
X140200000Y-190000000D01*
X139700000Y-190400000D02*
X139100000Y-190000000D01*
%TO.C,D17*%
X117650000Y-131850000D02*
X118050000Y-131850000D01*
X118050000Y-131850000D02*
X118050000Y-131300000D01*
X118050000Y-131850000D02*
X118050000Y-132400000D01*
X118050000Y-131850000D02*
X118650000Y-131450000D01*
X118650000Y-131450000D02*
X118650000Y-132250000D01*
X118650000Y-131850000D02*
X119150000Y-131850000D01*
X118650000Y-132250000D02*
X118050000Y-131850000D01*
%TO.C,D2*%
X180800000Y-147900000D02*
X181200000Y-147900000D01*
X181200000Y-147900000D02*
X181200000Y-147350000D01*
X181200000Y-147900000D02*
X181200000Y-148450000D01*
X181200000Y-147900000D02*
X181800000Y-147500000D01*
X181800000Y-147500000D02*
X181800000Y-148300000D01*
X181800000Y-147900000D02*
X182300000Y-147900000D01*
X181800000Y-148300000D02*
X181200000Y-147900000D01*
%TO.C,D4*%
X180800000Y-105800000D02*
X181200000Y-105800000D01*
X181200000Y-105800000D02*
X181200000Y-105250000D01*
X181200000Y-105800000D02*
X181200000Y-106350000D01*
X181200000Y-105800000D02*
X181800000Y-105400000D01*
X181800000Y-105400000D02*
X181800000Y-106200000D01*
X181800000Y-105800000D02*
X182300000Y-105800000D01*
X181800000Y-106200000D02*
X181200000Y-105800000D01*
%TO.C,D27*%
X207200000Y-116050000D02*
X207600000Y-115450000D01*
X207600000Y-115050000D02*
X207600000Y-115450000D01*
X207600000Y-115450000D02*
X207050000Y-115450000D01*
X207600000Y-115450000D02*
X208000000Y-116050000D01*
X207600000Y-115450000D02*
X208150000Y-115450000D01*
X207600000Y-116050000D02*
X207600000Y-116550000D01*
X208000000Y-116050000D02*
X207200000Y-116050000D01*
%TO.C,D7*%
X159750000Y-119850000D02*
X160150000Y-119850000D01*
X160150000Y-119850000D02*
X160150000Y-119300000D01*
X160150000Y-119850000D02*
X160150000Y-120400000D01*
X160150000Y-119850000D02*
X160750000Y-119450000D01*
X160750000Y-119450000D02*
X160750000Y-120250000D01*
X160750000Y-119850000D02*
X161250000Y-119850000D01*
X160750000Y-120250000D02*
X160150000Y-119850000D01*
%TO.C,D5*%
X159750000Y-161950000D02*
X160150000Y-161950000D01*
X160150000Y-161950000D02*
X160150000Y-161400000D01*
X160150000Y-161950000D02*
X160150000Y-162500000D01*
X160150000Y-161950000D02*
X160750000Y-161550000D01*
X160750000Y-161550000D02*
X160750000Y-162350000D01*
X160750000Y-161950000D02*
X161250000Y-161950000D01*
X160750000Y-162350000D02*
X160150000Y-161950000D01*
%TO.C,D23*%
X96600000Y-110800000D02*
X97000000Y-110800000D01*
X97000000Y-110800000D02*
X97000000Y-110250000D01*
X97000000Y-110800000D02*
X97000000Y-111350000D01*
X97000000Y-110800000D02*
X97600000Y-110400000D01*
X97600000Y-110400000D02*
X97600000Y-111200000D01*
X97600000Y-110800000D02*
X98100000Y-110800000D01*
X97600000Y-111200000D02*
X97000000Y-110800000D01*
%TO.C,D1*%
X180800000Y-168950000D02*
X181200000Y-168950000D01*
X181200000Y-168950000D02*
X181200000Y-168400000D01*
X181200000Y-168950000D02*
X181200000Y-169500000D01*
X181200000Y-168950000D02*
X181800000Y-168550000D01*
X181800000Y-168550000D02*
X181800000Y-169350000D01*
X181800000Y-168950000D02*
X182300000Y-168950000D01*
X181800000Y-169350000D02*
X181200000Y-168950000D01*
%TD*%
D12*
%TO.C,*%
X107875000Y-189475000D03*
%TD*%
%TO.C,*%
X192075000Y-189475000D03*
%TD*%
%TO.C,*%
X150000000Y-163500000D03*
%TD*%
%TO.C,*%
X107875000Y-126325000D03*
%TD*%
%TO.C,*%
X171025000Y-121325000D03*
%TD*%
M02*
