%TF.GenerationSoftware,KiCad,Pcbnew,9.0.3-1.fc42*%
%TF.CreationDate,2025-08-09T15:12:38+02:00*%
%TF.ProjectId,left_traced,6c656674-5f74-4726-9163-65642e6b6963,v1.0.0*%
%TF.SameCoordinates,Original*%
%TF.FileFunction,Copper,L1,Top*%
%TF.FilePolarity,Positive*%
%FSLAX46Y46*%
G04 Gerber Fmt 4.6, Leading zero omitted, Abs format (unit mm)*
G04 Created by KiCad (PCBNEW 9.0.3-1.fc42) date 2025-08-09 15:12:38*
%MOMM*%
%LPD*%
G01*
G04 APERTURE LIST*
G04 Aperture macros list*
%AMRotRect*
0 Rectangle, with rotation*
0 The origin of the aperture is its center*
0 $1 length*
0 $2 width*
0 $3 Rotation angle, in degrees counterclockwise*
0 Add horizontal line*
21,1,$1,$2,0,0,$3*%
G04 Aperture macros list end*
%TA.AperFunction,ComponentPad*%
%ADD10R,1.778000X1.778000*%
%TD*%
%TA.AperFunction,SMDPad,CuDef*%
%ADD11R,0.900000X1.200000*%
%TD*%
%TA.AperFunction,ComponentPad*%
%ADD12C,1.905000*%
%TD*%
%TA.AperFunction,ComponentPad*%
%ADD13RotRect,1.778000X1.778000X345.000000*%
%TD*%
%TA.AperFunction,SMDPad,CuDef*%
%ADD14RotRect,0.900000X1.200000X345.000000*%
%TD*%
%TA.AperFunction,ComponentPad*%
%ADD15O,2.200000X1.600000*%
%TD*%
%TA.AperFunction,SMDPad,CuDef*%
%ADD16R,1.200000X0.900000*%
%TD*%
%TA.AperFunction,ComponentPad*%
%ADD17O,1.700000X1.700000*%
%TD*%
%TA.AperFunction,ComponentPad*%
%ADD18R,1.700000X1.700000*%
%TD*%
%TA.AperFunction,Conductor*%
%ADD19C,0.250000*%
%TD*%
G04 APERTURE END LIST*
D10*
%TO.P,D22,1*%
%TO.N,GP19*%
X93540000Y-131850000D03*
D11*
X95700000Y-131850000D03*
%TO.P,D22,2*%
%TO.N,mirror_right_top*%
X99000000Y-131850000D03*
D12*
X101160000Y-131850000D03*
%TD*%
D10*
%TO.P,D8,1*%
%TO.N,GP20*%
X156690000Y-98800000D03*
D11*
X158850000Y-98800000D03*
%TO.P,D8,2*%
%TO.N,mirror_middle_num*%
X162150000Y-98800000D03*
D12*
X164310000Y-98800000D03*
%TD*%
D10*
%TO.P,D18,1*%
%TO.N,GP20*%
X114590000Y-110800000D03*
D11*
X116750000Y-110800000D03*
%TO.P,D18,2*%
%TO.N,mirror_pinky_num*%
X120050000Y-110800000D03*
D12*
X122210000Y-110800000D03*
%TD*%
D10*
%TO.P,D10,1*%
%TO.N,GP17*%
X135640000Y-168950000D03*
D11*
X137800000Y-168950000D03*
%TO.P,D10,2*%
%TO.N,mirror_ring_bottom*%
X141100000Y-168950000D03*
D12*
X143260000Y-168950000D03*
%TD*%
D13*
%TO.P,D25,1*%
%TO.N,GP16*%
X170585736Y-190700877D03*
D14*
X172672135Y-191259929D03*
%TO.P,D25,2*%
%TO.N,mirror_enter_default*%
X175859691Y-192114029D03*
D12*
X177946090Y-192673081D03*
%TD*%
D10*
%TO.P,D12,1*%
%TO.N,GP19*%
X135640000Y-126850000D03*
D11*
X137800000Y-126850000D03*
%TO.P,D12,2*%
%TO.N,mirror_ring_top*%
X141100000Y-126850000D03*
D12*
X143260000Y-126850000D03*
%TD*%
D10*
%TO.P,D14,1*%
%TO.N,GP16*%
X114590000Y-195000000D03*
D11*
X116750000Y-195000000D03*
%TO.P,D14,2*%
%TO.N,mirror_pinky_thumb*%
X120050000Y-195000000D03*
D12*
X122210000Y-195000000D03*
%TD*%
D10*
%TO.P,D6,1*%
%TO.N,GP18*%
X156690000Y-140900000D03*
D11*
X158850000Y-140900000D03*
%TO.P,D6,2*%
%TO.N,mirror_middle_home*%
X162150000Y-140900000D03*
D12*
X164310000Y-140900000D03*
%TD*%
D10*
%TO.P,D19,1*%
%TO.N,GP16*%
X93540000Y-195000000D03*
D11*
X95700000Y-195000000D03*
%TO.P,D19,2*%
%TO.N,mirror_right_thumb*%
X99000000Y-195000000D03*
D12*
X101160000Y-195000000D03*
%TD*%
D10*
%TO.P,D16,1*%
%TO.N,GP18*%
X114590000Y-152900000D03*
D11*
X116750000Y-152900000D03*
%TO.P,D16,2*%
%TO.N,mirror_pinky_home*%
X120050000Y-152900000D03*
D12*
X122210000Y-152900000D03*
%TD*%
D10*
%TO.P,D20,1*%
%TO.N,GP17*%
X93540000Y-173950000D03*
D11*
X95700000Y-173950000D03*
%TO.P,D20,2*%
%TO.N,mirror_right_bottom*%
X99000000Y-173950000D03*
D12*
X101160000Y-173950000D03*
%TD*%
D13*
%TO.P,D24,1*%
%TO.N,GP16*%
X200118918Y-198614269D03*
D14*
X202205317Y-199173321D03*
%TO.P,D24,2*%
%TO.N,mirror_back_space_default*%
X205392873Y-200027421D03*
D12*
X207479272Y-200586473D03*
%TD*%
D10*
%TO.P,D29,1*%
%TO.N,GP17*%
X203290000Y-185950000D03*
D11*
X205450000Y-185950000D03*
%TO.P,D29,2*%
%TO.N,mirror_inner_bottom*%
X208750000Y-185950000D03*
D12*
X210910000Y-185950000D03*
%TD*%
D10*
%TO.P,D21,1*%
%TO.N,GP18*%
X93540000Y-152900000D03*
D11*
X95700000Y-152900000D03*
%TO.P,D21,2*%
%TO.N,mirror_right_home*%
X99000000Y-152900000D03*
D12*
X101160000Y-152900000D03*
%TD*%
D15*
%TO.P,TRRS1,1*%
%TO.N,GP0*%
X202300000Y-167600000D03*
X202300000Y-169900000D03*
%TO.P,TRRS1,2*%
%TO.N,GP1*%
X203400000Y-165300000D03*
X203400000Y-172200000D03*
%TO.P,TRRS1,3*%
%TO.N,GND*%
X207400000Y-165300000D03*
X207400000Y-172200000D03*
%TO.P,TRRS1,4*%
%TO.N,3V3*%
X210400000Y-165300000D03*
X210400000Y-172200000D03*
%TD*%
D10*
%TO.P,D28,1*%
%TO.N,GP18*%
X198790000Y-149900000D03*
D11*
X200950000Y-149900000D03*
%TO.P,D28,2*%
%TO.N,mirror_inner_home*%
X204250000Y-149900000D03*
D12*
X206410000Y-149900000D03*
%TD*%
D10*
%TO.P,D3,1*%
%TO.N,GP19*%
X177740000Y-126850000D03*
D11*
X179900000Y-126850000D03*
%TO.P,D3,2*%
%TO.N,mirror_index_top*%
X183200000Y-126850000D03*
D12*
X185360000Y-126850000D03*
%TD*%
D10*
%TO.P,D11,1*%
%TO.N,GP18*%
X135640000Y-147900000D03*
D11*
X137800000Y-147900000D03*
%TO.P,D11,2*%
%TO.N,mirror_ring_home*%
X141100000Y-147900000D03*
D12*
X143260000Y-147900000D03*
%TD*%
D10*
%TO.P,D26,1*%
%TO.N,GP19*%
X207600000Y-133040000D03*
D16*
X207600000Y-135200000D03*
%TO.P,D26,2*%
%TO.N,mirror_inner_top*%
X207600000Y-138500000D03*
D12*
X207600000Y-140660000D03*
%TD*%
D10*
%TO.P,D15,1*%
%TO.N,GP17*%
X114590000Y-173950000D03*
D11*
X116750000Y-173950000D03*
%TO.P,D15,2*%
%TO.N,mirror_pinky_bottom*%
X120050000Y-173950000D03*
D12*
X122210000Y-173950000D03*
%TD*%
D10*
%TO.P,D13,1*%
%TO.N,GP20*%
X135640000Y-105800000D03*
D11*
X137800000Y-105800000D03*
%TO.P,D13,2*%
%TO.N,mirror_ring_num*%
X141100000Y-105800000D03*
D12*
X143260000Y-105800000D03*
%TD*%
D10*
%TO.P,D9,1*%
%TO.N,GP16*%
X135640000Y-190000000D03*
D11*
X137800000Y-190000000D03*
%TO.P,D9,2*%
%TO.N,mirror_ring_thumb*%
X141100000Y-190000000D03*
D12*
X143260000Y-190000000D03*
%TD*%
D10*
%TO.P,D17,1*%
%TO.N,GP19*%
X114590000Y-131850000D03*
D11*
X116750000Y-131850000D03*
%TO.P,D17,2*%
%TO.N,mirror_pinky_top*%
X120050000Y-131850000D03*
D12*
X122210000Y-131850000D03*
%TD*%
D10*
%TO.P,D2,1*%
%TO.N,GP18*%
X177740000Y-147900000D03*
D11*
X179900000Y-147900000D03*
%TO.P,D2,2*%
%TO.N,mirror_index_home*%
X183200000Y-147900000D03*
D12*
X185360000Y-147900000D03*
%TD*%
D10*
%TO.P,D4,1*%
%TO.N,GP20*%
X177740000Y-105800000D03*
D11*
X179900000Y-105800000D03*
%TO.P,D4,2*%
%TO.N,mirror_index_num*%
X183200000Y-105800000D03*
D12*
X185360000Y-105800000D03*
%TD*%
D17*
%TO.P,_1,1*%
%TO.N,GP0*%
X211490000Y-104670000D03*
%TO.P,_1,2*%
%TO.N,GP1*%
X211490000Y-107210000D03*
D18*
%TO.P,_1,3*%
%TO.N,GND*%
X211490000Y-109750000D03*
D17*
%TO.P,_1,4*%
%TO.N,GP2*%
X211490000Y-112290000D03*
%TO.P,_1,5*%
%TO.N,GP3*%
X211490000Y-114830000D03*
%TO.P,_1,6*%
%TO.N,GP4*%
X211490000Y-117370000D03*
%TO.P,_1,7*%
%TO.N,GP5*%
X211490000Y-119910000D03*
D18*
%TO.P,_1,8*%
%TO.N,GND*%
X211490000Y-122450000D03*
D17*
%TO.P,_1,9*%
%TO.N,GP6*%
X211490000Y-124990000D03*
%TO.P,_1,10*%
%TO.N,GP7*%
X211490000Y-127530000D03*
%TO.P,_1,11*%
%TO.N,GP8*%
X211490000Y-130070000D03*
%TO.P,_1,12*%
%TO.N,GP9*%
X211490000Y-132610000D03*
D18*
%TO.P,_1,13*%
%TO.N,GND*%
X211490000Y-135150000D03*
D17*
%TO.P,_1,14*%
%TO.N,GP10*%
X211490000Y-137690000D03*
%TO.P,_1,15*%
%TO.N,GP11*%
X211490000Y-140230000D03*
%TO.P,_1,16*%
%TO.N,GP12*%
X211490000Y-142770000D03*
%TO.P,_1,17*%
%TO.N,GP13*%
X211490000Y-145310000D03*
D18*
%TO.P,_1,18*%
%TO.N,GND*%
X211490000Y-147850000D03*
D17*
%TO.P,_1,19*%
%TO.N,GP14*%
X211490000Y-150390000D03*
%TO.P,_1,20*%
%TO.N,GP15*%
X211490000Y-152930000D03*
%TO.P,_1,21*%
%TO.N,GP16*%
X193710000Y-152930000D03*
%TO.P,_1,22*%
%TO.N,GP17*%
X193710000Y-150390000D03*
D18*
%TO.P,_1,23*%
%TO.N,GND*%
X193710000Y-147850000D03*
D17*
%TO.P,_1,24*%
%TO.N,GP18*%
X193710000Y-145310000D03*
%TO.P,_1,25*%
%TO.N,GP19*%
X193710000Y-142770000D03*
%TO.P,_1,26*%
%TO.N,GP20*%
X193710000Y-140230000D03*
%TO.P,_1,27*%
%TO.N,GP21*%
X193710000Y-137690000D03*
D18*
%TO.P,_1,28*%
%TO.N,GND*%
X193710000Y-135150000D03*
D17*
%TO.P,_1,29*%
%TO.N,GP22*%
X193710000Y-132610000D03*
%TO.P,_1,30*%
%TO.N,RUN*%
X193710000Y-130070000D03*
%TO.P,_1,31*%
%TO.N,GP26*%
X193710000Y-127530000D03*
%TO.P,_1,32*%
%TO.N,GP27*%
X193710000Y-124990000D03*
D18*
%TO.P,_1,33*%
%TO.N,AGND*%
X193710000Y-122450000D03*
D17*
%TO.P,_1,34*%
%TO.N,GP28*%
X193710000Y-119910000D03*
%TO.P,_1,35*%
%TO.N,ADC_VREF*%
X193710000Y-117370000D03*
%TO.P,_1,36*%
%TO.N,3V3*%
X193710000Y-114830000D03*
%TO.P,_1,37*%
%TO.N,3V3_EN*%
X193710000Y-112290000D03*
D18*
%TO.P,_1,38*%
%TO.N,GND*%
X193710000Y-109750000D03*
D17*
%TO.P,_1,39*%
%TO.N,VSYS*%
X193710000Y-107210000D03*
%TO.P,_1,40*%
%TO.N,VBUS*%
X193710000Y-104670000D03*
%TD*%
D10*
%TO.P,D27,1*%
%TO.N,GP20*%
X207600000Y-111990000D03*
D16*
X207600000Y-114150000D03*
%TO.P,D27,2*%
%TO.N,mirror_inner_num*%
X207600000Y-117450000D03*
D12*
X207600000Y-119610000D03*
%TD*%
D10*
%TO.P,D7,1*%
%TO.N,GP19*%
X156690000Y-119850000D03*
D11*
X158850000Y-119850000D03*
%TO.P,D7,2*%
%TO.N,mirror_middle_top*%
X162150000Y-119850000D03*
D12*
X164310000Y-119850000D03*
%TD*%
D10*
%TO.P,D5,1*%
%TO.N,GP17*%
X156690000Y-161950000D03*
D11*
X158850000Y-161950000D03*
%TO.P,D5,2*%
%TO.N,mirror_middle_bottom*%
X162150000Y-161950000D03*
D12*
X164310000Y-161950000D03*
%TD*%
D10*
%TO.P,D23,1*%
%TO.N,GP20*%
X93540000Y-110800000D03*
D11*
X95700000Y-110800000D03*
%TO.P,D23,2*%
%TO.N,mirror_right_num*%
X99000000Y-110800000D03*
D12*
X101160000Y-110800000D03*
%TD*%
D10*
%TO.P,D1,1*%
%TO.N,GP17*%
X177740000Y-168950000D03*
D11*
X179900000Y-168950000D03*
%TO.P,D1,2*%
%TO.N,mirror_index_bottom*%
X183200000Y-168950000D03*
D12*
X185360000Y-168950000D03*
%TD*%
D19*
%TO.N,mirror_inner_bottom*%
X208750000Y-185950000D02*
X210910000Y-185950000D01*
%TO.N,mirror_inner_home*%
X204250000Y-149900000D02*
X206410000Y-149900000D01*
%TO.N,mirror_index_bottom*%
X183200000Y-168950000D02*
X185360000Y-168950000D01*
%TO.N,mirror_index_home*%
X183200000Y-147900000D02*
X185360000Y-147900000D01*
%TO.N,mirror_index_top*%
X183200000Y-126850000D02*
X185360000Y-126850000D01*
%TO.N,mirror_index_num*%
X183200000Y-105800000D02*
X185360000Y-105800000D01*
%TO.N,mirror_middle_bottom*%
X162150000Y-161950000D02*
X164310000Y-161950000D01*
%TO.N,mirror_middle_home*%
X162150000Y-140900000D02*
X164310000Y-140900000D01*
%TO.N,mirror_middle_top*%
X162150000Y-119850000D02*
X164310000Y-119850000D01*
%TO.N,mirror_middle_num*%
X162150000Y-98800000D02*
X164310000Y-98800000D01*
%TO.N,mirror_ring_thumb*%
X141100000Y-190000000D02*
X143260000Y-190000000D01*
%TO.N,mirror_ring_bottom*%
X141100000Y-168950000D02*
X143260000Y-168950000D01*
%TO.N,mirror_ring_home*%
X141100000Y-147900000D02*
X143260000Y-147900000D01*
%TO.N,mirror_ring_top*%
X141100000Y-126850000D02*
X143260000Y-126850000D01*
%TO.N,mirror_ring_num*%
X141100000Y-105800000D02*
X143260000Y-105800000D01*
%TO.N,mirror_pinky_thumb*%
X122210000Y-195000000D02*
X120050000Y-195000000D01*
%TO.N,mirror_pinky_bottom*%
X122210000Y-173950000D02*
X120050000Y-173950000D01*
%TO.N,mirror_pinky_home*%
X120050000Y-152900000D02*
X122210000Y-152900000D01*
%TO.N,mirror_pinky_top*%
X120050000Y-131850000D02*
X122210000Y-131850000D01*
%TO.N,mirror_pinky_num*%
X120050000Y-110800000D02*
X122210000Y-110800000D01*
%TO.N,mirror_right_thumb*%
X99000000Y-195000000D02*
X101160000Y-195000000D01*
%TO.N,mirror_right_bottom*%
X99000000Y-173950000D02*
X101160000Y-173950000D01*
%TO.N,mirror_right_home*%
X99000000Y-152900000D02*
X101160000Y-152900000D01*
%TO.N,mirror_right_top*%
X99000000Y-131850000D02*
X101160000Y-131850000D01*
%TO.N,mirror_right_num*%
X99000000Y-110800000D02*
X101160000Y-110800000D01*
%TO.N,mirror_back_space_default*%
X205392873Y-200027422D02*
X206920222Y-200027422D01*
X206920222Y-200027422D02*
X207479272Y-200586472D01*
%TO.N,mirror_enter_default*%
X175859691Y-192114030D02*
X177387040Y-192114030D01*
X177387040Y-192114030D02*
X177946090Y-192673080D01*
%TO.N,mirror_inner_top*%
X207600000Y-140660000D02*
X207600000Y-138500000D01*
%TO.N,mirror_inner_num*%
X207600000Y-119610000D02*
X207600000Y-117450000D01*
%TO.N,GP17*%
X199326935Y-185950000D02*
X203290000Y-185950000D01*
X156690000Y-161950000D02*
X157968500Y-160671500D01*
X119590000Y-168950000D02*
X135640000Y-168950000D01*
X156690000Y-161950000D02*
X158850000Y-161950000D01*
X203290000Y-185950000D02*
X205450000Y-185950000D01*
X203290000Y-187089000D02*
X205250000Y-189049000D01*
X199313190Y-175951000D02*
X192534000Y-169171810D01*
X198184000Y-184807065D02*
X199326935Y-185950000D01*
X135640000Y-168950000D02*
X143520000Y-161070000D01*
X113311500Y-172671500D02*
X114590000Y-173950000D01*
X208813190Y-175951000D02*
X199313190Y-175951000D01*
X94818500Y-172671500D02*
X113311500Y-172671500D01*
X192534000Y-169171810D02*
X192534000Y-151566000D01*
X114590000Y-173950000D02*
X116750000Y-173950000D01*
X177740000Y-168950000D02*
X179018500Y-170228500D01*
X155810000Y-161070000D02*
X156690000Y-161950000D01*
X143520000Y-161070000D02*
X155810000Y-161070000D01*
X179018500Y-170228500D02*
X184643599Y-170228500D01*
X213000000Y-189049000D02*
X213000000Y-180137810D01*
X177740000Y-168950000D02*
X179900000Y-168950000D01*
X205250000Y-189049000D02*
X213000000Y-189049000D01*
X192534000Y-151566000D02*
X193710000Y-150390000D01*
X198184000Y-183768901D02*
X198184000Y-184807065D01*
X135640000Y-168950000D02*
X137800000Y-168950000D01*
X213000000Y-180137810D02*
X208813190Y-175951000D01*
X203290000Y-185950000D02*
X203290000Y-187089000D01*
X93540000Y-173950000D02*
X95700000Y-173950000D01*
X184643599Y-170228500D02*
X198184000Y-183768901D01*
X114590000Y-173950000D02*
X119590000Y-168950000D01*
X157968500Y-160671500D02*
X169461500Y-160671500D01*
X169461500Y-160671500D02*
X177740000Y-168950000D01*
X93540000Y-173950000D02*
X94818500Y-172671500D01*
%TO.N,GP18*%
X157968500Y-139621500D02*
X169461500Y-139621500D01*
X177740000Y-147900000D02*
X180330000Y-145310000D01*
X198790000Y-145790000D02*
X197000000Y-144000000D01*
X180330000Y-145310000D02*
X193710000Y-145310000D01*
X135640000Y-147900000D02*
X137800000Y-147900000D01*
X93540000Y-152900000D02*
X94818500Y-151621500D01*
X169461500Y-139621500D02*
X177740000Y-147900000D01*
X114590000Y-152900000D02*
X119590000Y-147900000D01*
X142640000Y-140900000D02*
X156690000Y-140900000D01*
X93540000Y-152900000D02*
X95700000Y-152900000D01*
X195690000Y-145310000D02*
X193710000Y-145310000D01*
X177740000Y-147900000D02*
X179900000Y-147900000D01*
X94818500Y-151621500D02*
X113311500Y-151621500D01*
X156690000Y-140900000D02*
X157968500Y-139621500D01*
X114590000Y-152900000D02*
X116750000Y-152900000D01*
X198790000Y-149900000D02*
X200950000Y-149900000D01*
X119590000Y-147900000D02*
X135640000Y-147900000D01*
X113311500Y-151621500D02*
X114590000Y-152900000D01*
X156690000Y-140900000D02*
X158850000Y-140900000D01*
X135640000Y-147900000D02*
X142640000Y-140900000D01*
X198790000Y-149900000D02*
X198790000Y-145790000D01*
X197000000Y-144000000D02*
X195690000Y-145310000D01*
%TO.N,GP19*%
X198184000Y-138316000D02*
X198184000Y-141000000D01*
X156650000Y-119850000D02*
X156690000Y-119850000D01*
X177740000Y-126850000D02*
X179900000Y-126850000D01*
X200000000Y-136500000D02*
X198184000Y-138316000D01*
X203058455Y-133040000D02*
X200000000Y-136098455D01*
X172350000Y-126850000D02*
X177740000Y-126850000D01*
X207600000Y-133040000D02*
X203058455Y-133040000D01*
X177740000Y-126850000D02*
X179901545Y-126850000D01*
X152000000Y-124500000D02*
X156650000Y-119850000D01*
X198184000Y-141000000D02*
X195480000Y-141000000D01*
X192000000Y-142000000D02*
X192940000Y-142000000D01*
X187138199Y-130623100D02*
X192000000Y-135484901D01*
X93540000Y-131850000D02*
X95700000Y-131850000D01*
X192940000Y-142000000D02*
X193710000Y-142770000D01*
X183674645Y-130623100D02*
X187138199Y-130623100D01*
X195480000Y-141000000D02*
X193710000Y-142770000D01*
X192000000Y-135484901D02*
X192000000Y-142000000D01*
X135640000Y-126850000D02*
X137990000Y-124500000D01*
X114590000Y-131850000D02*
X119590000Y-126850000D01*
X179901545Y-126850000D02*
X183674645Y-130623100D01*
X93540000Y-131850000D02*
X94818500Y-130571500D01*
X167980100Y-122480100D02*
X172350000Y-126850000D01*
X137990000Y-124500000D02*
X152000000Y-124500000D01*
X156690000Y-119850000D02*
X159320100Y-122480100D01*
X135640000Y-126850000D02*
X137800000Y-126850000D01*
X200000000Y-136098455D02*
X200000000Y-136500000D01*
X159320100Y-122480100D02*
X167980100Y-122480100D01*
X113311500Y-130571500D02*
X114590000Y-131850000D01*
X156690000Y-119850000D02*
X158850000Y-119850000D01*
X119590000Y-126850000D02*
X135640000Y-126850000D01*
X114590000Y-131850000D02*
X116750000Y-131850000D01*
X94818500Y-130571500D02*
X113311500Y-130571500D01*
X207600000Y-135200000D02*
X207600000Y-133040000D01*
%TO.N,GP20*%
X184698000Y-109000000D02*
X186565099Y-109000000D01*
X192083000Y-114517901D02*
X192083000Y-134930091D01*
X201373100Y-133626900D02*
X201373100Y-131126900D01*
X152990000Y-102500000D02*
X156690000Y-98800000D01*
X206674000Y-118727927D02*
X206674000Y-112916000D01*
X207600000Y-111990000D02*
X207600000Y-114150000D01*
X158390000Y-100500000D02*
X169500000Y-100500000D01*
X177740000Y-105800000D02*
X181498000Y-105800000D01*
X192500000Y-139020000D02*
X193710000Y-140230000D01*
X186565099Y-109000000D02*
X192083000Y-114517901D01*
X181498000Y-105800000D02*
X184698000Y-109000000D01*
X202000000Y-130500000D02*
X202000000Y-123401927D01*
X201373100Y-131126900D02*
X202000000Y-130500000D01*
X169500000Y-100500000D02*
X174800000Y-105800000D01*
X94818500Y-109521500D02*
X113311500Y-109521500D01*
X156690000Y-98800000D02*
X158390000Y-100500000D01*
X193710000Y-140230000D02*
X194770000Y-140230000D01*
X206674000Y-112916000D02*
X207600000Y-111990000D01*
X114590000Y-110800000D02*
X119590000Y-105800000D01*
X202000000Y-123401927D02*
X206674000Y-118727927D01*
X113311500Y-109521500D02*
X114590000Y-110800000D01*
X192500000Y-135347091D02*
X192500000Y-139020000D01*
X119590000Y-105800000D02*
X135640000Y-105800000D01*
X93540000Y-110800000D02*
X94818500Y-109521500D01*
X174800000Y-105800000D02*
X177740000Y-105800000D01*
X93540000Y-110800000D02*
X95700000Y-110800000D01*
X156690000Y-98800000D02*
X158850000Y-98800000D01*
X194770000Y-140230000D02*
X201373100Y-133626900D01*
X135640000Y-105800000D02*
X138940000Y-102500000D01*
X138940000Y-102500000D02*
X152990000Y-102500000D01*
X114590000Y-110800000D02*
X116750000Y-110800000D01*
X192083000Y-134930091D02*
X192500000Y-135347091D01*
X135640000Y-105800000D02*
X137800000Y-105800000D01*
X177740000Y-105800000D02*
X179900000Y-105800000D01*
%TO.N,GP16*%
X209000000Y-175500000D02*
X213500000Y-180000000D01*
X202500000Y-190500000D02*
X202500000Y-196233188D01*
X182270030Y-190770030D02*
X190114270Y-198614270D01*
X168606358Y-188721500D02*
X170585736Y-190700878D01*
X172113085Y-190700878D02*
X172672135Y-191259928D01*
X93540000Y-195000000D02*
X94818500Y-193721500D01*
X190114270Y-198614270D02*
X200118918Y-198614270D01*
X201646267Y-198614270D02*
X202205317Y-199173320D01*
X113311500Y-193721500D02*
X114590000Y-195000000D01*
X119590000Y-190000000D02*
X135640000Y-190000000D01*
X136918500Y-188721500D02*
X168606358Y-188721500D01*
X135640000Y-190000000D02*
X136918500Y-188721500D01*
X193710000Y-169710000D02*
X199500000Y-175500000D01*
X199500000Y-175500000D02*
X209000000Y-175500000D01*
X193710000Y-152930000D02*
X193710000Y-169710000D01*
X200118918Y-198614270D02*
X201646267Y-198614270D01*
X173162033Y-190770030D02*
X182270030Y-190770030D01*
X202500000Y-196233188D02*
X200118918Y-198614270D01*
X94818500Y-193721500D02*
X113311500Y-193721500D01*
X172672135Y-191259928D02*
X173162033Y-190770030D01*
X114590000Y-195000000D02*
X119590000Y-190000000D01*
X114590000Y-195000000D02*
X116750000Y-195000000D01*
X170585736Y-190700878D02*
X172113085Y-190700878D01*
X213500000Y-180000000D02*
X213500000Y-189500000D01*
X135640000Y-190000000D02*
X137800000Y-190000000D01*
X213500000Y-189500000D02*
X203500000Y-189500000D01*
X203500000Y-189500000D02*
X202500000Y-190500000D01*
X93540000Y-195000000D02*
X95700000Y-195000000D01*
%TO.N,GP0*%
X202300000Y-169900000D02*
X201974000Y-170226000D01*
X201974000Y-174023000D02*
X203000000Y-175049000D01*
X203000000Y-175049000D02*
X211951000Y-175049000D01*
X214500000Y-105000000D02*
X214170000Y-104670000D01*
X202300000Y-169900000D02*
X202300000Y-167600000D01*
X211951000Y-175049000D02*
X214500000Y-172500000D01*
X214500000Y-172500000D02*
X214500000Y-105000000D01*
X214170000Y-104670000D02*
X211490000Y-104670000D01*
X201974000Y-170226000D02*
X201974000Y-174023000D01*
%TO.N,GP1*%
X213710000Y-107210000D02*
X211490000Y-107210000D01*
X202544405Y-173055595D02*
X202544405Y-173955595D01*
X211764190Y-174598000D02*
X214049000Y-172313190D01*
X214049000Y-172313190D02*
X214049000Y-107549000D01*
X203726000Y-165626000D02*
X203400000Y-165300000D01*
X203400000Y-172200000D02*
X203726000Y-171874000D01*
X202544405Y-173955595D02*
X203186810Y-174598000D01*
X203726000Y-171874000D02*
X203726000Y-165626000D01*
X203186810Y-174598000D02*
X211764190Y-174598000D01*
X214049000Y-107549000D02*
X213710000Y-107210000D01*
X203400000Y-172200000D02*
X202544405Y-173055595D01*
%TO.N,GND*%
X212666000Y-110926000D02*
X212666000Y-121274000D01*
X194994000Y-116006000D02*
X193222884Y-116006000D01*
X209000000Y-163700000D02*
X209000000Y-150500000D01*
X212666000Y-123626000D02*
X212666000Y-133974000D01*
X204000000Y-113000000D02*
X207250000Y-109750000D01*
X212666000Y-146674000D02*
X211490000Y-147850000D01*
X193710000Y-109750000D02*
X193966900Y-109493100D01*
X211490000Y-148010000D02*
X211490000Y-147850000D01*
X196975000Y-151115000D02*
X201437000Y-151115000D01*
X195000000Y-111040000D02*
X193710000Y-109750000D01*
X207400000Y-172200000D02*
X207400000Y-165300000D01*
X195000000Y-116000000D02*
X194994000Y-116006000D01*
X192534000Y-114342884D02*
X193376884Y-113500000D01*
X195000000Y-116000000D02*
X198500000Y-116000000D01*
X211490000Y-109750000D02*
X212666000Y-110926000D01*
X193710000Y-147850000D02*
X196975000Y-151115000D01*
X193222884Y-116006000D02*
X192534000Y-115317116D01*
X195000000Y-113500000D02*
X195000000Y-111040000D01*
X201500000Y-113000000D02*
X204000000Y-113000000D01*
X211233100Y-109493100D02*
X211490000Y-109750000D01*
X193376884Y-113500000D02*
X195000000Y-113500000D01*
X207400000Y-165300000D02*
X209000000Y-163700000D01*
X192534000Y-115317116D02*
X192534000Y-114342884D01*
X211490000Y-122450000D02*
X212666000Y-123626000D01*
X212666000Y-136326000D02*
X212666000Y-146674000D01*
X195000000Y-133860000D02*
X195000000Y-116000000D01*
X212666000Y-121274000D02*
X211490000Y-122450000D01*
X212666000Y-133974000D02*
X211490000Y-135150000D01*
X198500000Y-116000000D02*
X201500000Y-113000000D01*
X209000000Y-150500000D02*
X211490000Y-148010000D01*
X193710000Y-135150000D02*
X195000000Y-133860000D01*
X204702000Y-147850000D02*
X211490000Y-147850000D01*
X207250000Y-109750000D02*
X211490000Y-109750000D01*
X201437000Y-151115000D02*
X204702000Y-147850000D01*
X211490000Y-135150000D02*
X212666000Y-136326000D01*
%TO.N,3V3*%
X194016000Y-115136000D02*
X193710000Y-114830000D01*
X198297065Y-115136000D02*
X194016000Y-115136000D01*
X207500000Y-108500000D02*
X203517065Y-112482935D01*
X213598000Y-169894404D02*
X213598000Y-109098000D01*
X213598000Y-109098000D02*
X213000000Y-108500000D01*
X211292404Y-172200000D02*
X213598000Y-169894404D01*
X203517065Y-112482935D02*
X200950130Y-112482935D01*
X200950130Y-112482935D02*
X198297065Y-115136000D01*
X213000000Y-108500000D02*
X207500000Y-108500000D01*
X210400000Y-172200000D02*
X210400000Y-165300000D01*
X210400000Y-172200000D02*
X211292404Y-172200000D01*
X194380000Y-115500000D02*
X193710000Y-114830000D01*
%TD*%
M02*
