%TF.GenerationSoftware,KiCad,Pcbnew,9.0.3-1.fc42*%
%TF.CreationDate,2025-08-09T15:12:39+02:00*%
%TF.ProjectId,left_traced,6c656674-5f74-4726-9163-65642e6b6963,v1.0.0*%
%TF.SameCoordinates,Original*%
%TF.FileFunction,Soldermask,Bot*%
%TF.FilePolarity,Negative*%
%FSLAX46Y46*%
G04 Gerber Fmt 4.6, Leading zero omitted, Abs format (unit mm)*
G04 Created by KiCad (PCBNEW 9.0.3-1.fc42) date 2025-08-09 15:12:39*
%MOMM*%
%LPD*%
G01*
G04 APERTURE LIST*
G04 Aperture macros list*
%AMRoundRect*
0 Rectangle with rounded corners*
0 $1 Rounding radius*
0 $2 $3 $4 $5 $6 $7 $8 $9 X,Y pos of 4 corners*
0 Add a 4 corners polygon primitive as box body*
4,1,4,$2,$3,$4,$5,$6,$7,$8,$9,$2,$3,0*
0 Add four circle primitives for the rounded corners*
1,1,$1+$1,$2,$3*
1,1,$1+$1,$4,$5*
1,1,$1+$1,$6,$7*
1,1,$1+$1,$8,$9*
0 Add four rect primitives between the rounded corners*
20,1,$1+$1,$2,$3,$4,$5,0*
20,1,$1+$1,$4,$5,$6,$7,0*
20,1,$1+$1,$6,$7,$8,$9,0*
20,1,$1+$1,$8,$9,$2,$3,0*%
G04 Aperture macros list end*
%ADD10C,1.801800*%
%ADD11C,3.100000*%
%ADD12C,4.087800*%
%ADD13RoundRect,0.050000X1.275000X1.250000X-1.275000X1.250000X-1.275000X-1.250000X1.275000X-1.250000X0*%
%ADD14RoundRect,0.050000X-0.889000X-0.889000X0.889000X-0.889000X0.889000X0.889000X-0.889000X0.889000X0*%
%ADD15RoundRect,0.050000X-0.450000X-0.600000X0.450000X-0.600000X0.450000X0.600000X-0.450000X0.600000X0*%
%ADD16C,2.005000*%
%ADD17RoundRect,0.050000X-1.088798X-0.628618X0.628618X-1.088798X1.088798X0.628618X-0.628618X1.088798X0*%
%ADD18RoundRect,0.050000X-0.589958X-0.463087X0.279375X-0.696024X0.589958X0.463087X-0.279375X0.696024X0*%
%ADD19C,4.100000*%
%ADD20C,1.600000*%
%ADD21O,2.300000X1.700000*%
%ADD22RoundRect,0.050000X-0.889000X0.889000X-0.889000X-0.889000X0.889000X-0.889000X0.889000X0.889000X0*%
%ADD23RoundRect,0.050000X-0.600000X0.450000X-0.600000X-0.450000X0.600000X-0.450000X0.600000X0.450000X0*%
%ADD24RoundRect,0.050000X1.250000X-1.275000X1.250000X1.275000X-1.250000X1.275000X-1.250000X-1.275000X0*%
%ADD25RoundRect,0.050000X1.555079X0.877413X-0.908032X1.537402X-1.555079X-0.877413X0.908032X-1.537402X0*%
%ADD26O,1.800000X1.800000*%
%ADD27RoundRect,0.050000X-0.850000X-0.850000X0.850000X-0.850000X0.850000X0.850000X-0.850000X0.850000X0*%
G04 APERTURE END LIST*
D10*
%TO.C,S24*%
X102430000Y-136850000D03*
D11*
X101160000Y-139390000D03*
D12*
X97350000Y-136850000D03*
D11*
X94810000Y-141930000D03*
D10*
X92270000Y-136850000D03*
D13*
X104435000Y-139390000D03*
X91508000Y-141930000D03*
%TD*%
D14*
%TO.C,D22*%
X93540000Y-131850000D03*
D15*
X95700000Y-131850000D03*
X99000000Y-131850000D03*
D16*
X101160000Y-131850000D03*
%TD*%
D14*
%TO.C,D8*%
X156690000Y-98800000D03*
D15*
X158850000Y-98800000D03*
X162150000Y-98800000D03*
D16*
X164310000Y-98800000D03*
%TD*%
D10*
%TO.C,S18*%
X123480000Y-157900000D03*
D11*
X122210000Y-160440000D03*
D12*
X118400000Y-157900000D03*
D11*
X115860000Y-162980000D03*
D10*
X113320000Y-157900000D03*
D13*
X125485000Y-160440000D03*
X112558000Y-162980000D03*
%TD*%
D14*
%TO.C,D18*%
X114590000Y-110800000D03*
D15*
X116750000Y-110800000D03*
X120050000Y-110800000D03*
D16*
X122210000Y-110800000D03*
%TD*%
D14*
%TO.C,D10*%
X135640000Y-168950000D03*
D15*
X137800000Y-168950000D03*
X141100000Y-168950000D03*
D16*
X143260000Y-168950000D03*
%TD*%
D17*
%TO.C,D25*%
X170585736Y-190700877D03*
D18*
X172672135Y-191259929D03*
X175859691Y-192114029D03*
D16*
X177946090Y-192673081D03*
%TD*%
D19*
%TO.C,*%
X107875000Y-189475000D03*
%TD*%
D14*
%TO.C,D12*%
X135640000Y-126850000D03*
D15*
X137800000Y-126850000D03*
X141100000Y-126850000D03*
D16*
X143260000Y-126850000D03*
%TD*%
D14*
%TO.C,D14*%
X114590000Y-195000000D03*
D15*
X116750000Y-195000000D03*
X120050000Y-195000000D03*
D16*
X122210000Y-195000000D03*
%TD*%
D10*
%TO.C,S1*%
X207680000Y-178950000D03*
D11*
X206410000Y-181490000D03*
D12*
X202600000Y-178950000D03*
D11*
X200060000Y-184030000D03*
D10*
X197520000Y-178950000D03*
D13*
X209685000Y-181490000D03*
X196758000Y-184030000D03*
%TD*%
D14*
%TO.C,D6*%
X156690000Y-140900000D03*
D15*
X158850000Y-140900000D03*
X162150000Y-140900000D03*
D16*
X164310000Y-140900000D03*
%TD*%
D14*
%TO.C,D19*%
X93540000Y-195000000D03*
D15*
X95700000Y-195000000D03*
X99000000Y-195000000D03*
D16*
X101160000Y-195000000D03*
%TD*%
D14*
%TO.C,D16*%
X114590000Y-152900000D03*
D15*
X116750000Y-152900000D03*
X120050000Y-152900000D03*
D16*
X122210000Y-152900000D03*
%TD*%
D14*
%TO.C,D20*%
X93540000Y-173950000D03*
D15*
X95700000Y-173950000D03*
X99000000Y-173950000D03*
D16*
X101160000Y-173950000D03*
%TD*%
D17*
%TO.C,D24*%
X200118918Y-198614269D03*
D18*
X202205317Y-199173321D03*
X205392873Y-200027421D03*
D16*
X207479272Y-200586473D03*
%TD*%
D10*
%TO.C,S9*%
X165580000Y-124850000D03*
D11*
X164310000Y-127390000D03*
D12*
X160500000Y-124850000D03*
D11*
X157960000Y-129930000D03*
D10*
X155420000Y-124850000D03*
D13*
X167585000Y-127390000D03*
X154658000Y-129930000D03*
%TD*%
D10*
%TO.C,S17*%
X123480000Y-178950000D03*
D11*
X122210000Y-181490000D03*
D12*
X118400000Y-178950000D03*
D11*
X115860000Y-184030000D03*
D10*
X113320000Y-178950000D03*
D13*
X125485000Y-181490000D03*
X112558000Y-184030000D03*
%TD*%
D14*
%TO.C,D29*%
X203290000Y-185950000D03*
D15*
X205450000Y-185950000D03*
X208750000Y-185950000D03*
D16*
X210910000Y-185950000D03*
%TD*%
D10*
%TO.C,S4*%
X186630000Y-152900000D03*
D11*
X185360000Y-155440000D03*
D12*
X181550000Y-152900000D03*
D11*
X179010000Y-157980000D03*
D10*
X176470000Y-152900000D03*
D13*
X188635000Y-155440000D03*
X175708000Y-157980000D03*
%TD*%
D10*
%TO.C,S3*%
X186630000Y-173950000D03*
D11*
X185360000Y-176490000D03*
D12*
X181550000Y-173950000D03*
D11*
X179010000Y-179030000D03*
D10*
X176470000Y-173950000D03*
D13*
X188635000Y-176490000D03*
X175708000Y-179030000D03*
%TD*%
D14*
%TO.C,D21*%
X93540000Y-152900000D03*
D15*
X95700000Y-152900000D03*
X99000000Y-152900000D03*
D16*
X101160000Y-152900000D03*
%TD*%
D20*
%TO.C,TRRS1*%
X212000000Y-167600000D03*
X205000000Y-167600000D03*
X212000000Y-169900000D03*
X205000000Y-169900000D03*
D21*
X202300000Y-167600000D03*
X202300000Y-169900000D03*
X203400000Y-165300000D03*
X203400000Y-172200000D03*
X207400000Y-165300000D03*
X207400000Y-172200000D03*
X210400000Y-165300000D03*
X210400000Y-172200000D03*
%TD*%
D14*
%TO.C,D28*%
X198790000Y-149900000D03*
D15*
X200950000Y-149900000D03*
X204250000Y-149900000D03*
D16*
X206410000Y-149900000D03*
%TD*%
D14*
%TO.C,D3*%
X177740000Y-126850000D03*
D15*
X179900000Y-126850000D03*
X183200000Y-126850000D03*
D16*
X185360000Y-126850000D03*
%TD*%
D10*
%TO.C,S15*%
X144530000Y-110800000D03*
D11*
X143260000Y-113340000D03*
D12*
X139450000Y-110800000D03*
D11*
X136910000Y-115880000D03*
D10*
X134370000Y-110800000D03*
D13*
X146535000Y-113340000D03*
X133608000Y-115880000D03*
%TD*%
D10*
%TO.C,S11*%
X144530000Y-195000000D03*
D11*
X143260000Y-197540000D03*
D12*
X139450000Y-195000000D03*
D11*
X136910000Y-200080000D03*
D10*
X134370000Y-195000000D03*
D13*
X146535000Y-197540000D03*
X133608000Y-200080000D03*
%TD*%
D14*
%TO.C,D11*%
X135640000Y-147900000D03*
D15*
X137800000Y-147900000D03*
X141100000Y-147900000D03*
D16*
X143260000Y-147900000D03*
%TD*%
D10*
%TO.C,S22*%
X102430000Y-178950000D03*
D11*
X101160000Y-181490000D03*
D12*
X97350000Y-178950000D03*
D11*
X94810000Y-184030000D03*
D10*
X92270000Y-178950000D03*
D13*
X104435000Y-181490000D03*
X91508000Y-184030000D03*
%TD*%
D22*
%TO.C,D26*%
X207600000Y-133040000D03*
D23*
X207600000Y-135200000D03*
X207600000Y-138500000D03*
D16*
X207600000Y-140660000D03*
%TD*%
D14*
%TO.C,D15*%
X114590000Y-173950000D03*
D15*
X116750000Y-173950000D03*
X120050000Y-173950000D03*
D16*
X122210000Y-173950000D03*
%TD*%
D10*
%TO.C,S12*%
X144530000Y-173950000D03*
D11*
X143260000Y-176490000D03*
D12*
X139450000Y-173950000D03*
D11*
X136910000Y-179030000D03*
D10*
X134370000Y-173950000D03*
D13*
X146535000Y-176490000D03*
X133608000Y-179030000D03*
%TD*%
D19*
%TO.C,*%
X192075000Y-189475000D03*
%TD*%
D14*
%TO.C,D13*%
X135640000Y-105800000D03*
D15*
X137800000Y-105800000D03*
X141100000Y-105800000D03*
D16*
X143260000Y-105800000D03*
%TD*%
D10*
%TO.C,S29*%
X202600000Y-120880000D03*
D11*
X200060000Y-119610000D03*
D12*
X202600000Y-115800000D03*
D11*
X197520000Y-113260000D03*
D10*
X202600000Y-110720000D03*
D24*
X200060000Y-122885000D03*
X197520000Y-109958000D03*
%TD*%
D10*
%TO.C,S21*%
X102430000Y-200000000D03*
D11*
X101160000Y-202540000D03*
D12*
X97350000Y-200000000D03*
D11*
X94810000Y-205080000D03*
D10*
X92270000Y-200000000D03*
D13*
X104435000Y-202540000D03*
X91508000Y-205080000D03*
%TD*%
D10*
%TO.C,S14*%
X144530000Y-131850000D03*
D11*
X143260000Y-134390000D03*
D12*
X139450000Y-131850000D03*
D11*
X136910000Y-136930000D03*
D10*
X134370000Y-131850000D03*
D13*
X146535000Y-134390000D03*
X133608000Y-136930000D03*
%TD*%
D10*
%TO.C,S16*%
X123480000Y-200000000D03*
D11*
X122210000Y-202540000D03*
D12*
X118400000Y-200000000D03*
D11*
X115860000Y-205080000D03*
D10*
X113320000Y-200000000D03*
D13*
X125485000Y-202540000D03*
X112558000Y-205080000D03*
%TD*%
D10*
%TO.C,S25*%
X102430000Y-115800000D03*
D11*
X101160000Y-118340000D03*
D12*
X97350000Y-115800000D03*
D11*
X94810000Y-120880000D03*
D10*
X92270000Y-115800000D03*
D13*
X104435000Y-118340000D03*
X91508000Y-120880000D03*
%TD*%
D10*
%TO.C,S8*%
X165580000Y-145900000D03*
D11*
X164310000Y-148440000D03*
D12*
X160500000Y-145900000D03*
D11*
X157960000Y-150980000D03*
D10*
X155420000Y-145900000D03*
D13*
X167585000Y-148440000D03*
X154658000Y-150980000D03*
%TD*%
D14*
%TO.C,D9*%
X135640000Y-190000000D03*
D15*
X137800000Y-190000000D03*
X141100000Y-190000000D03*
D16*
X143260000Y-190000000D03*
%TD*%
D14*
%TO.C,D17*%
X114590000Y-131850000D03*
D15*
X116750000Y-131850000D03*
X120050000Y-131850000D03*
D16*
X122210000Y-131850000D03*
%TD*%
D10*
%TO.C,S2*%
X207680000Y-157900000D03*
D11*
X206410000Y-160440000D03*
D12*
X202600000Y-157900000D03*
D11*
X200060000Y-162980000D03*
D10*
X197520000Y-157900000D03*
D13*
X209685000Y-160440000D03*
X196758000Y-162980000D03*
%TD*%
D14*
%TO.C,D2*%
X177740000Y-147900000D03*
D15*
X179900000Y-147900000D03*
X183200000Y-147900000D03*
D16*
X185360000Y-147900000D03*
%TD*%
D10*
%TO.C,S5*%
X186630000Y-131850000D03*
D11*
X185360000Y-134390000D03*
D12*
X181550000Y-131850000D03*
D11*
X179010000Y-136930000D03*
D10*
X176470000Y-131850000D03*
D13*
X188635000Y-134390000D03*
X175708000Y-136930000D03*
%TD*%
D10*
%TO.C,S27*%
X177878721Y-197831409D03*
D11*
X175994595Y-199956160D03*
D12*
X172971818Y-196516608D03*
D11*
X169203566Y-200766111D03*
D10*
X168064915Y-195201807D03*
D25*
X179158002Y-200803793D03*
X166014079Y-199911490D03*
%TD*%
D19*
%TO.C,*%
X150000000Y-163500000D03*
%TD*%
D10*
%TO.C,S23*%
X102430000Y-157900000D03*
D11*
X101160000Y-160440000D03*
D12*
X97350000Y-157900000D03*
D11*
X94810000Y-162980000D03*
D10*
X92270000Y-157900000D03*
D13*
X104435000Y-160440000D03*
X91508000Y-162980000D03*
%TD*%
D14*
%TO.C,D4*%
X177740000Y-105800000D03*
D15*
X179900000Y-105800000D03*
X183200000Y-105800000D03*
D16*
X185360000Y-105800000D03*
%TD*%
D10*
%TO.C,S19*%
X123480000Y-136850000D03*
D11*
X122210000Y-139390000D03*
D12*
X118400000Y-136850000D03*
D11*
X115860000Y-141930000D03*
D10*
X113320000Y-136850000D03*
D13*
X125485000Y-139390000D03*
X112558000Y-141930000D03*
%TD*%
D26*
%TO.C,_1*%
X211490000Y-104670000D03*
X211490000Y-107210000D03*
D27*
X211490000Y-109750000D03*
D26*
X211490000Y-112290000D03*
X211490000Y-114830000D03*
X211490000Y-117370000D03*
X211490000Y-119910000D03*
D27*
X211490000Y-122450000D03*
D26*
X211490000Y-124990000D03*
X211490000Y-127530000D03*
X211490000Y-130070000D03*
X211490000Y-132610000D03*
D27*
X211490000Y-135150000D03*
D26*
X211490000Y-137690000D03*
X211490000Y-140230000D03*
X211490000Y-142770000D03*
X211490000Y-145310000D03*
D27*
X211490000Y-147850000D03*
D26*
X211490000Y-150390000D03*
X211490000Y-152930000D03*
X193710000Y-152930000D03*
X193710000Y-150390000D03*
D27*
X193710000Y-147850000D03*
D26*
X193710000Y-145310000D03*
X193710000Y-142770000D03*
X193710000Y-140230000D03*
X193710000Y-137690000D03*
D27*
X193710000Y-135150000D03*
D26*
X193710000Y-132610000D03*
X193710000Y-130070000D03*
X193710000Y-127530000D03*
X193710000Y-124990000D03*
D27*
X193710000Y-122450000D03*
D26*
X193710000Y-119910000D03*
X193710000Y-117370000D03*
X193710000Y-114830000D03*
X193710000Y-112290000D03*
D27*
X193710000Y-109750000D03*
D26*
X193710000Y-107210000D03*
X193710000Y-104670000D03*
%TD*%
D22*
%TO.C,D27*%
X207600000Y-111990000D03*
D23*
X207600000Y-114150000D03*
X207600000Y-117450000D03*
D16*
X207600000Y-119610000D03*
%TD*%
D10*
%TO.C,S6*%
X186630000Y-110800000D03*
D11*
X185360000Y-113340000D03*
D12*
X181550000Y-110800000D03*
D11*
X179010000Y-115880000D03*
D10*
X176470000Y-110800000D03*
D13*
X188635000Y-113340000D03*
X175708000Y-115880000D03*
%TD*%
D14*
%TO.C,D7*%
X156690000Y-119850000D03*
D15*
X158850000Y-119850000D03*
X162150000Y-119850000D03*
D16*
X164310000Y-119850000D03*
%TD*%
D10*
%TO.C,S28*%
X202600000Y-141930000D03*
D11*
X200060000Y-140660000D03*
D12*
X202600000Y-136850000D03*
D11*
X197520000Y-134310000D03*
D10*
X202600000Y-131770000D03*
D24*
X200060000Y-143935000D03*
X197520000Y-131008000D03*
%TD*%
D19*
%TO.C,*%
X107875000Y-126325000D03*
%TD*%
D10*
%TO.C,S10*%
X165580000Y-103800000D03*
D11*
X164310000Y-106340000D03*
D12*
X160500000Y-103800000D03*
D11*
X157960000Y-108880000D03*
D10*
X155420000Y-103800000D03*
D13*
X167585000Y-106340000D03*
X154658000Y-108880000D03*
%TD*%
D10*
%TO.C,S20*%
X123480000Y-115800000D03*
D11*
X122210000Y-118340000D03*
D12*
X118400000Y-115800000D03*
D11*
X115860000Y-120880000D03*
D10*
X113320000Y-115800000D03*
D13*
X125485000Y-118340000D03*
X112558000Y-120880000D03*
%TD*%
D14*
%TO.C,D5*%
X156690000Y-161950000D03*
D15*
X158850000Y-161950000D03*
X162150000Y-161950000D03*
D16*
X164310000Y-161950000D03*
%TD*%
D10*
%TO.C,S13*%
X144530000Y-152900000D03*
D11*
X143260000Y-155440000D03*
D12*
X139450000Y-152900000D03*
D11*
X136910000Y-157980000D03*
D10*
X134370000Y-152900000D03*
D13*
X146535000Y-155440000D03*
X133608000Y-157980000D03*
%TD*%
D10*
%TO.C,S7*%
X165580000Y-166950000D03*
D11*
X164310000Y-169490000D03*
D12*
X160500000Y-166950000D03*
D11*
X157960000Y-172030000D03*
D10*
X155420000Y-166950000D03*
D13*
X167585000Y-169490000D03*
X154658000Y-172030000D03*
%TD*%
D14*
%TO.C,D23*%
X93540000Y-110800000D03*
D15*
X95700000Y-110800000D03*
X99000000Y-110800000D03*
D16*
X101160000Y-110800000D03*
%TD*%
D14*
%TO.C,D1*%
X177740000Y-168950000D03*
D15*
X179900000Y-168950000D03*
X183200000Y-168950000D03*
D16*
X185360000Y-168950000D03*
%TD*%
D19*
%TO.C,*%
X171025000Y-121325000D03*
%TD*%
D10*
%TO.C,S26*%
X207411903Y-205744801D03*
D11*
X205527777Y-207869552D03*
D12*
X202505000Y-204430000D03*
D11*
X198736748Y-208679503D03*
D10*
X197598097Y-203115199D03*
D25*
X208691184Y-208717185D03*
X195547261Y-207824882D03*
%TD*%
M02*
