M48
; DRILL file {KiCad 9.0.3-1.fc42} date 2025-08-09T15:12:36+0200
; FORMAT={-:-/ absolute / metric / decimal}
; #@! TF.CreationDate,2025-08-09T15:12:36+02:00
; #@! TF.GenerationSoftware,Kicad,Pcbnew,9.0.3-1.fc42
; #@! TF.FileFunction,Plated,1,2,PTH
FMAT,2
METRIC
; #@! TA.AperFunction,Plated,PTH,ComponentDrill
T1C0.900
; #@! TA.AperFunction,Plated,PTH,ComponentDrill
T2C0.991
; #@! TA.AperFunction,Plated,PTH,ComponentDrill
T3C1.020
%
G90
G05
T2
X93.54Y-110.8
X93.54Y-131.85
X93.54Y-152.9
X93.54Y-173.95
X93.54Y-195.0
X101.16Y-110.8
X101.16Y-131.85
X101.16Y-152.9
X101.16Y-173.95
X101.16Y-195.0
X114.59Y-110.8
X114.59Y-131.85
X114.59Y-152.9
X114.59Y-173.95
X114.59Y-195.0
X122.21Y-110.8
X122.21Y-131.85
X122.21Y-152.9
X122.21Y-173.95
X122.21Y-195.0
X135.64Y-105.8
X135.64Y-126.85
X135.64Y-147.9
X135.64Y-168.95
X135.64Y-190.0
X143.26Y-105.8
X143.26Y-126.85
X143.26Y-147.9
X143.26Y-168.95
X143.26Y-190.0
X156.69Y-98.8
X156.69Y-119.85
X156.69Y-140.9
X156.69Y-161.95
X164.31Y-98.8
X164.31Y-119.85
X164.31Y-140.9
X164.31Y-161.95
X170.586Y-190.701
X177.74Y-105.8
X177.74Y-126.85
X177.74Y-147.9
X177.74Y-168.95
X177.946Y-192.673
X185.36Y-105.8
X185.36Y-126.85
X185.36Y-147.9
X185.36Y-168.95
X198.79Y-149.9
X200.119Y-198.614
X203.29Y-185.95
X206.41Y-149.9
X207.479Y-200.586
X207.6Y-111.99
X207.6Y-119.61
X207.6Y-133.04
X207.6Y-140.66
X210.91Y-185.95
T3
X193.71Y-104.67
X193.71Y-107.21
X193.71Y-109.75
X193.71Y-112.29
X193.71Y-114.83
X193.71Y-117.37
X193.71Y-119.91
X193.71Y-122.45
X193.71Y-124.99
X193.71Y-127.53
X193.71Y-130.07
X193.71Y-132.61
X193.71Y-135.15
X193.71Y-137.69
X193.71Y-140.23
X193.71Y-142.77
X193.71Y-145.31
X193.71Y-147.85
X193.71Y-150.39
X193.71Y-152.93
X211.49Y-104.67
X211.49Y-107.21
X211.49Y-109.75
X211.49Y-112.29
X211.49Y-114.83
X211.49Y-117.37
X211.49Y-119.91
X211.49Y-122.45
X211.49Y-124.99
X211.49Y-127.53
X211.49Y-130.07
X211.49Y-132.61
X211.49Y-135.15
X211.49Y-137.69
X211.49Y-140.23
X211.49Y-142.77
X211.49Y-145.31
X211.49Y-147.85
X211.49Y-150.39
X211.49Y-152.93
T1
G00X202.6Y-167.6
M15
G01X202.0Y-167.6
M16
G05
G00X202.6Y-169.9
M15
G01X202.0Y-169.9
M16
G05
G00X203.7Y-165.3
M15
G01X203.1Y-165.3
M16
G05
G00X203.7Y-172.2
M15
G01X203.1Y-172.2
M16
G05
G00X207.7Y-165.3
M15
G01X207.1Y-165.3
M16
G05
G00X207.7Y-172.2
M15
G01X207.1Y-172.2
M16
G05
G00X210.7Y-165.3
M15
G01X210.1Y-165.3
M16
G05
G00X210.7Y-172.2
M15
G01X210.1Y-172.2
M16
G05
M30
