%TF.GenerationSoftware,KiCad,Pcbnew,9.0.3-1.fc42*%
%TF.CreationDate,2025-08-09T15:11:44+02:00*%
%TF.ProjectId,right_traced,72696768-745f-4747-9261-6365642e6b69,v1.0.0*%
%TF.SameCoordinates,Original*%
%TF.FileFunction,Soldermask,Bot*%
%TF.FilePolarity,Negative*%
%FSLAX46Y46*%
G04 Gerber Fmt 4.6, Leading zero omitted, Abs format (unit mm)*
G04 Created by KiCad (PCBNEW 9.0.3-1.fc42) date 2025-08-09 15:11:44*
%MOMM*%
%LPD*%
G01*
G04 APERTURE LIST*
G04 Aperture macros list*
%AMRoundRect*
0 Rectangle with rounded corners*
0 $1 Rounding radius*
0 $2 $3 $4 $5 $6 $7 $8 $9 X,Y pos of 4 corners*
0 Add a 4 corners polygon primitive as box body*
4,1,4,$2,$3,$4,$5,$6,$7,$8,$9,$2,$3,0*
0 Add four circle primitives for the rounded corners*
1,1,$1+$1,$2,$3*
1,1,$1+$1,$4,$5*
1,1,$1+$1,$6,$7*
1,1,$1+$1,$8,$9*
0 Add four rect primitives between the rounded corners*
20,1,$1+$1,$2,$3,$4,$5,0*
20,1,$1+$1,$4,$5,$6,$7,0*
20,1,$1+$1,$6,$7,$8,$9,0*
20,1,$1+$1,$8,$9,$2,$3,0*%
G04 Aperture macros list end*
%ADD10C,1.801800*%
%ADD11C,3.100000*%
%ADD12C,4.087800*%
%ADD13RoundRect,0.050000X1.275000X1.250000X-1.275000X1.250000X-1.275000X-1.250000X1.275000X-1.250000X0*%
%ADD14RoundRect,0.050000X-0.889000X-0.889000X0.889000X-0.889000X0.889000X0.889000X-0.889000X0.889000X0*%
%ADD15RoundRect,0.050000X-0.450000X-0.600000X0.450000X-0.600000X0.450000X0.600000X-0.450000X0.600000X0*%
%ADD16C,2.005000*%
%ADD17RoundRect,0.050000X-0.628618X-1.088798X1.088798X-0.628618X0.628618X1.088798X-1.088798X0.628618X0*%
%ADD18RoundRect,0.050000X-0.279375X-0.696024X0.589958X-0.463087X0.279375X0.696024X-0.589958X0.463087X0*%
%ADD19RoundRect,0.050000X0.908032X1.537402X-1.555079X0.877413X-0.908032X-1.537402X1.555079X-0.877413X0*%
%ADD20C,1.600000*%
%ADD21O,2.300000X1.700000*%
%ADD22RoundRect,0.050000X0.889000X-0.889000X0.889000X0.889000X-0.889000X0.889000X-0.889000X-0.889000X0*%
%ADD23RoundRect,0.050000X0.600000X-0.450000X0.600000X0.450000X-0.600000X0.450000X-0.600000X-0.450000X0*%
%ADD24C,4.100000*%
%ADD25RoundRect,0.050000X-1.250000X1.275000X-1.250000X-1.275000X1.250000X-1.275000X1.250000X1.275000X0*%
%ADD26O,1.800000X1.800000*%
%ADD27RoundRect,0.050000X-0.850000X-0.850000X0.850000X-0.850000X0.850000X0.850000X-0.850000X0.850000X0*%
G04 APERTURE END LIST*
D10*
%TO.C,S18*%
X339280000Y-157900000D03*
D11*
X338010000Y-160440000D03*
D12*
X334200000Y-157900000D03*
D11*
X331660000Y-162980000D03*
D10*
X329120000Y-157900000D03*
D13*
X341285000Y-160440000D03*
X328358000Y-162980000D03*
%TD*%
D14*
%TO.C,D26*%
X372490000Y-152900000D03*
D15*
X374650000Y-152900000D03*
X377950000Y-152900000D03*
D16*
X380110000Y-152900000D03*
%TD*%
D10*
%TO.C,S27*%
X381380000Y-178950000D03*
D11*
X380110000Y-181490000D03*
D12*
X376300000Y-178950000D03*
D11*
X373760000Y-184030000D03*
D10*
X371220000Y-178950000D03*
D13*
X383385000Y-181490000D03*
X370458000Y-184030000D03*
%TD*%
D14*
%TO.C,D27*%
X372490000Y-131850000D03*
D15*
X374650000Y-131850000D03*
X377950000Y-131850000D03*
D16*
X380110000Y-131850000D03*
%TD*%
D17*
%TO.C,D29*%
X245120728Y-200586473D03*
D18*
X247207127Y-200027421D03*
X250394683Y-199173321D03*
D16*
X252481082Y-198614269D03*
%TD*%
D14*
%TO.C,D23*%
X351440000Y-110800000D03*
D15*
X353600000Y-110800000D03*
X356900000Y-110800000D03*
D16*
X359060000Y-110800000D03*
%TD*%
D14*
%TO.C,D4*%
X267240000Y-105800000D03*
D15*
X269400000Y-105800000D03*
X272700000Y-105800000D03*
D16*
X274860000Y-105800000D03*
%TD*%
D10*
%TO.C,S31*%
X255001903Y-203115199D03*
D11*
X254432578Y-205897351D03*
D12*
X250095000Y-204430000D03*
D11*
X248956349Y-209994304D03*
D10*
X245188097Y-205744801D03*
D19*
X257595985Y-205049719D03*
X245766862Y-210848924D03*
%TD*%
D14*
%TO.C,D1*%
X267240000Y-168950000D03*
D15*
X269400000Y-168950000D03*
X272700000Y-168950000D03*
D16*
X274860000Y-168950000D03*
%TD*%
D14*
%TO.C,D19*%
X351440000Y-195000000D03*
D15*
X353600000Y-195000000D03*
X356900000Y-195000000D03*
D16*
X359060000Y-195000000D03*
%TD*%
D10*
%TO.C,S24*%
X360330000Y-136850000D03*
D11*
X359060000Y-139390000D03*
D12*
X355250000Y-136850000D03*
D11*
X352710000Y-141930000D03*
D10*
X350170000Y-136850000D03*
D13*
X362335000Y-139390000D03*
X349408000Y-141930000D03*
%TD*%
D10*
%TO.C,S2*%
X255080000Y-157900000D03*
D11*
X253810000Y-160440000D03*
D12*
X250000000Y-157900000D03*
D11*
X247460000Y-162980000D03*
D10*
X244920000Y-157900000D03*
D13*
X257085000Y-160440000D03*
X244158000Y-162980000D03*
%TD*%
D10*
%TO.C,S1*%
X255080000Y-178950000D03*
D11*
X253810000Y-181490000D03*
D12*
X250000000Y-178950000D03*
D11*
X247460000Y-184030000D03*
D10*
X244920000Y-178950000D03*
D13*
X257085000Y-181490000D03*
X244158000Y-184030000D03*
%TD*%
D10*
%TO.C,S17*%
X339280000Y-178950000D03*
D11*
X338010000Y-181490000D03*
D12*
X334200000Y-178950000D03*
D11*
X331660000Y-184030000D03*
D10*
X329120000Y-178950000D03*
D13*
X341285000Y-181490000D03*
X328358000Y-184030000D03*
%TD*%
D10*
%TO.C,S25*%
X360330000Y-115800000D03*
D11*
X359060000Y-118340000D03*
D12*
X355250000Y-115800000D03*
D11*
X352710000Y-120880000D03*
D10*
X350170000Y-115800000D03*
D13*
X362335000Y-118340000D03*
X349408000Y-120880000D03*
%TD*%
D20*
%TO.C,TRRS1*%
X240600000Y-172200000D03*
X247600000Y-172200000D03*
X240600000Y-169900000D03*
X247600000Y-169900000D03*
D21*
X250300000Y-172200000D03*
X250300000Y-169900000D03*
X249200000Y-174500000D03*
X249200000Y-167600000D03*
X245200000Y-174500000D03*
X245200000Y-167600000D03*
X242200000Y-174500000D03*
X242200000Y-167600000D03*
%TD*%
D10*
%TO.C,S32*%
X284535085Y-195201807D03*
D11*
X283965760Y-197983959D03*
D12*
X279628182Y-196516608D03*
D11*
X278489531Y-202080912D03*
D10*
X274721279Y-197831409D03*
D19*
X287129167Y-197136327D03*
X275300044Y-202935532D03*
%TD*%
D10*
%TO.C,S12*%
X318230000Y-173950000D03*
D11*
X316960000Y-176490000D03*
D12*
X313150000Y-173950000D03*
D11*
X310610000Y-179030000D03*
D10*
X308070000Y-173950000D03*
D13*
X320235000Y-176490000D03*
X307308000Y-179030000D03*
%TD*%
D10*
%TO.C,S9*%
X297180000Y-124850000D03*
D11*
X295910000Y-127390000D03*
D12*
X292100000Y-124850000D03*
D11*
X289560000Y-129930000D03*
D10*
X287020000Y-124850000D03*
D13*
X299185000Y-127390000D03*
X286258000Y-129930000D03*
%TD*%
D14*
%TO.C,D11*%
X309340000Y-147900000D03*
D15*
X311500000Y-147900000D03*
X314800000Y-147900000D03*
D16*
X316960000Y-147900000D03*
%TD*%
D22*
%TO.C,D32*%
X245000000Y-119610000D03*
D23*
X245000000Y-117450000D03*
X245000000Y-114150000D03*
D16*
X245000000Y-111990000D03*
%TD*%
D10*
%TO.C,S8*%
X297180000Y-145900000D03*
D11*
X295910000Y-148440000D03*
D12*
X292100000Y-145900000D03*
D11*
X289560000Y-150980000D03*
D10*
X287020000Y-145900000D03*
D13*
X299185000Y-148440000D03*
X286258000Y-150980000D03*
%TD*%
D14*
%TO.C,D5*%
X288290000Y-161950000D03*
D15*
X290450000Y-161950000D03*
X293750000Y-161950000D03*
D16*
X295910000Y-161950000D03*
%TD*%
D14*
%TO.C,D8*%
X288290000Y-98800000D03*
D15*
X290450000Y-98800000D03*
X293750000Y-98800000D03*
D16*
X295910000Y-98800000D03*
%TD*%
D14*
%TO.C,D28*%
X372490000Y-110800000D03*
D15*
X374650000Y-110800000D03*
X377950000Y-110800000D03*
D16*
X380110000Y-110800000D03*
%TD*%
D24*
%TO.C,*%
X365775000Y-126325000D03*
%TD*%
D14*
%TO.C,D13*%
X309340000Y-105800000D03*
D15*
X311500000Y-105800000D03*
X314800000Y-105800000D03*
D16*
X316960000Y-105800000D03*
%TD*%
D10*
%TO.C,S28*%
X381380000Y-157900000D03*
D11*
X380110000Y-160440000D03*
D12*
X376300000Y-157900000D03*
D11*
X373760000Y-162980000D03*
D10*
X371220000Y-157900000D03*
D13*
X383385000Y-160440000D03*
X370458000Y-162980000D03*
%TD*%
D14*
%TO.C,D3*%
X267240000Y-126850000D03*
D15*
X269400000Y-126850000D03*
X272700000Y-126850000D03*
D16*
X274860000Y-126850000D03*
%TD*%
D10*
%TO.C,S19*%
X339280000Y-136850000D03*
D11*
X338010000Y-139390000D03*
D12*
X334200000Y-136850000D03*
D11*
X331660000Y-141930000D03*
D10*
X329120000Y-136850000D03*
D13*
X341285000Y-139390000D03*
X328358000Y-141930000D03*
%TD*%
D10*
%TO.C,S6*%
X276130000Y-110800000D03*
D11*
X274860000Y-113340000D03*
D12*
X271050000Y-110800000D03*
D11*
X268510000Y-115880000D03*
D10*
X265970000Y-110800000D03*
D13*
X278135000Y-113340000D03*
X265208000Y-115880000D03*
%TD*%
D14*
%TO.C,D18*%
X330390000Y-110800000D03*
D15*
X332550000Y-110800000D03*
X335850000Y-110800000D03*
D16*
X338010000Y-110800000D03*
%TD*%
D14*
%TO.C,D7*%
X288290000Y-119850000D03*
D15*
X290450000Y-119850000D03*
X293750000Y-119850000D03*
D16*
X295910000Y-119850000D03*
%TD*%
D24*
%TO.C,*%
X260525000Y-189475000D03*
%TD*%
D10*
%TO.C,S20*%
X339280000Y-115800000D03*
D11*
X338010000Y-118340000D03*
D12*
X334200000Y-115800000D03*
D11*
X331660000Y-120880000D03*
D10*
X329120000Y-115800000D03*
D13*
X341285000Y-118340000D03*
X328358000Y-120880000D03*
%TD*%
D24*
%TO.C,*%
X302625000Y-163500000D03*
%TD*%
D14*
%TO.C,D21*%
X351440000Y-152900000D03*
D15*
X353600000Y-152900000D03*
X356900000Y-152900000D03*
D16*
X359060000Y-152900000D03*
%TD*%
D10*
%TO.C,S14*%
X318230000Y-131850000D03*
D11*
X316960000Y-134390000D03*
D12*
X313150000Y-131850000D03*
D11*
X310610000Y-136930000D03*
D10*
X308070000Y-131850000D03*
D13*
X320235000Y-134390000D03*
X307308000Y-136930000D03*
%TD*%
D14*
%TO.C,D9*%
X309340000Y-190000000D03*
D15*
X311500000Y-190000000D03*
X314800000Y-190000000D03*
D16*
X316960000Y-190000000D03*
%TD*%
D10*
%TO.C,S34*%
X250000000Y-110720000D03*
D11*
X252540000Y-111990000D03*
D12*
X250000000Y-115800000D03*
D11*
X255080000Y-118340000D03*
D10*
X250000000Y-120880000D03*
D25*
X252540000Y-108715000D03*
X255080000Y-121642000D03*
%TD*%
D14*
%TO.C,D16*%
X330390000Y-152900000D03*
D15*
X332550000Y-152900000D03*
X335850000Y-152900000D03*
D16*
X338010000Y-152900000D03*
%TD*%
D26*
%TO.C,_1*%
X258890000Y-104670000D03*
X258890000Y-107210000D03*
D27*
X258890000Y-109750000D03*
D26*
X258890000Y-112290000D03*
X258890000Y-114830000D03*
X258890000Y-117370000D03*
X258890000Y-119910000D03*
D27*
X258890000Y-122450000D03*
D26*
X258890000Y-124990000D03*
X258890000Y-127530000D03*
X258890000Y-130070000D03*
X258890000Y-132610000D03*
D27*
X258890000Y-135150000D03*
D26*
X258890000Y-137690000D03*
X258890000Y-140230000D03*
X258890000Y-142770000D03*
X258890000Y-145310000D03*
D27*
X258890000Y-147850000D03*
D26*
X258890000Y-150390000D03*
X258890000Y-152930000D03*
X241110000Y-152930000D03*
X241110000Y-150390000D03*
D27*
X241110000Y-147850000D03*
D26*
X241110000Y-145310000D03*
X241110000Y-142770000D03*
X241110000Y-140230000D03*
X241110000Y-137690000D03*
D27*
X241110000Y-135150000D03*
D26*
X241110000Y-132610000D03*
X241110000Y-130070000D03*
X241110000Y-127530000D03*
X241110000Y-124990000D03*
D27*
X241110000Y-122450000D03*
D26*
X241110000Y-119910000D03*
X241110000Y-117370000D03*
X241110000Y-114830000D03*
X241110000Y-112290000D03*
D27*
X241110000Y-109750000D03*
D26*
X241110000Y-107210000D03*
X241110000Y-104670000D03*
%TD*%
D14*
%TO.C,D25*%
X372490000Y-173950000D03*
D15*
X374650000Y-173950000D03*
X377950000Y-173950000D03*
D16*
X380110000Y-173950000D03*
%TD*%
D22*
%TO.C,D31*%
X245000000Y-140660000D03*
D23*
X245000000Y-138500000D03*
X245000000Y-135200000D03*
D16*
X245000000Y-133040000D03*
%TD*%
D10*
%TO.C,S16*%
X339280000Y-200000000D03*
D11*
X338010000Y-202540000D03*
D12*
X334200000Y-200000000D03*
D11*
X331660000Y-205080000D03*
D10*
X329120000Y-200000000D03*
D13*
X341285000Y-202540000D03*
X328358000Y-205080000D03*
%TD*%
D14*
%TO.C,D15*%
X330390000Y-173950000D03*
D15*
X332550000Y-173950000D03*
X335850000Y-173950000D03*
D16*
X338010000Y-173950000D03*
%TD*%
D10*
%TO.C,S21*%
X360330000Y-200000000D03*
D11*
X359060000Y-202540000D03*
D12*
X355250000Y-200000000D03*
D11*
X352710000Y-205080000D03*
D10*
X350170000Y-200000000D03*
D13*
X362335000Y-202540000D03*
X349408000Y-205080000D03*
%TD*%
D10*
%TO.C,S5*%
X276130000Y-131850000D03*
D11*
X274860000Y-134390000D03*
D12*
X271050000Y-131850000D03*
D11*
X268510000Y-136930000D03*
D10*
X265970000Y-131850000D03*
D13*
X278135000Y-134390000D03*
X265208000Y-136930000D03*
%TD*%
D14*
%TO.C,D10*%
X309340000Y-168950000D03*
D15*
X311500000Y-168950000D03*
X314800000Y-168950000D03*
D16*
X316960000Y-168950000D03*
%TD*%
D14*
%TO.C,D12*%
X309340000Y-126850000D03*
D15*
X311500000Y-126850000D03*
X314800000Y-126850000D03*
D16*
X316960000Y-126850000D03*
%TD*%
D10*
%TO.C,S26*%
X381380000Y-200000000D03*
D11*
X380110000Y-202540000D03*
D12*
X376300000Y-200000000D03*
D11*
X373760000Y-205080000D03*
D10*
X371220000Y-200000000D03*
D13*
X383385000Y-202540000D03*
X370458000Y-205080000D03*
%TD*%
D10*
%TO.C,S7*%
X297180000Y-166950000D03*
D11*
X295910000Y-169490000D03*
D12*
X292100000Y-166950000D03*
D11*
X289560000Y-172030000D03*
D10*
X287020000Y-166950000D03*
D13*
X299185000Y-169490000D03*
X286258000Y-172030000D03*
%TD*%
D10*
%TO.C,S23*%
X360330000Y-157900000D03*
D11*
X359060000Y-160440000D03*
D12*
X355250000Y-157900000D03*
D11*
X352710000Y-162980000D03*
D10*
X350170000Y-157900000D03*
D13*
X362335000Y-160440000D03*
X349408000Y-162980000D03*
%TD*%
D14*
%TO.C,D33*%
X246190000Y-149900000D03*
D15*
X248350000Y-149900000D03*
X251650000Y-149900000D03*
D16*
X253810000Y-149900000D03*
%TD*%
D10*
%TO.C,S30*%
X381380000Y-115800000D03*
D11*
X380110000Y-118340000D03*
D12*
X376300000Y-115800000D03*
D11*
X373760000Y-120880000D03*
D10*
X371220000Y-115800000D03*
D13*
X383385000Y-118340000D03*
X370458000Y-120880000D03*
%TD*%
D10*
%TO.C,S29*%
X381380000Y-136850000D03*
D11*
X380110000Y-139390000D03*
D12*
X376300000Y-136850000D03*
D11*
X373760000Y-141930000D03*
D10*
X371220000Y-136850000D03*
D13*
X383385000Y-139390000D03*
X370458000Y-141930000D03*
%TD*%
D14*
%TO.C,D34*%
X250690000Y-185950000D03*
D15*
X252850000Y-185950000D03*
X256150000Y-185950000D03*
D16*
X258310000Y-185950000D03*
%TD*%
D10*
%TO.C,S10*%
X297180000Y-103800000D03*
D11*
X295910000Y-106340000D03*
D12*
X292100000Y-103800000D03*
D11*
X289560000Y-108880000D03*
D10*
X287020000Y-103800000D03*
D13*
X299185000Y-106340000D03*
X286258000Y-108880000D03*
%TD*%
D10*
%TO.C,S4*%
X276130000Y-152900000D03*
D11*
X274860000Y-155440000D03*
D12*
X271050000Y-152900000D03*
D11*
X268510000Y-157980000D03*
D10*
X265970000Y-152900000D03*
D13*
X278135000Y-155440000D03*
X265208000Y-157980000D03*
%TD*%
D14*
%TO.C,D6*%
X288290000Y-140900000D03*
D15*
X290450000Y-140900000D03*
X293750000Y-140900000D03*
D16*
X295910000Y-140900000D03*
%TD*%
D10*
%TO.C,S11*%
X318230000Y-195000000D03*
D11*
X316960000Y-197540000D03*
D12*
X313150000Y-195000000D03*
D11*
X310610000Y-200080000D03*
D10*
X308070000Y-195000000D03*
D13*
X320235000Y-197540000D03*
X307308000Y-200080000D03*
%TD*%
D10*
%TO.C,S22*%
X360330000Y-178950000D03*
D11*
X359060000Y-181490000D03*
D12*
X355250000Y-178950000D03*
D11*
X352710000Y-184030000D03*
D10*
X350170000Y-178950000D03*
D13*
X362335000Y-181490000D03*
X349408000Y-184030000D03*
%TD*%
D17*
%TO.C,D30*%
X274653910Y-192673081D03*
D18*
X276740309Y-192114029D03*
X279927865Y-191259929D03*
D16*
X282014264Y-190700877D03*
%TD*%
D24*
%TO.C,*%
X365775000Y-189475000D03*
%TD*%
D10*
%TO.C,S13*%
X318230000Y-152900000D03*
D11*
X316960000Y-155440000D03*
D12*
X313150000Y-152900000D03*
D11*
X310610000Y-157980000D03*
D10*
X308070000Y-152900000D03*
D13*
X320235000Y-155440000D03*
X307308000Y-157980000D03*
%TD*%
D14*
%TO.C,D14*%
X330390000Y-195000000D03*
D15*
X332550000Y-195000000D03*
X335850000Y-195000000D03*
D16*
X338010000Y-195000000D03*
%TD*%
D14*
%TO.C,D2*%
X267240000Y-147900000D03*
D15*
X269400000Y-147900000D03*
X272700000Y-147900000D03*
D16*
X274860000Y-147900000D03*
%TD*%
D24*
%TO.C,*%
X281575000Y-121000000D03*
%TD*%
D14*
%TO.C,D22*%
X351440000Y-131850000D03*
D15*
X353600000Y-131850000D03*
X356900000Y-131850000D03*
D16*
X359060000Y-131850000D03*
%TD*%
D14*
%TO.C,D20*%
X351440000Y-173950000D03*
D15*
X353600000Y-173950000D03*
X356900000Y-173950000D03*
D16*
X359060000Y-173950000D03*
%TD*%
D10*
%TO.C,S15*%
X318230000Y-110800000D03*
D11*
X316960000Y-113340000D03*
D12*
X313150000Y-110800000D03*
D11*
X310610000Y-115880000D03*
D10*
X308070000Y-110800000D03*
D13*
X320235000Y-113340000D03*
X307308000Y-115880000D03*
%TD*%
D14*
%TO.C,D24*%
X372490000Y-195000000D03*
D15*
X374650000Y-195000000D03*
X377950000Y-195000000D03*
D16*
X380110000Y-195000000D03*
%TD*%
D10*
%TO.C,S33*%
X250000000Y-131770000D03*
D11*
X252540000Y-133040000D03*
D12*
X250000000Y-136850000D03*
D11*
X255080000Y-139390000D03*
D10*
X250000000Y-141930000D03*
D25*
X252540000Y-129765000D03*
X255080000Y-142692000D03*
%TD*%
D14*
%TO.C,D17*%
X330390000Y-131850000D03*
D15*
X332550000Y-131850000D03*
X335850000Y-131850000D03*
D16*
X338010000Y-131850000D03*
%TD*%
D10*
%TO.C,S3*%
X276130000Y-173950000D03*
D11*
X274860000Y-176490000D03*
D12*
X271050000Y-173950000D03*
D11*
X268510000Y-179030000D03*
D10*
X265970000Y-173950000D03*
D13*
X278135000Y-176490000D03*
X265208000Y-179030000D03*
%TD*%
M02*
