M48
; DRILL file {KiCad 9.0.3-1.fc42} date 2025-08-09T15:11:41+0200
; FORMAT={-:-/ absolute / metric / decimal}
; #@! TF.CreationDate,2025-08-09T15:11:41+02:00
; #@! TF.GenerationSoftware,Kicad,Pcbnew,9.0.3-1.fc42
; #@! TF.FileFunction,Plated,1,2,PTH
FMAT,2
METRIC
; #@! TA.AperFunction,Plated,PTH,ComponentDrill
T1C0.900
; #@! TA.AperFunction,Plated,PTH,ComponentDrill
T2C0.991
; #@! TA.AperFunction,Plated,PTH,ComponentDrill
T3C1.020
%
G90
G05
T2
X245.0Y-111.99
X245.0Y-119.61
X245.0Y-133.04
X245.0Y-140.66
X245.121Y-200.586
X246.19Y-149.9
X250.69Y-185.95
X252.481Y-198.614
X253.81Y-149.9
X258.31Y-185.95
X267.24Y-105.8
X267.24Y-126.85
X267.24Y-147.9
X267.24Y-168.95
X274.654Y-192.673
X274.86Y-105.8
X274.86Y-126.85
X274.86Y-147.9
X274.86Y-168.95
X282.014Y-190.701
X288.29Y-98.8
X288.29Y-119.85
X288.29Y-140.9
X288.29Y-161.95
X295.91Y-98.8
X295.91Y-119.85
X295.91Y-140.9
X295.91Y-161.95
X309.34Y-105.8
X309.34Y-126.85
X309.34Y-147.9
X309.34Y-168.95
X309.34Y-190.0
X316.96Y-105.8
X316.96Y-126.85
X316.96Y-147.9
X316.96Y-168.95
X316.96Y-190.0
X330.39Y-110.8
X330.39Y-131.85
X330.39Y-152.9
X330.39Y-173.95
X330.39Y-195.0
X338.01Y-110.8
X338.01Y-131.85
X338.01Y-152.9
X338.01Y-173.95
X338.01Y-195.0
X351.44Y-110.8
X351.44Y-131.85
X351.44Y-152.9
X351.44Y-173.95
X351.44Y-195.0
X359.06Y-110.8
X359.06Y-131.85
X359.06Y-152.9
X359.06Y-173.95
X359.06Y-195.0
X372.49Y-110.8
X372.49Y-131.85
X372.49Y-152.9
X372.49Y-173.95
X372.49Y-195.0
X380.11Y-110.8
X380.11Y-131.85
X380.11Y-152.9
X380.11Y-173.95
X380.11Y-195.0
T3
X241.11Y-104.67
X241.11Y-107.21
X241.11Y-109.75
X241.11Y-112.29
X241.11Y-114.83
X241.11Y-117.37
X241.11Y-119.91
X241.11Y-122.45
X241.11Y-124.99
X241.11Y-127.53
X241.11Y-130.07
X241.11Y-132.61
X241.11Y-135.15
X241.11Y-137.69
X241.11Y-140.23
X241.11Y-142.77
X241.11Y-145.31
X241.11Y-147.85
X241.11Y-150.39
X241.11Y-152.93
X258.89Y-104.67
X258.89Y-107.21
X258.89Y-109.75
X258.89Y-112.29
X258.89Y-114.83
X258.89Y-117.37
X258.89Y-119.91
X258.89Y-122.45
X258.89Y-124.99
X258.89Y-127.53
X258.89Y-130.07
X258.89Y-132.61
X258.89Y-135.15
X258.89Y-137.69
X258.89Y-140.23
X258.89Y-142.77
X258.89Y-145.31
X258.89Y-147.85
X258.89Y-150.39
X258.89Y-152.93
T1
G00X241.9Y-167.6
M15
G01X242.5Y-167.6
M16
G05
G00X241.9Y-174.5
M15
G01X242.5Y-174.5
M16
G05
G00X244.9Y-167.6
M15
G01X245.5Y-167.6
M16
G05
G00X244.9Y-174.5
M15
G01X245.5Y-174.5
M16
G05
G00X248.9Y-167.6
M15
G01X249.5Y-167.6
M16
G05
G00X248.9Y-174.5
M15
G01X249.5Y-174.5
M16
G05
G00X250.0Y-169.9
M15
G01X250.6Y-169.9
M16
G05
G00X250.0Y-172.2
M15
G01X250.6Y-172.2
M16
G05
M30
