M48
; DRILL file {KiCad 9.0.3-1.fc42} date 2025-08-09T15:11:41+0200
; FORMAT={-:-/ absolute / metric / decimal}
; #@! TF.CreationDate,2025-08-09T15:11:41+02:00
; #@! TF.GenerationSoftware,Kicad,Pcbnew,9.0.3-1.fc42
; #@! TF.FileFunction,NonPlated,1,2,NPTH
FMAT,2
METRIC
; #@! TA.AperFunction,NonPlated,NPTH,ComponentDrill
T1C1.500
; #@! TA.AperFunction,NonPlated,NPTH,ComponentDrill
T2C1.702
; #@! TA.AperFunction,NonPlated,NPTH,ComponentDrill
T3C3.000
; #@! TA.AperFunction,NonPlated,NPTH,ComponentDrill
T4C3.988
; #@! TA.AperFunction,NonPlated,NPTH,ComponentDrill
T5C4.000
%
G90
G05
T1
X240.6Y-169.9
X240.6Y-172.2
X247.6Y-169.9
X247.6Y-172.2
T2
X244.92Y-157.9
X244.92Y-178.95
X245.188Y-205.745
X250.0Y-110.72
X250.0Y-120.88
X250.0Y-131.77
X250.0Y-141.93
X255.002Y-203.115
X255.08Y-157.9
X255.08Y-178.95
X265.97Y-110.8
X265.97Y-131.85
X265.97Y-152.9
X265.97Y-173.95
X274.721Y-197.831
X276.13Y-110.8
X276.13Y-131.85
X276.13Y-152.9
X276.13Y-173.95
X284.535Y-195.202
X287.02Y-103.8
X287.02Y-124.85
X287.02Y-145.9
X287.02Y-166.95
X297.18Y-103.8
X297.18Y-124.85
X297.18Y-145.9
X297.18Y-166.95
X308.07Y-110.8
X308.07Y-131.85
X308.07Y-152.9
X308.07Y-173.95
X308.07Y-195.0
X318.23Y-110.8
X318.23Y-131.85
X318.23Y-152.9
X318.23Y-173.95
X318.23Y-195.0
X329.12Y-115.8
X329.12Y-136.85
X329.12Y-157.9
X329.12Y-178.95
X329.12Y-200.0
X339.28Y-115.8
X339.28Y-136.85
X339.28Y-157.9
X339.28Y-178.95
X339.28Y-200.0
X350.17Y-115.8
X350.17Y-136.85
X350.17Y-157.9
X350.17Y-178.95
X350.17Y-200.0
X360.33Y-115.8
X360.33Y-136.85
X360.33Y-157.9
X360.33Y-178.95
X360.33Y-200.0
X371.22Y-115.8
X371.22Y-136.85
X371.22Y-157.9
X371.22Y-178.95
X371.22Y-200.0
X381.38Y-115.8
X381.38Y-136.85
X381.38Y-157.9
X381.38Y-178.95
X381.38Y-200.0
T3
X247.46Y-162.98
X247.46Y-184.03
X248.956Y-209.994
X252.54Y-111.99
X252.54Y-133.04
X253.81Y-160.44
X253.81Y-181.49
X254.433Y-205.897
X255.08Y-118.34
X255.08Y-139.39
X268.51Y-115.88
X268.51Y-136.93
X268.51Y-157.98
X268.51Y-179.03
X274.86Y-113.34
X274.86Y-134.39
X274.86Y-155.44
X274.86Y-176.49
X278.49Y-202.081
X283.966Y-197.984
X289.56Y-108.88
X289.56Y-129.93
X289.56Y-150.98
X289.56Y-172.03
X295.91Y-106.34
X295.91Y-127.39
X295.91Y-148.44
X295.91Y-169.49
X310.61Y-115.88
X310.61Y-136.93
X310.61Y-157.98
X310.61Y-179.03
X310.61Y-200.08
X316.96Y-113.34
X316.96Y-134.39
X316.96Y-155.44
X316.96Y-176.49
X316.96Y-197.54
X331.66Y-120.88
X331.66Y-141.93
X331.66Y-162.98
X331.66Y-184.03
X331.66Y-205.08
X338.01Y-118.34
X338.01Y-139.39
X338.01Y-160.44
X338.01Y-181.49
X338.01Y-202.54
X352.71Y-120.88
X352.71Y-141.93
X352.71Y-162.98
X352.71Y-184.03
X352.71Y-205.08
X359.06Y-118.34
X359.06Y-139.39
X359.06Y-160.44
X359.06Y-181.49
X359.06Y-202.54
X373.76Y-120.88
X373.76Y-141.93
X373.76Y-162.98
X373.76Y-184.03
X373.76Y-205.08
X380.11Y-118.34
X380.11Y-139.39
X380.11Y-160.44
X380.11Y-181.49
X380.11Y-202.54
T4
X250.0Y-115.8
X250.0Y-136.85
X250.0Y-157.9
X250.0Y-178.95
X250.095Y-204.43
X271.05Y-110.8
X271.05Y-131.85
X271.05Y-152.9
X271.05Y-173.95
X279.628Y-196.517
X292.1Y-103.8
X292.1Y-124.85
X292.1Y-145.9
X292.1Y-166.95
X313.15Y-110.8
X313.15Y-131.85
X313.15Y-152.9
X313.15Y-173.95
X313.15Y-195.0
X334.2Y-115.8
X334.2Y-136.85
X334.2Y-157.9
X334.2Y-178.95
X334.2Y-200.0
X355.25Y-115.8
X355.25Y-136.85
X355.25Y-157.9
X355.25Y-178.95
X355.25Y-200.0
X376.3Y-115.8
X376.3Y-136.85
X376.3Y-157.9
X376.3Y-178.95
X376.3Y-200.0
T5
X260.525Y-189.475
X281.575Y-121.0
X302.625Y-163.5
X365.775Y-126.325
X365.775Y-189.475
M30
